<svg width="129" height="128" viewBox="0 0 129 128" fill="none" xmlns="http://www.w3.org/2000/svg">
<path d="M95.7514 53.1325L95.7574 53.1284C97.9935 51.5965 99.1629 49.3729 99.1629 46.6615C99.1629 43.9502 97.9935 41.7266 95.7574 40.1947L95.7514 40.1906L77.5382 27.8097C76.3335 26.9403 75.0046 26.3955 73.5706 26.3092C72.1251 26.2223 70.7356 26.6111 69.438 27.347C66.7725 28.8539 65.3491 31.2525 65.3491 34.307V59.0161C65.3491 62.07 66.7719 64.4683 69.4364 65.9752C70.7345 66.7117 72.1246 67.1009 73.5706 67.0139C75.0046 66.9276 76.3335 66.3828 77.5382 65.5134L95.7514 53.1325ZM33.8119 85.0418V85.0389V11.6008C33.8119 8.78895 34.7287 6.54877 36.5371 4.73643C38.3458 2.92389 40.5799 2.00437 43.3822 2H116.661C119.462 2 121.695 2.91859 123.503 4.7349C125.315 6.55396 126.233 8.79655 126.237 11.6037V85.0389C126.237 87.8437 125.32 90.0846 123.505 91.9032C121.691 93.7216 119.456 94.6397 116.661 94.6397H43.3807C40.5856 94.6397 38.3516 93.7216 36.5371 91.9032C34.7232 90.0854 33.8079 87.8457 33.8119 85.0418ZM14.698 123.997L14.6976 123.997C12.6187 122.404 11.4355 120.323 11.1115 117.628L11.11 117.617L2.31517 47.9041C2.31491 47.9018 2.31464 47.8996 2.31437 47.8974C1.99699 45.2163 2.65658 42.8316 4.3433 40.637L4.34438 40.6356C6.00636 38.4692 8.09531 37.2946 10.7135 37.0202L13.7737 36.8792L13.8074 36.8776L13.8411 36.8749C14.3349 36.8354 14.7169 36.957 15.0983 37.2763L15.1029 37.2801C15.3798 37.5105 15.5641 37.8152 15.5641 38.4348C15.5641 38.7975 15.4531 39.1427 15.1245 39.5286C14.8329 39.871 14.5675 39.9947 14.2752 40.0291L11.5354 40.1629L11.5101 40.1641L11.4848 40.166C9.66946 40.3008 8.11481 41.083 7.00678 42.5323L7.00389 42.5361C5.92248 43.9576 5.53915 45.6279 5.78914 47.3984L14.3541 117.149L14.3563 117.167L14.3588 117.184C14.6031 118.918 15.3774 120.41 16.7337 121.501L16.7377 121.504C18.1319 122.619 19.7987 123.001 21.5625 122.75L105.878 112.199L105.893 112.197L105.908 112.195C106.43 112.122 106.774 112.23 107.088 112.475C107.424 112.737 107.638 113.074 107.721 113.625C107.798 114.147 107.684 114.412 107.499 114.628C107.238 114.933 106.886 115.15 106.318 115.24L21.8372 125.917C21.8354 125.918 21.8337 125.918 21.8319 125.918C19.1339 126.243 16.7953 125.605 14.698 123.997Z" stroke="#0C0C0C" stroke-width="4"/>
</svg>
