<svg width="116" height="132" viewBox="0 0 116 132" fill="none" xmlns="http://www.w3.org/2000/svg">
<path d="M58 58V130M58 58C37.952 52.32 32.472 46.84 8.904 47.2C7.09145 47.2019 5.35216 47.9156 4.0608 49.1875C2.76945 50.4594 2.02937 52.1877 2 54V112.304C2 116.168 5.312 119.256 9.328 119.2C31.528 118.912 37.008 124.448 58 130M58 58C78.04 52.32 82.856 46.84 106.416 47.2C110.256 47.264 114 50.304 114 54V112.304C114 116.168 110.008 119.256 106 119.2C83.8 118.912 78.992 124.448 58 130M74 18C74 22.2435 72.3143 26.3131 69.3137 29.3137C66.3131 32.3143 62.2435 34 58 34C53.7565 34 49.6869 32.3143 46.6863 29.3137C43.6857 26.3131 42 22.2435 42 18C42 13.7565 43.6857 9.68687 46.6863 6.68629C49.6869 3.68571 53.7565 2 58 2C62.2435 2 66.3131 3.68571 69.3137 6.68629C72.3143 9.68687 74 13.7565 74 18Z" stroke="#1F1C1C" stroke-width="4" stroke-linejoin="round"/>
</svg>
