<?xml version="1.0" encoding="UTF-8"?>
<svg id="Layer_1" xmlns="http://www.w3.org/2000/svg" viewBox="0 0 1080 1080">
  <defs>
    <style>
      .cls-1 {
        fill: #0c0c0c;
      }

      .cls-2 {
        fill: none;
        stroke: #0c0c0c;
        stroke-miterlimit: 10;
        stroke-width: 4px;
      }
    </style>
  </defs>
  <path class="cls-1" d="M861.04,888.84h-92.85v-61.27h-135.41v61.27H231.98c-34.89,0-63.28-28.38-63.28-63.27,0-16.9,6.58-32.79,18.54-44.74,11.94-11.95,27.83-18.54,44.74-18.54h629.06v126.55ZM772.19,884.84h84.85v-118.55H231.98c-15.84,0-30.73,6.17-41.92,17.36-11.2,11.2-17.37,26.08-17.37,41.92,0,32.68,26.59,59.27,59.28,59.27h396.8v-61.27h143.41v61.27Z"/>
  <path class="cls-2" d="M285.08,122.93v641.36h573.96V122.93H285.08ZM699.24,393.66c-14.61,8.56-35.89,12.47-51.61,6.36-3.83-1.48-7.33-3.56-10.33-6.32-3.07-2.83-5.51-6.27-7.35-10.14-10.98-22.99-1.24-61.11,19.22-75.27,17.64-12.21,35.37-1.14,57.7-17.36,17.78-12.92,19.17-29.11,23.49-28.09,10.43,2.48,19.86,100.97-31.12,130.82ZM562.37,512.55c-15.84-15.83-31.67-31.66-47.51-47.5-15.48-15.48-30.97-30.97-46.46-46.46l72.38-72.38c18.28,18.27,36.57,36.56,54.85,54.84,11.09,11.09,22.19,22.19,33.28,33.28l78.96,78.96-36.19,36.19-36.2,36.19c-24.37-24.37-48.74-48.74-73.11-73.12Z"/>
  <path class="cls-2" d="M730.36,225.06h-322.72c-23.69,0-42.9,19.2-42.9,42.89v359.49c0,23.69,19.21,42.89,42.9,42.89h322.72c23.69,0,42.89-19.2,42.89-42.89v-359.49c0-23.69-19.2-42.89-42.89-42.89ZM649.17,308.29c17.64-12.21,35.37-1.14,57.7-17.36,17.78-12.92,19.17-29.11,23.49-28.09,10.43,2.48,19.86,100.97-31.12,130.82-14.61,8.56-35.89,12.47-51.61,6.36-3.83-1.48-7.33-3.56-10.33-6.32-3.07-2.83-5.51-6.27-7.35-10.14-10.98-22.99-1.24-61.11,19.22-75.27ZM562.37,512.55c-15.84-15.83-31.67-31.66-47.51-47.5-15.48-15.48-30.97-30.97-46.46-46.46l72.38-72.38c18.28,18.27,36.57,36.56,54.85,54.84,11.09,11.09,22.19,22.19,33.28,33.28l78.96,78.96-36.19,36.19-36.2,36.19c-24.37-24.37-48.74-48.74-73.11-73.12Z"/>
  <path class="cls-1" d="M287.08,888.84h-55.1c-34.89,0-63.28-28.38-63.28-63.27V120.93h118.38v767.91ZM172.7,124.93v700.64c0,32.68,26.59,59.27,59.28,59.27h51.1V124.93h-110.38Z"/>
  <rect class="cls-1" x="509.76" y="823.57" width="121.02" height="4"/>
  <rect class="cls-1" x="770.19" y="823.57" width="88.85" height="4"/>
  <path class="cls-1" d="M628.78,994.15v-170.58h143.41v170.53l-72.46-56.71-70.95,56.76ZM699.7,932.29l68.48,53.6v-158.32h-135.41v158.26l66.93-53.54Z"/>
  <path class="cls-1" d="M635.48,588.5l-4.59-4.59c-23.31-23.31-46.62-46.62-69.93-69.94-15.84-15.83-31.67-31.66-47.51-47.5l-47.87-47.87,39.02-39.02,169.92,169.91-39.03,39.02ZM471.23,418.59l45.05,45.05c15.84,15.84,31.67,31.67,47.51,47.5,23.31,23.32,46.62,46.63,69.93,69.94l1.76,1.76,33.37-33.36-73.11-73.1-91.16-91.16-33.36,33.36Z"/>
  <path class="cls-1" d="M671.68,552.31l-169.92-169.91,39.02-39.02,1.41,1.41c17.45,17.44,34.91,34.9,52.36,52.35l116.15,116.15-39.02,39.02ZM507.42,382.4l91.16,91.16,73.11,73.1,33.36-33.36-113.32-113.32c-16.98-16.98-33.96-33.96-50.94-50.93l-33.36,33.36Z"/>
  <path class="cls-1" d="M468.4,421.42l-28.73-28.73c-12.08-12.09-24.16-24.17-36.25-36.26l-.19-.22c-15.83-21.16-13.78-51.26,4.77-70.01,18.75-18.94,49.02-21.16,70.41-5.18l.22.19c12.08,12.08,24.17,24.17,36.25,36.26,9.11,9.1,18.21,18.2,27.32,27.32l1.41,1.41-75.21,75.21ZM406.35,353.7c12.06,12.06,24.1,24.1,36.15,36.16l25.9,25.9,69.55-69.55c-8.64-8.65-17.27-17.27-25.9-25.9h0c-12.05-12.06-24.1-24.11-36.15-36.16-19.79-14.71-47.74-12.62-65.06,4.87-17.14,17.32-19.06,45.1-4.49,64.68Z"/>
  <path class="cls-1" d="M746.33,623.76c-4.05,0-16.07-2.89-56.98-16.91-27.19-9.32-54.29-19.2-54.56-19.3l-2.95-1.08,76.83-76.82,40.85,112.43-.9.9c-.38.38-.78.78-2.29.78ZM639.11,584.86c36.94,13.43,92.99,32.87,105.28,34.8l-37.33-102.74-67.95,67.94Z"/>
  <rect class="cls-1" x="426.09" y="353.08" width="102.36" height="4" transform="translate(-111.29 441.48) rotate(-45)"/>
  <path class="cls-1" d="M407,627.08c-3.6,0-6.57-.93-8.64-3.08-8.98-9.32,5.6-34.88,19.41-54.67,18.99-27.22,47.69-59.79,80.82-91.71,5.26-5.07,10.14-9.66,14.92-14.04l1.41-1.29,1.35,1.35c15.84,15.84,31.67,31.67,47.51,47.5l1.41,1.4-1.4,1.41c-4.96,5.03-10.16,10.17-15.46,15.28-33.12,31.93-66.73,59.41-94.63,77.39-15.62,10.07-34.67,20.46-46.71,20.46ZM514.8,467.82c-4.31,3.97-8.72,8.13-13.43,12.68-32.94,31.75-61.46,64.11-80.31,91.12-17.78,25.48-25.19,44.03-19.81,49.61,5.37,5.58,24.18-1.14,50.3-17.97,27.69-17.84,61.08-45.16,94.02-76.91,4.77-4.6,9.47-9.24,13.99-13.79-14.92-14.91-29.83-29.82-44.75-44.74Z"/>
  <path class="cls-1" d="M629.19,437.44l-36.74-36.74,2.1-1.34c13.98-8.91,25.69-14.87,34.8-17.71l1.66-.52.75,1.57c1.78,3.74,4.1,6.95,6.9,9.53,2.71,2.49,5.97,4.49,9.7,5.92l1.77.68-.58,1.8c-2.94,9.07-9.33,20.79-18.97,34.83l-1.36,1.98ZM598.81,401.4l29.8,29.8c7.97-11.8,13.63-22.12,16.51-30.06-3.46-1.54-6.54-3.55-9.18-5.97-2.77-2.56-5.12-5.64-7.01-9.18-8.07,2.76-18.18,7.93-30.12,15.41Z"/>
  <path class="cls-1" d="M664.85,404.94c-6.49,0-12.65-.99-17.94-3.05-4.19-1.62-7.88-3.88-10.96-6.71-3.18-2.93-5.8-6.55-7.8-10.75-11.38-23.83-1.34-63.08,19.89-77.77,8.62-5.97,17.08-6.65,26.03-7.36,9.89-.79,20.11-1.61,31.63-9.97,10.28-7.47,14.85-16.01,17.88-21.67,2.33-4.36,4.01-7.52,7.25-6.75,4.63,1.1,7.07,11.21,8.31,19.49,2.77,18.59,1.64,41.13-3.04,60.29-6.29,25.75-18.68,44.67-35.84,54.71h0c-10.63,6.23-23.55,9.55-35.4,9.55ZM730.01,264.84c-.67.51-1.91,2.82-2.91,4.7-3,5.61-8.03,15-19.05,23.01-12.43,9.03-23.71,9.93-33.66,10.72-8.4.67-16.33,1.31-24.07,6.66-9.36,6.48-16.87,18.57-20.6,33.17-3.73,14.62-2.99,29.05,2.05,39.59,1.78,3.75,4.1,6.95,6.9,9.53,2.71,2.49,5.97,4.49,9.7,5.92,13.9,5.4,34.41,2.84,49.88-6.22h0c15.37-9,26.8-25.83,33.05-48.65,6.84-24.99,5.46-48.23,4.55-57.06-1.5-14.6-4.53-20.65-5.82-21.38Z"/>
</svg>