<?xml version="1.0" encoding="UTF-8"?>
<svg id="Layer_1" xmlns="http://www.w3.org/2000/svg" viewBox="0 0 1080 1080">
  <defs>
    <style>
      .cls-1 {
        fill: #0c0c0c;
      }
    </style>
  </defs>
  <path class="cls-1" d="M680.49,720.69v-198.53l108.6-114.23c15.51-16.3,41.38-16.96,57.68-1.46l40,38.03c7.9,7.5,12.4,17.64,12.68,28.54.27,10.9-3.71,21.25-11.22,29.15l-207.73,218.51ZM684.49,523.76v186.92l200.83-211.25c6.77-7.13,10.37-16.46,10.12-26.29-.25-9.83-4.31-18.97-11.43-25.74l-40-38.03c-14.7-13.98-38.04-13.39-52.03,1.31l-107.5,113.07Z"/>
  <path class="cls-1" d="M684.49,749.38h-136.79v-377.96c0-22.5,18.3-40.8,40.8-40.8h55.18c22.5,0,40.8,18.3,40.8,40.8v377.96ZM551.69,745.38h128.79v-373.96c0-20.29-16.51-36.8-36.8-36.8h-55.18c-20.29,0-36.8,16.51-36.8,36.8v373.96Z"/>
  <path class="cls-1" d="M929.65,749.38h-249.17v-34.49l97.25-102.3h151.92c22.5,0,40.8,18.31,40.8,40.81v55.18c0,22.5-18.3,40.8-40.8,40.8ZM684.49,745.38h245.17c20.29,0,36.8-16.51,36.8-36.8v-55.18c0-20.29-16.51-36.81-36.8-36.81h-150.2l-94.97,99.9v28.9Z"/>
  <rect class="cls-1" x="549.69" y="435.82" width="132.79" height="4"/>
  <rect class="cls-1" x="549.69" y="543.6" width="132.79" height="4"/>
  <path class="cls-1" d="M618.24,709.71c-16.79,0-30.46-13.66-30.46-30.46s13.66-30.46,30.46-30.46,30.46,13.66,30.46,30.46-13.66,30.46-30.46,30.46ZM618.24,652.8c-14.59,0-26.46,11.87-26.46,26.46s11.87,26.46,26.46,26.46,26.46-11.87,26.46-26.46-11.87-26.46-26.46-26.46Z"/>
  <g>
    <path class="cls-1" d="M325.51,740.52h-58.43l-23.35-68.21h-100.2l-22.56,68.21h-58.24l97.52-279.43h65.49l.47,1.33,99.3,278.1ZM269.94,736.52h49.89l-96.91-271.43h-59.84l-94.73,271.43h49.72l21.24-64.21h-19.76v-43.74h34.23l11.16-33.75c4.39-14.15,9.14-30.82,14.11-49.52,3.48-13.09,7.33-27.8,11.5-43.93-1.67-6.25-3.38-12.68-5.12-19.28l-.66-2.51h15.53l-.64,2.5c-1.7,6.62-3.36,13.06-4.96,19.28,4.2,15.71,8.15,30.24,11.79,43.37,5.15,18.57,10.18,35.43,14.95,50.1l11.55,33.74h35.68v43.74h-20.71l21.98,64.21ZM246.59,668.31h18.08v-35.74h-30.31l12.24,35.74ZM144.85,668.31h97.51l-12.24-35.74h-73.45l-11.82,35.74ZM123.55,668.31h17.08l11.82-35.74h-28.9v35.74ZM157.99,628.57h70.76l-11.12-32.47c-4.8-14.76-9.84-31.67-15.01-50.3-3.11-11.22-6.45-23.46-9.97-36.58-3.5,13.48-6.75,25.9-9.74,37.12-4.98,18.75-9.74,35.47-14.16,49.71l-10.76,32.53ZM189.96,483.58c.88,3.35,1.76,6.65,2.63,9.9.84-3.25,1.69-6.55,2.55-9.9h-5.18Z"/>
    <path class="cls-1" d="M414.91,744.77c-13.29,0-25.44-2.45-36.13-7.29-10.78-4.88-19.4-12.18-25.62-21.71-6.23-9.53-9.38-21.4-9.38-35.29,0-12.01,2.3-22.1,6.83-30.02,4.52-7.9,10.72-14.3,18.44-19.01,7.6-4.64,16.27-8.21,25.79-10.59,9.42-2.35,19.34-4.05,29.5-5.04,11.91-1.35,21.72-2.53,29.14-3.5,7.19-.94,12.49-2.46,15.74-4.51,2.92-1.84,4.34-4.68,4.34-8.66v-.92c0-6.39-1.28-11.87-3.8-16.29-2.49-4.36-6.27-7.75-11.22-10.09-5.07-2.39-11.47-3.6-19.02-3.6s-14.44,1.19-20.02,3.54c-5.57,2.35-10.16,5.42-13.64,9.14-3.5,3.74-6.1,7.81-7.72,12.09l-.6,1.59-48.43-9.85.71-2.14c4.16-12.46,10.68-22.91,19.39-31.05,8.67-8.11,19.15-14.25,31.14-18.27,11.92-3.99,25.04-6.02,38.99-6.02,9.84,0,19.91,1.17,29.93,3.47,10.11,2.33,19.5,6.31,27.92,11.83,8.49,5.58,15.43,13.16,20.62,22.52,5.2,9.38,7.83,21.27,7.83,35.35v140.08h-50.03v-26.2c-2.95,4.73-6.68,9.22-11.15,13.38-5.53,5.15-12.47,9.33-20.62,12.42-8.14,3.09-17.86,4.66-28.9,4.66ZM439.5,564.24c8.14,0,15.12,1.34,20.72,3.98,5.71,2.69,10.08,6.64,12.99,11.72,2.87,5.04,4.33,11.18,4.33,18.28v.92c0,5.39-2.09,9.44-6.2,12.04-3.8,2.4-9.47,4.07-17.35,5.1-7.44.98-17.28,2.16-29.24,3.52-10,.98-19.72,2.64-28.95,4.94-9.12,2.28-17.42,5.69-24.67,10.12-7.13,4.36-12.87,10.28-17.05,17.59-4.18,7.3-6.3,16.73-6.3,28.03,0,13.1,2.94,24.24,8.73,33.1,5.8,8.88,13.85,15.69,23.92,20.25,10.17,4.6,21.77,6.94,34.48,6.94,10.55,0,19.79-1.48,27.48-4.4,7.67-2.91,14.16-6.82,19.31-11.61,5.17-4.82,9.3-10.08,12.26-15.65l.56-1.06h5.05v28.47h42.03v-136.08c0-13.39-2.47-24.63-7.33-33.41-4.87-8.79-11.37-15.89-19.31-21.11-8.02-5.26-16.97-9.06-26.62-11.28-9.73-2.24-19.5-3.37-29.04-3.37-13.52,0-26.21,1.96-37.72,5.81-11.44,3.84-21.43,9.69-29.68,17.4-7.72,7.21-13.62,16.38-17.58,27.26l40.68,8.27c1.82-4.19,4.47-8.17,7.9-11.83,3.87-4.13,8.92-7.52,15.01-10.09,6.07-2.56,13.33-3.85,21.57-3.85ZM427.3,709.1c-7.01,0-13.32-1.11-18.77-3.29-5.56-2.22-10.01-5.52-13.24-9.8-3.27-4.34-4.93-9.75-4.93-16.08,0-6.85,1.8-12.53,5.35-16.88,3.47-4.26,8.33-7.61,14.42-9.94,5.9-2.26,12.58-3.91,19.85-4.92,3.19-.38,7-.88,11.37-1.48,4.44-.61,9.01-1.35,13.58-2.2,4.51-.84,8.67-1.82,12.37-2.91,3.5-1.03,5.99-2.1,7.39-3.18l3.22-2.48v28.46c0,7.98-2.12,15.45-6.31,22.22-4.17,6.74-10.08,12.23-17.56,16.32-7.47,4.09-16.47,6.16-26.75,6.16ZM473.92,643.45c-1.5.69-3.32,1.34-5.47,1.98-3.83,1.13-8.13,2.14-12.77,3.01-4.64.87-9.27,1.62-13.77,2.23-4.39.6-8.22,1.1-11.4,1.48-6.94.96-13.32,2.54-18.93,4.69-5.43,2.08-9.72,5.02-12.75,8.73-2.95,3.62-4.45,8.45-4.45,14.36,0,5.45,1.39,10.05,4.12,13.68,2.78,3.69,6.66,6.55,11.53,8.5,4.97,1.99,10.78,3,17.28,3,9.6,0,17.95-1.91,24.83-5.67,6.87-3.76,12.28-8.77,16.08-14.92,3.79-6.12,5.71-12.89,5.71-20.11v-20.95Z"/>
  </g>
</svg>