<svg width="113" height="132" viewBox="0 0 113 132" fill="none" xmlns="http://www.w3.org/2000/svg">
<path d="M83.167 67.3334C83.167 77.7298 80.1133 87.0806 75.2511 93.7951C70.3875 100.511 63.798 104.5 56.667 104.5C49.536 104.5 42.9465 100.511 38.0829 93.7951C33.2207 87.0806 30.167 77.7298 30.167 67.3334C30.167 56.9371 33.2207 47.5863 38.0829 40.8717C42.9465 34.1554 49.536 30.1667 56.667 30.1667C63.798 30.1667 70.3875 34.1554 75.2511 40.8717C80.1133 47.5863 83.167 56.9371 83.167 67.3334Z" stroke="#FDFEFD" stroke-width="3"/>
<path d="M14.6667 64.6667H2" stroke="#FDFEFD" stroke-width="3" stroke-linecap="round"/>
<path d="M27.3333 26.6666L20 19.3333" stroke="#FDFEFD" stroke-width="3" stroke-linecap="round"/>
<path d="M56.667 14.6667V2" stroke="#FDFEFD" stroke-width="3" stroke-linecap="round"/>
<path d="M90 26.6666L97.3333 19.3333" stroke="#FDFEFD" stroke-width="3" stroke-linecap="round"/>
<path d="M98 64.6667H111.333" stroke="#FDFEFD" stroke-width="3" stroke-linecap="round"/>
<path d="M38 117.333H76" stroke="#FDFEFD" stroke-width="3" stroke-linecap="round"/>
<path d="M38 130H76" stroke="#FDFEFD" stroke-width="3" stroke-linecap="round"/>
<path d="M52.0003 102C53.3337 94.4444 53.3337 78.1333 42.667 73.3333" stroke="#FDFEFD" stroke-width="3" stroke-linecap="round"/>
<path d="M61.2721 102C59.9388 94.4444 59.9388 78.1333 70.6055 73.3333" stroke="#FDFEFD" stroke-width="3" stroke-linecap="round"/>
</svg>
