<?xml version="1.0" encoding="UTF-8"?>
<svg id="Layer_1" xmlns="http://www.w3.org/2000/svg" viewBox="0 0 1080 1080">
  <defs>
    <style>
      .cls-1 {
        fill: #0c0c0c;
      }
    </style>
  </defs>
  <path class="cls-1" d="M728.15,666.78l-49.87-36.63,3.66-4.98c22.24-30.29,44.48-60.58,66.73-90.87,14.98-20.42,29.96-40.82,44.95-61.24l45.15-61.5,49.87,36.62-160.49,218.6ZM683.86,629.3l43.43,31.89,69.33-94.44,86.43-117.71-43.42-31.88-42.79,58.27c-14.99,20.42-29.97,40.82-44.95,61.24-22.25,30.29-44.49,60.58-66.73,90.87l-1.29,1.76Z"/>
  <path class="cls-1" d="M774.8,701.03l-49.87-36.62,160.49-218.6,49.87,36.62-1.18,1.61c-17.29,23.56-34.6,47.14-51.9,70.7l-107.41,146.29ZM730.52,663.56l43.42,31.88,105.04-143.07c16.91-23.03,33.82-46.06,50.72-69.09l-43.43-31.88-86.42,117.71-69.33,94.44Z"/>
  <path class="cls-1" d="M932.92,485.65l-96.52-70.87,27.04-36.83c11.44-15.57,22.88-31.14,34.32-46.73l.19-.22c20.85-21.23,54.69-24.08,78.72-6.63,24.27,17.64,31.91,50.94,17.77,77.48l-.15.24c-11.43,15.57-22.88,31.16-34.32,46.73-8.61,11.74-17.22,23.47-25.86,35.22l-1.18,1.61ZM841.99,413.93l90.07,66.13c8.24-11.21,16.45-22.4,24.67-33.6h0c11.41-15.54,22.83-31.08,34.23-46.61,13.12-24.76,5.97-55.79-16.66-72.23-22.4-16.27-53.94-13.64-73.42,6.1-11.41,15.54-22.82,31.08-34.23,46.61l-24.67,33.6Z"/>
  <path class="cls-1" d="M659.93,763.12l-1.03-.75c-1.64-1.2-3.88-2.85,7.98-68.75,5.76-31.98,12.16-63.97,12.23-64.29l.62-3.08,98.36,72.23-118.16,64.64ZM661.69,759.65s0,0,0,0h0ZM682.41,633.19c-8.79,44.09-21.14,111.3-20.94,124.52l109.18-59.73-88.24-64.79Z"/>
  <rect class="cls-1" x="909.7" y="355.52" width="4" height="115.75" transform="translate(38.91 903.63) rotate(-53.71)"/>
  <path class="cls-1" d="M359.57,492.35l-4-.04c.59-56.89,25.31-111.01,67.82-148.48,39.65-34.94,90.28-51.74,138.92-46.09,43.42,5.04,84.06,27.47,114.43,63.14,31,36.41,47.93,83.1,47.68,131.47l-4-.02c.51-96.49-69.14-180.22-158.57-190.61-47.51-5.52-97.02,10.93-135.81,45.12-41.66,36.72-65.89,89.76-66.46,145.52Z"/>
  <rect class="cls-1" x="333.74" y="471.64" width="47.66" height="43.33"/>
  <rect class="cls-1" x="443.02" y="650.7" width="195.66" height="43.33"/>
  <rect class="cls-1" x="457.81" y="705.9" width="166.08" height="43.33"/>
  <rect class="cls-1" x="698.6" y="471.64" width="47.66" height="43.33"/>
  <rect class="cls-1" x="516.17" y="276.99" width="47.66" height="43.33" rx="11.48" ry="11.48"/>
  <rect class="cls-1" x="691.85" y="276.99" width="47.66" height="43.33" rx="11.48" ry="11.48"/>
  <rect class="cls-1" x="342.22" y="276.99" width="47.66" height="43.33" rx="11.48" ry="11.48"/>
  <rect class="cls-1" x="364.98" y="296.66" width="357.45" height="4"/>
  <path class="cls-1" d="M621.55,643.23h-160.78l-42.84-84.12.49-.92,118.57-222.4.59,191.46-.77.6c-10.55,8.25-15.16,20.59-11.22,30.01,2.26,5.42,7.95,11.33,15.1,11.52,6.76.19,12.44-4.64,15.03-9.49,5-9.38.41-23.04-10.92-32.5l-.73-.61,1.79-190.97,118.04,220.21-42.36,87.21ZM463.22,639.23h155.82l40.37-83.12-109.7-204.64-1.62,173.47c12.23,10.65,16.93,26,11.16,36.83-3.17,5.94-10.15,11.82-18.67,11.61-8.97-.24-15.85-7.19-18.68-13.98-4.53-10.84.27-24.73,11.68-34.09l-.54-173.62-110.6,207.45,40.78,80.08Z"/>
</svg>