<svg width="133" height="132" viewBox="0 0 133 132" fill="none" xmlns="http://www.w3.org/2000/svg">
<path d="M66.4258 66V10C66.4258 5.58172 62.8441 2 58.4258 2H10.4258C6.0075 2 2.42578 5.58172 2.42578 10V66M66.4258 66H2.42578M66.4258 66V130M66.4258 66H122.426C126.844 66 130.426 69.5817 130.426 74V122C130.426 126.418 126.844 130 122.426 130H66.4258M2.42578 66V122C2.42578 126.418 6.0075 130 10.4258 130H66.4258M105.297 34.426C105.297 38.1416 102.285 41.1538 98.5695 41.1538C94.8538 41.1538 91.8417 38.1416 91.8417 34.426C91.8417 30.7103 94.8538 27.6982 98.5695 27.6982C102.285 27.6982 105.297 30.7103 105.297 34.426ZM102.528 12.3409C101.705 12 100.66 12 98.5694 12C96.4793 12 95.4343 12 94.6112 12.3409C94.0667 12.5663 93.5719 12.8968 93.1552 13.3135C92.7384 13.7303 92.4079 14.2251 92.1825 14.7696C91.9762 15.2697 91.8932 15.855 91.8618 16.705C91.8472 17.3193 91.677 17.9199 91.3672 18.4505C91.0573 18.9812 90.618 19.4246 90.0901 19.7392C89.5537 20.0392 88.95 20.1982 88.3354 20.2013C87.7208 20.2045 87.1154 20.0516 86.576 19.7571C85.8225 19.358 85.2775 19.1382 84.7371 19.0664C83.5582 18.9114 82.366 19.2308 81.4225 19.9545C80.7183 20.4994 80.1936 21.4032 79.1485 23.213C78.1035 25.0228 77.5787 25.9265 77.4643 26.8124C77.3873 27.3965 77.426 27.99 77.5784 28.5591C77.7308 29.1282 77.9938 29.6617 78.3524 30.1292C78.6843 30.5597 79.1485 30.9208 79.8684 31.3738C80.9291 32.0399 81.6109 33.1746 81.6109 34.426C81.6109 35.6774 80.9291 36.8121 79.8684 37.4759C79.1485 37.9312 78.682 38.2922 78.3524 38.7228C77.9938 39.1902 77.7308 39.7237 77.5784 40.2929C77.426 40.862 77.3873 41.4555 77.4643 42.0396C77.5809 42.9232 78.1035 43.8292 79.1463 45.639C80.1936 47.4488 80.7161 48.3525 81.4225 48.8975C81.8899 49.2561 82.4235 49.5191 82.9926 49.6715C83.5617 49.8238 84.1552 49.8626 84.7393 49.7855C85.2775 49.7138 85.8225 49.494 86.576 49.0948C87.1154 48.8003 87.7208 48.6475 88.3354 48.6506C88.95 48.6538 89.5537 48.8128 90.0901 49.1128C91.1733 49.7407 91.8169 50.8956 91.8618 52.147C91.8932 52.9992 91.9739 53.5823 92.1825 54.0824C92.4079 54.6269 92.7384 55.1217 93.1552 55.5384C93.5719 55.9552 94.0667 56.2857 94.6112 56.5111C95.4343 56.852 96.4793 56.852 98.5694 56.852C100.66 56.852 101.705 56.852 102.528 56.5111C103.072 56.2857 103.567 55.9552 103.984 55.5384C104.4 55.1217 104.731 54.6269 104.956 54.0824C105.163 53.5823 105.246 52.9992 105.277 52.147C105.322 50.8956 105.966 49.7384 107.049 49.1128C107.585 48.8128 108.189 48.6538 108.803 48.6506C109.418 48.6475 110.023 48.8003 110.563 49.0948C111.316 49.494 111.861 49.7138 112.4 49.7855C112.984 49.8626 113.577 49.8238 114.146 49.6715C114.715 49.5191 115.249 49.2561 115.716 48.8975C116.423 48.3548 116.945 47.4488 117.99 45.639C119.035 43.8292 119.56 42.9254 119.674 42.0396C119.752 41.4555 119.713 40.862 119.56 40.2929C119.408 39.7237 119.145 39.1902 118.786 38.7228C118.455 38.2922 117.99 37.9312 117.27 37.4782C116.746 37.1584 116.31 36.7106 116.006 36.1768C115.701 35.643 115.536 35.0406 115.528 34.426C115.528 33.1746 116.21 32.0399 117.27 31.3761C117.99 30.9208 118.457 30.5597 118.786 30.1292C119.145 29.6617 119.408 29.1282 119.56 28.5591C119.713 27.99 119.752 27.3965 119.674 26.8124C119.558 25.9288 119.035 25.0228 117.993 23.213C116.945 21.4032 116.423 20.4994 115.716 19.9545C115.249 19.5959 114.715 19.3329 114.146 19.1805C113.577 19.0281 112.984 18.9894 112.4 19.0664C111.861 19.1382 111.316 19.358 110.561 19.7571C110.021 20.0512 109.416 20.2039 108.802 20.2007C108.188 20.1976 107.585 20.0388 107.049 19.7392C106.521 19.4246 106.081 18.9812 105.772 18.4505C105.462 17.9199 105.292 17.3193 105.277 16.705C105.246 15.8528 105.165 15.2697 104.956 14.7696C104.731 14.2251 104.4 13.7303 103.984 13.3135C103.567 12.8968 103.072 12.5663 102.528 12.3409Z" stroke="#1F1C1C" stroke-width="4"/>
</svg>
