<svg width="133" height="114" viewBox="0 0 133 114" fill="none" xmlns="http://www.w3.org/2000/svg">
<path d="M115.608 76.1637H17.7262M115.608 76.1637V27.9333C115.608 15.8629 115.608 9.83405 111.857 6.08365C108.113 2.33325 102.078 2.33325 90.0078 2.33325H43.3262C31.2558 2.33325 25.227 2.33325 21.4766 6.08365C17.7262 9.83405 17.7262 15.8629 17.7262 27.9333V76.1637M115.608 76.1637L126.769 87.6837L127.333 88.2725C129.385 90.5277 130.566 93.4419 130.661 96.4901L130.667 97.3029C130.667 98.2629 130.667 98.7364 130.641 99.1396C130.445 102.249 129.121 105.181 126.918 107.384C124.714 109.587 121.783 110.911 118.673 111.108C118.061 111.134 117.449 111.142 116.837 111.133H16.4974C15.5374 111.133 15.0638 111.133 14.6606 111.108C11.5508 110.911 8.61949 109.587 6.41619 107.384C4.21288 105.181 2.88894 102.249 2.69259 99.1396C2.66699 98.7364 2.66699 98.2565 2.66699 97.3093L2.67339 96.4964C2.76836 93.4483 3.94854 90.5341 6.00139 88.2789L6.56459 87.6901L17.7262 76.1637" stroke="#1F1C1C" stroke-width="4" stroke-linecap="round"/>
<path opacity="0.5" d="M50.667 95.1331H82.667" stroke="#1F1C1C" stroke-width="4" stroke-linecap="round"/>
<path d="M86.9795 20.5375L94.5766 35.3951L100.681 32.4005C100.692 32.395 100.701 32.3879 100.708 32.3799C100.715 32.3721 100.72 32.3635 100.723 32.3551L101.197 32.515L100.723 32.3551C100.728 32.3388 100.727 32.3212 100.719 32.3049L86.9795 20.5375ZM86.9795 20.5375L93.0685 17.564L93.0693 17.5636C93.0804 17.5581 93.0931 17.5547 93.1064 17.5537C93.1197 17.5528 93.1329 17.5545 93.1452 17.5584L93.1467 17.5589C93.1589 17.5629 93.1696 17.5689 93.1782 17.5762C93.1867 17.5833 93.193 17.5914 93.1973 17.5997C93.1974 17.5998 93.1974 17.5999 93.1975 17.6001L100.719 32.3048L86.9795 20.5375ZM67.674 61.7848L67.6966 61.6978C67.7371 61.5423 67.7457 61.3808 67.7221 61.2223C67.6985 61.0638 67.6429 60.9109 67.5583 60.7724C67.4736 60.6338 67.3612 60.5122 67.2272 60.4149C67.0931 60.3177 66.9401 60.2468 66.7767 60.2069L54.8065 57.2835L54.7157 57.2613L54.639 57.2079L47.155 51.9861L47.1544 51.9856C46.8799 51.7935 46.5366 51.7147 46.2005 51.7689C45.8645 51.8232 45.5675 52.0051 45.3728 52.2706C45.1784 52.5357 45.101 52.8632 45.1548 53.1817C45.2087 53.5005 45.3905 53.7885 45.6645 53.9803C45.6645 53.9804 45.6645 53.9804 45.6646 53.9804L53.4366 59.3974L53.4399 59.3997C53.5659 59.4891 53.7086 59.5548 53.8606 59.593C53.861 59.5931 53.8613 59.5932 53.8617 59.5933L66.1587 62.5965L67.674 61.7848ZM67.674 61.7848C67.581 62.062 67.3879 62.3012 67.1254 62.4553C66.8363 62.6252 66.4885 62.6765 66.1592 62.5966L67.674 61.7848ZM78.4605 32.0032L78.4603 32.0031C78.0237 31.6616 77.4753 31.491 76.9204 31.5215C76.3655 31.552 75.8395 31.7817 75.4441 32.1696L75.4434 32.1702C70.1323 37.3988 64.2464 36.7257 60.4987 34.3836L60.4988 34.3836L60.4918 34.3794C60.4798 34.3721 60.4707 34.3629 60.4645 34.3533C60.4584 34.3437 60.455 34.3336 60.454 34.3239L60.4542 34.3238L60.4525 34.3114C60.4519 34.3062 60.4523 34.3008 60.4542 34.2954C60.4556 34.2911 60.4581 34.2864 60.4618 34.2819L73.258 22.1596H82.7336L90.8002 37.9237L88.6693 39.9945L78.4605 32.0032ZM34.5346 32.3703L34.5323 32.3626L34.5298 32.3551C34.5243 32.3388 34.5254 32.3211 34.5337 32.3048L42.0552 17.6002C42.0552 17.6001 42.0553 17.6 42.0553 17.5999C42.0615 17.5881 42.0717 17.5767 42.0862 17.568C42.1009 17.5592 42.1189 17.5541 42.1379 17.5542L42.1408 17.5542C42.1565 17.5542 42.1716 17.5578 42.1847 17.5642C42.1847 17.5642 42.1847 17.5642 42.1848 17.5642L48.2733 20.5375L40.6757 35.3958L34.5745 32.4163C34.5639 32.4107 34.5553 32.4036 34.5487 32.3958C34.5418 32.3877 34.5372 32.3789 34.5346 32.3703ZM48.5009 20.0923L48.9503 20.3117L48.7226 20.757L48.5009 20.0923ZM57.2899 31.1038L57.2899 31.1038L57.2846 31.1089C56.7937 31.5884 56.4184 32.1703 56.1875 32.8122C55.9566 33.4541 55.8761 34.1389 55.9523 34.8157C56.0285 35.4926 56.2594 36.1434 56.6271 36.72C56.9947 37.2965 57.4895 37.7839 58.0743 38.1469C64.1216 41.9222 71.4296 41.2793 77.1519 36.6671L85.4386 43.1585L76.3653 52.0296L59.1581 47.8262L44.589 37.657L52.8891 21.4394L67.6263 17.6283L70.67 18.416L57.2899 31.1038ZM92.8495 17.1155L92.8495 17.1156L92.8495 17.1155Z" stroke="black"/>
</svg>
