<svg width="133" height="132" viewBox="0 0 133 132" fill="none" xmlns="http://www.w3.org/2000/svg">
<path d="M2.12891 109.789H71.9474M71.9474 89.5789H19.5835C16.4974 89.5789 13.5376 88.1594 11.3553 85.6326C9.17309 83.1057 7.94711 79.6787 7.94711 76.1052V15.4737C7.94711 11.9002 9.17309 8.47315 11.3553 5.94635C13.5376 3.41954 16.4974 2 19.5835 2H101.038C104.125 2 107.084 3.41954 109.267 5.94635C111.449 8.47315 112.675 11.9002 112.675 15.4737V35.6842M106.856 62.6316H118.492C124.919 62.6316 130.129 68.664 130.129 76.1053V116.526C130.129 123.968 124.919 130 118.492 130H106.856C100.429 130 95.2197 123.968 95.2197 116.526V76.1053C95.2197 68.664 100.429 62.6316 106.856 62.6316Z" stroke="#1F1C1C" stroke-width="4" stroke-linecap="round" stroke-linejoin="round"/>
</svg>
