<svg width="133" height="133" viewBox="0 0 133 133" fill="none" xmlns="http://www.w3.org/2000/svg">
<path d="M73.0666 114.667H66.6666C48.5674 114.667 39.5114 114.667 33.8922 109.041C28.2666 103.422 28.2666 94.3659 28.2666 76.2667V63.4667M28.2666 63.4667V41.0667M28.2666 63.4667H63.4666" stroke="#0C0C0C" stroke-width="4" stroke-linecap="round" stroke-linejoin="round"/>
<path d="M73.067 114.667C73.067 107.127 73.067 103.351 75.3134 101.009C77.5726 98.6666 81.195 98.6666 88.427 98.6666H96.107C103.345 98.6666 106.968 98.6666 109.214 101.009C111.467 103.351 111.467 107.127 111.467 114.667C111.467 122.206 111.467 125.982 109.214 128.324C106.974 130.667 103.345 130.667 96.107 130.667H88.427C81.1886 130.667 77.5662 130.667 75.3134 128.324C73.0606 125.982 73.067 122.206 73.067 114.667ZM17.2974 2.66663H39.2366C52.523 2.66663 53.867 9.77063 53.867 21.8666C53.867 33.9626 52.5166 41.0666 39.2366 41.0666H17.2974C4.01099 41.0666 2.66699 33.9626 2.66699 21.8666C2.66699 9.77063 4.01739 2.66663 17.2974 2.66663ZM124.305 24.3242L128.197 28.2026C128.978 28.9815 129.599 29.9071 130.022 30.9263C130.445 31.9455 130.663 33.0382 130.663 34.1418C130.663 35.2454 130.445 36.3381 130.022 37.3573C129.599 38.3765 128.978 39.3021 128.197 40.081L107.8 60.7786C106.193 62.3781 104.141 63.4555 101.912 63.8698L89.2782 66.6026C88.8193 66.7044 88.3422 66.6892 87.8907 66.5583C87.4393 66.4275 87.028 66.1852 86.6947 65.8538C86.3613 65.5224 86.1167 65.1125 85.9833 64.6618C85.8498 64.2111 85.8318 63.7341 85.931 63.2746L88.619 50.7626C89.0414 48.5418 90.123 46.4938 91.723 44.9002L112.376 24.3242C113.959 22.7453 116.104 21.8587 118.341 21.8587C120.577 21.8587 122.722 22.7453 124.305 24.3242Z" stroke="#0C0C0C" stroke-width="4" stroke-linecap="round" stroke-linejoin="round"/>
</svg>
