<?xml version="1.0" encoding="UTF-8"?>
<svg id="Layer_1" xmlns="http://www.w3.org/2000/svg" viewBox="0 0 1080 1080">
  <defs>
    <style>
      .cls-1 {
        fill: #0c0c0c;
      }
    </style>
  </defs>
  <path class="cls-1" d="M569.5,748.79h-87.35l-35.82-104.63h-155.24l-34.61,104.63h-87.06l148.84-426.49h98.95l.47,1.33,151.8,425.17ZM485.01,744.79h78.81l-149.42-418.49h-93.29l-146.05,418.49h78.54l33.28-100.63h-30.72v-64.96h52.21l17.37-52.5c6.75-21.76,14.04-47.35,21.66-76.02,5.36-20.17,11.29-42.84,17.71-67.67-2.58-9.66-5.23-19.62-7.93-29.84l-.66-2.51h21.05l-.64,2.5c-2.63,10.26-5.19,20.21-7.68,29.84,6.48,24.22,12.56,46.6,18.17,66.81,7.89,28.47,15.61,54.34,22.94,76.9l17.97,52.49h54.43v64.96h-32.19l34.45,100.63ZM449.19,640.16h29.56v-56.96h-49.06l19.5,56.96ZM292.41,640.16h152.55l-19.5-56.96h-114.2l-18.84,56.96ZM260.16,640.16h28.04l18.84-56.96h-46.88v56.96ZM312.58,579.2h111.51l-17.54-51.23c-7.36-22.64-15.09-48.57-23-77.1-5.08-18.31-10.54-38.39-16.34-60.02-5.75,22.17-11.08,42.54-15.95,60.85-7.63,28.72-14.93,54.36-21.71,76.21l-16.96,51.28ZM361.7,354.65c1.84,6.95,3.65,13.78,5.43,20.47,1.72-6.68,3.48-13.5,5.27-20.47h-10.7Z"/>
  <path class="cls-1" d="M542,492.35l-4-.04c.59-56.89,25.31-111.01,67.82-148.48,39.65-34.94,90.28-51.74,138.92-46.09,43.42,5.04,84.06,27.47,114.43,63.14,31,36.41,47.93,83.1,47.68,131.47l-4-.02c.51-96.49-69.15-180.22-158.57-190.61-47.51-5.52-97.02,10.93-135.81,45.12-41.67,36.72-65.89,89.76-66.47,145.52Z"/>
  <rect class="cls-1" x="516.17" y="471.64" width="47.66" height="43.33"/>
  <rect class="cls-1" x="625.45" y="650.7" width="195.66" height="43.33"/>
  <rect class="cls-1" x="640.24" y="705.9" width="166.08" height="43.33"/>
  <rect class="cls-1" x="881.02" y="471.64" width="47.66" height="43.33"/>
  <rect class="cls-1" x="698.6" y="276.99" width="47.66" height="43.33" rx="11.48" ry="11.48"/>
  <rect class="cls-1" x="874.28" y="276.99" width="47.66" height="43.33" rx="11.48" ry="11.48"/>
  <rect class="cls-1" x="524.65" y="276.99" width="47.66" height="43.33" rx="11.48" ry="11.48"/>
  <rect class="cls-1" x="547.4" y="296.66" width="357.45" height="4"/>
  <path class="cls-1" d="M803.98,643.23h-160.78l-42.84-84.12,119.06-223.32.59,191.46-.77.6c-10.55,8.25-15.16,20.59-11.22,30.01,2.26,5.42,7.95,11.33,15.1,11.52,6.81.21,12.45-4.64,15.03-9.49,5-9.38.41-23.04-10.92-32.5l-.73-.61,1.79-190.97,118.04,220.21-42.36,87.21ZM645.65,639.23h155.82l40.37-83.12-109.7-204.64-1.62,173.47c12.23,10.64,16.93,26,11.16,36.83-3.17,5.94-10.18,11.82-18.67,11.61-8.97-.24-15.85-7.19-18.68-13.98-4.53-10.84.27-24.73,11.68-34.09l-.54-173.62-110.6,207.45,40.78,80.08Z"/>
</svg>