<svg width="133" height="133" viewBox="0 0 133 133" fill="none" xmlns="http://www.w3.org/2000/svg">
<path d="M18.7503 66.6666C16.1839 66.2954 14.1422 65.6682 12.3502 64.6378C9.40002 62.944 6.9528 60.4968 5.259 57.5466C2.66699 53.0538 2.66699 47.0186 2.66699 34.9482C2.66699 22.8778 2.66699 16.8426 5.259 12.3562C6.96141 9.41222 9.40622 6.96102 12.3502 5.25862C16.8431 2.66663 22.8783 2.66663 34.9487 2.66663C47.0192 2.66663 53.0544 2.66663 57.5409 5.25862C60.4849 6.96102 62.9361 9.40582 64.6385 12.3498C65.6689 14.1418 66.2961 16.1834 66.6673 18.7498" stroke="#0C0C0C" stroke-width="4" stroke-linecap="round" stroke-linejoin="round"/>
<path d="M50.8088 98.6665C48.2104 98.2953 46.156 97.6681 44.3512 96.6249C41.4018 94.9328 38.9547 92.4879 37.26 89.5401C34.668 85.0345 34.668 79.0121 34.668 66.9481C34.668 54.8777 34.668 48.8425 37.26 44.3497C38.9624 41.4057 41.4072 38.9609 44.3512 37.2585C48.844 34.6665 54.8793 34.6665 66.9433 34.6665C79.0138 34.6665 85.049 34.6665 89.5354 37.2585C92.4794 38.9609 94.9307 41.4057 96.6267 44.3497C97.6699 46.1545 98.2907 48.2089 98.6683 50.8073" stroke="#0C0C0C" stroke-width="4" stroke-linecap="round" stroke-linejoin="round"/>
<path d="M66.667 98.6666C66.667 86.6986 66.667 80.721 69.2398 76.2666C70.9249 73.3481 73.3485 70.9245 76.267 69.2394C80.7215 66.6666 86.6991 66.6666 98.6671 66.6666C110.635 66.6666 116.613 66.6666 121.067 69.2394C123.986 70.9245 126.409 73.3481 128.094 76.2666C130.667 80.721 130.667 86.6986 130.667 98.6666C130.667 110.635 130.667 116.612 128.094 121.067C126.409 123.985 123.986 126.409 121.067 128.094C116.613 130.667 110.635 130.667 98.6671 130.667C86.6991 130.667 80.7215 130.667 76.267 128.094C73.3485 126.409 70.9249 123.985 69.2398 121.067C66.667 116.612 66.667 110.635 66.667 98.6666Z" stroke="#0C0C0C" stroke-width="4" stroke-linecap="round" stroke-linejoin="round"/>
</svg>
