<svg width="132" height="130" viewBox="0 0 132 130" fill="none" xmlns="http://www.w3.org/2000/svg">
<path d="M98.9702 34.9697H2V64.0608H6.84851V117.394C6.84851 119.966 7.87016 122.433 9.6887 124.251C11.5072 126.07 13.9737 127.091 16.5455 127.091H84.4247C86.9965 127.091 89.463 126.07 91.2815 124.251C93.1001 122.433 94.1217 119.966 94.1217 117.394V64.0608H98.9702V34.9697Z" stroke="#1F1C1C" stroke-width="4"/>
<path d="M64.5216 54.1334C79.4938 36.7321 113.414 2.74889 127.766 2.01676C136.638 1.16827 118.956 32.6642 77.0502 67.1323M83.7411 36.1503L94.6842 47.2049ZM42.7275 88.5675C46.17 76.4123 43.9978 82.3857 45.1712 68.388C45.8015 66.3129 47.0573 59.8837 54.9167 56.6789C63.8477 53.0328 70.398 58.5407 72.0901 61.1298C77.0792 66.5359 77.6562 73.2511 72.0901 80.9214C66.524 88.5918 50.0197 90.4972 42.7275 88.5675Z" fill="#FDFEFD"/>
<path d="M64.5216 54.1334C79.4938 36.7321 113.414 2.74889 127.766 2.01676C136.638 1.16827 118.956 32.6642 77.0502 67.1323M83.7411 36.1503L94.6842 47.2049M42.7275 88.5675C46.17 76.4123 43.9978 82.3857 45.1712 68.388C45.8015 66.3129 47.0573 59.8837 54.9167 56.6789C63.8477 53.0328 70.398 58.5407 72.0901 61.1298C77.0792 66.5359 77.6562 73.2511 72.0901 80.9214C66.524 88.5918 50.0197 90.4972 42.7275 88.5675Z" stroke="#1F1C1C" stroke-width="4" stroke-linecap="round" stroke-linejoin="round"/>
</svg>
