<?xml version="1.0" encoding="UTF-8"?>
<svg id="Layer_1" xmlns="http://www.w3.org/2000/svg" viewBox="0 0 1080 1080">
  <defs>
    <style>
      .cls-1 {
        fill: #0c0c0c;
      }
    </style>
  </defs>
  <path class="cls-1" d="M196.42,789.25h-95.18c-9.37,0-16.99-7.62-16.99-16.99v-229.15c0-9.37,7.62-16.99,16.99-16.99h95.18c9.37,0,16.99,7.62,16.99,16.99v229.15c0,9.37-7.62,16.99-16.99,16.99ZM101.23,530.13c-7.16,0-12.99,5.83-12.99,12.99v229.15c0,7.16,5.83,12.99,12.99,12.99h95.18c7.16,0,12.99-5.83,12.99-12.99v-229.15c0-7.16-5.83-12.99-12.99-12.99h-95.18Z"/>
  <polygon class="cls-1" points="394.17 771.66 235.41 771.66 235.41 767.66 390.17 767.66 390.17 448.28 150.62 448.28 150.62 515.41 146.62 515.41 146.62 444.28 394.17 444.28 394.17 771.66"/>
  <polygon class="cls-1" points="912.47 724.53 427.18 724.53 427.18 720.53 908.47 720.53 908.47 355.34 269.76 355.34 269.76 414.96 265.76 414.96 265.76 351.34 912.47 351.34 912.47 724.53"/>
  <rect class="cls-1" x="423.32" y="749.3" width="551.49" height="20"/>
  <rect class="cls-1" x="125.25" y="772.31" width="46.72" height="4"/>
</svg>