<svg width="133" height="132" viewBox="0 0 133 132" fill="none" xmlns="http://www.w3.org/2000/svg">
<path d="M132.277 2C132.277 0.895431 131.382 0 130.277 0L112.277 -7.15256e-07C111.173 -7.15256e-07 110.277 0.89543 110.277 2C110.277 3.10457 111.173 4 112.277 4L128.277 4V20C128.277 21.1046 129.173 22 130.277 22C131.382 22 132.277 21.1046 132.277 20V2ZM79.2773 51C79.2773 52.1046 80.1728 53 81.2773 53H99.2773C100.382 53 101.277 52.1046 101.277 51C101.277 49.8954 100.382 49 99.2773 49H83.2773V33C83.2773 31.8954 82.3819 31 81.2773 31C80.1728 31 79.2773 31.8954 79.2773 33V51ZM10.2773 4H58.2773V0H10.2773V4ZM64.2773 10V66H68.2773V10H64.2773ZM66.2773 64H2.27734V68H66.2773V64ZM4.27734 66V10H0.277344V66H4.27734ZM58.2773 4C61.5911 4 64.2773 6.68629 64.2773 10H68.2773C68.2773 4.47715 63.8002 0 58.2773 0V4ZM10.2773 0C4.7545 0 0.277344 4.47715 0.277344 10H4.27734C4.27734 6.68629 6.96364 4 10.2773 4V0ZM64.2773 66V130H68.2773V66H64.2773ZM66.2773 128H10.2773V132H66.2773V128ZM4.27734 122V66H0.277344V122H4.27734ZM10.2773 128C6.96364 128 4.27734 125.314 4.27734 122H0.277344C0.277344 127.523 4.7545 132 10.2773 132V128ZM66.2773 68H122.277V64H66.2773V68ZM128.277 74V122H132.277V74H128.277ZM122.277 128H66.2773V132H122.277V128ZM128.277 122C128.277 125.314 125.591 128 122.277 128V132C127.8 132 132.277 127.523 132.277 122H128.277ZM122.277 68C125.591 68 128.277 70.6863 128.277 74H132.277C132.277 68.4771 127.8 64 122.277 64V68ZM128.863 0.585786L79.8631 49.5858L82.6916 52.4142L131.692 3.41421L128.863 0.585786Z" fill="black"/>
</svg>
