<?xml version="1.0" encoding="UTF-8"?>
<svg id="Layer_1" xmlns="http://www.w3.org/2000/svg" viewBox="0 0 1080 1080">
  <defs>
    <style>
      .cls-1 {
        fill: #0c0c0c;
      }
    </style>
  </defs>
  <path class="cls-1" d="M566.77,675.71l-.79-.82c-7.53-7.82-17.66-12.12-28.51-12.12s-20.97,4.31-28.5,12.12l-.79.82-1.1-.25c-14.73-3.4-28.64-9.18-41.35-17.16l-.96-.6.02-1.13c.2-10.84-3.91-21.03-11.58-28.7-7.69-7.67-17.93-11.8-28.72-11.58l-1.13.02-.6-.96c-8-12.76-13.76-26.67-17.13-41.35l-.25-1.1.81-.79c7.82-7.53,12.12-17.66,12.12-28.51s-4.31-20.97-12.12-28.51l-.81-.79.25-1.1c3.38-14.71,9.14-28.62,17.14-41.35l.6-.96,1.13.02c10.84.21,21.03-3.91,28.72-11.58,7.67-7.69,11.78-17.89,11.57-28.72l-.02-1.13.96-.6c12.73-7.99,26.64-13.76,41.35-17.14l1.1-.25.79.81c7.53,7.82,17.66,12.12,28.5,12.12s20.97-4.31,28.51-12.12l.79-.81,1.1.25c14.68,3.37,28.59,9.14,41.35,17.14l.96.6-.02,1.13c-.2,10.83,3.91,21.03,11.58,28.72,7.67,7.67,17.9,11.78,28.7,11.58l1.13-.02.6.96c7.98,12.71,13.75,26.62,17.16,41.35l.26,1.1-.82.79c-7.82,7.53-12.12,17.66-12.12,28.51,0,3.16.37,6.3,1.11,9.34.16.67.34,1.33.54,1.99l-3.83,1.14c-.21-.72-.41-1.45-.59-2.19l1.94-.47-1.94.47c-.81-3.34-1.22-6.8-1.22-10.28,0-11.56,4.44-22.38,12.53-30.58-3.25-13.53-8.56-26.33-15.8-38.09-11.5-.08-22.28-4.58-30.46-12.76-8.17-8.19-12.68-18.98-12.75-30.48-11.8-7.26-24.61-12.57-38.09-15.79-8.2,8.09-19.02,12.53-30.58,12.53s-22.38-4.44-30.58-12.53c-13.51,3.22-26.32,8.53-38.09,15.78-.08,11.5-4.58,22.28-12.75,30.48-8.2,8.18-18.98,12.68-30.48,12.76-7.26,11.78-12.56,24.58-15.78,38.09,8.09,8.2,12.53,19.02,12.53,30.58s-4.44,22.38-12.53,30.58c3.22,13.48,8.52,26.29,15.79,38.09,11.5.08,22.28,4.58,30.48,12.75,8.18,8.18,12.68,18.95,12.76,30.46,11.76,7.25,24.57,12.56,38.09,15.8,8.2-8.09,19.02-12.53,30.58-12.53s22.38,4.44,30.58,12.53c5.25-1.26,10.47-2.86,15.51-4.75h0c.73-.27,1.46-.55,2.18-.84l.73,1.84-.73-1.84c.74-.29,1.47-.59,2.2-.89l1.54,3.69c-.75.31-1.5.62-2.26.92h0c-.75.3-1.5.58-2.25.87l-.69-1.85.69,1.85c-5.55,2.08-11.31,3.82-17.1,5.16l-1.1.25ZM537.57,609.42c-17.45,0-34.25-6.9-46.62-19.27-13.36-13.36-20.34-31.88-19.14-50.81,2.08-32.92,28.48-59.32,61.4-61.4,18.92-1.2,37.44,5.78,50.81,19.14,13.36,13.36,20.34,31.88,19.14,50.81-2.08,32.92-28.48,59.32-61.4,61.4-1.4.09-2.79.13-4.18.13ZM541.5,605.3l.13,2-.13-2c30.92-1.95,55.71-26.74,57.66-57.66,1.12-17.78-5.43-35.18-17.98-47.73s-29.95-19.1-47.72-17.98c-30.92,1.96-55.71,26.74-57.66,57.66-1.12,17.78,5.43,35.18,17.98,47.73s29.95,19.1,47.72,17.98Z"/>
  <path class="cls-1" d="M537.56,777.34l-.34-.04c-26.39-3.32-50.61-11.19-71.98-23.41-46.95-26.86-82.41-75.7-102.53-141.24-19.62-63.91-23.91-140.78-12.4-222.3l.16-1.12,1.04-.44,185.96-79.03,186.23,79.97.16,1.1c.47,3.17,11.32,78.63-2.11,161.86l-3.95-.64c12.62-78.23,3.64-149.5,2.26-159.54l-182.6-78.42-183.34,77.92c-11.23,80.53-6.94,156.39,12.42,219.45,19.82,64.56,54.63,112.6,100.69,138.94,20.82,11.91,44.41,19.6,70.15,22.87,27.14-5.89,51.9-16.15,73.59-30.5,3-1.99,5.99-4.08,8.87-6.22l2.38,3.21c-2.94,2.18-5.98,4.31-9.04,6.34-22.2,14.69-47.53,25.17-75.29,31.15l-.33.07Z"/>
  <polygon class="cls-1" points="527.57 567.8 503.17 544.79 505.92 541.88 527.48 562.23 569.52 520.2 572.34 523.02 527.57 567.8"/>
  <path class="cls-1" d="M695.42,753.31c-52.31,0-94.88-42.56-94.88-94.88s42.56-94.88,94.88-94.88,94.88,42.56,94.88,94.88-42.56,94.88-94.88,94.88ZM695.42,567.56c-50.11,0-90.88,40.77-90.88,90.88s40.77,90.88,90.88,90.88,90.88-40.77,90.88-90.88-40.77-90.88-90.88-90.88Z"/>
  <g>
    <path class="cls-1" d="M640.4,698.67c-8.83-11.87-13.49-25.98-13.49-40.81,0-37.75,30.71-68.45,68.45-68.45,10.96,0,21.42,2.51,31.11,7.46l-1.82,3.56c-9.12-4.66-18.97-7.02-29.29-7.02-35.54,0-64.45,28.91-64.45,64.45,0,13.96,4.39,27.25,12.7,38.42l-3.21,2.39Z"/>
    <polygon class="cls-1" points="707.39 604.65 721.16 596.31 724.72 580.62 744.54 613.16 707.39 604.65"/>
  </g>
  <g>
    <path class="cls-1" d="M695.97,728.54c-10.96,0-21.42-2.51-31.11-7.46l1.82-3.56c9.12,4.66,18.97,7.02,29.29,7.02,35.54,0,64.45-28.91,64.45-64.45,0-13.96-4.39-27.25-12.7-38.42l3.21-2.39c8.83,11.87,13.49,25.98,13.49,40.81,0,37.75-30.71,68.45-68.45,68.45Z"/>
    <polygon class="cls-1" points="683.95 713.3 670.18 721.64 666.63 737.34 646.8 704.79 683.95 713.3"/>
  </g>
</svg>