<?xml version="1.0" encoding="UTF-8"?>
<svg id="Layer_1" xmlns="http://www.w3.org/2000/svg" viewBox="0 0 1080 1080">
  <defs>
    <style>
      .cls-1 {
        fill: #0c0c0c;
      }
    </style>
  </defs>
  <path class="cls-1" d="M903.75,671.55H158.23c-46.48,0-84.29-37.81-84.29-84.29s37.81-84.29,84.29-84.29h240.48v4h-240.48c-44.27,0-80.29,36.02-80.29,80.29s36.02,80.29,80.29,80.29h745.52c44.27,0,80.29-36.02,80.29-80.29s-36.02-80.29-80.29-80.29h-263.42v-4h263.42c46.48,0,84.29,37.81,84.29,84.29s-37.81,84.29-84.29,84.29Z"/>
  <path class="cls-1" d="M852.57,614.15c-21.2,0-38.45-17.25-38.45-38.45s17.25-38.45,38.45-38.45,38.45,17.25,38.45,38.45-17.25,38.45-38.45,38.45ZM852.57,541.25c-18.99,0-34.45,15.45-34.45,34.45s15.45,34.45,34.45,34.45,34.45-15.45,34.45-34.45-15.45-34.45-34.45-34.45Z"/>
  <path class="cls-1" d="M592.14,508.19l-.79-.82c-3.72-3.87-8.73-6-14.09-6s-10.37,2.13-14.09,6l-.79.82-1.1-.25c-7.75-1.79-15.06-4.83-21.74-9.02l-.96-.6.02-1.13c.1-5.36-1.93-10.4-5.72-14.19-3.8-3.79-8.81-5.82-14.2-5.72l-1.13.02-.6-.96c-4.21-6.71-7.24-14.03-9.01-21.75l-.25-1.1.81-.79c3.87-3.72,6-8.73,6-14.09s-2.13-10.37-6-14.09l-.81-.79.25-1.1c1.78-7.74,4.81-15.05,9.01-21.75l.6-.96,1.13.02c5.37.12,10.4-1.93,14.2-5.73,3.79-3.8,5.82-8.84,5.72-14.2l-.02-1.13.96-.6c6.69-4.2,14.01-7.23,21.75-9.01l1.1-.25.79.81c3.72,3.87,8.73,6,14.09,6s10.37-2.13,14.09-6l.79-.81,1.1.25c7.72,1.77,15.04,4.81,21.75,9.01l.96.6-.02,1.13c-.1,5.36,1.93,10.4,5.73,14.2,3.79,3.79,8.82,5.83,14.19,5.72l1.13-.02.6.96c4.2,6.69,7.23,14,9.02,21.74l.25,1.1-.82.79c-3.87,3.72-6,8.73-6,14.09s2.13,10.37,6,14.09l.82.79-.25,1.1c-1.79,7.73-4.82,15.04-9.02,21.74l-.6.96-1.13-.02c-5.36-.1-10.4,1.93-14.19,5.72-3.79,3.79-5.82,8.83-5.72,14.19l.02,1.13-.96.6c-6.7,4.2-14.02,7.24-21.74,9.02l-1.1.25ZM542.59,496.09c5.74,3.48,11.96,6.06,18.52,7.68,4.39-4.14,10.08-6.4,16.15-6.4s11.76,2.27,16.15,6.4c6.55-1.62,12.77-4.21,18.52-7.68.17-6.02,2.6-11.64,6.89-15.93,4.29-4.29,9.91-6.71,15.93-6.89,3.48-5.76,6.06-11.98,7.68-18.52-4.14-4.39-6.4-10.08-6.4-16.15s2.27-11.76,6.4-16.15c-1.63-6.56-4.21-12.78-7.68-18.52-6.02-.17-11.64-2.6-15.94-6.89-4.29-4.3-6.71-9.93-6.89-15.94-5.76-3.48-11.98-6.06-18.52-7.68-4.39,4.14-10.08,6.4-16.15,6.4s-11.77-2.27-16.15-6.4c-6.55,1.62-12.77,4.19-18.52,7.67-.17,6.02-2.59,11.64-6.89,15.94-4.31,4.3-9.93,6.72-15.95,6.89-3.48,5.75-6.06,11.97-7.67,18.52,4.14,4.39,6.4,10.08,6.4,16.15s-2.27,11.76-6.4,16.15c1.61,6.54,4.19,12.76,7.68,18.52,6.02.17,11.64,2.59,15.94,6.89,4.3,4.3,6.72,9.92,6.89,15.94ZM577.31,473.7c-9.31,0-18.27-3.68-24.87-10.28-7.13-7.13-10.85-17-10.21-27.1,1.11-17.56,15.19-31.64,32.75-32.75,10.09-.64,19.97,3.08,27.1,10.21,7.13,7.13,10.85,17,10.21,27.1-1.11,17.56-15.19,31.64-32.75,32.75h0c-.75.05-1.49.07-2.23.07ZM577.21,407.5c-.66,0-1.32.02-1.98.06-15.56.98-28.03,13.46-29.01,29.01-.57,8.95,2.73,17.7,9.05,24.02s15.07,9.61,24.02,9.05h0c15.56-.98,28.03-13.46,29.01-29.01.57-8.95-2.73-17.7-9.05-24.02-5.85-5.85-13.79-9.11-22.04-9.11Z"/>
  <path class="cls-1" d="M461.8,522.13l-1.1-.25c-6.28-1.45-12.21-3.91-17.62-7.31l-.96-.6.02-1.13c.08-4.21-1.52-8.16-4.49-11.14-2.98-2.98-6.92-4.57-11.15-4.49l-1.13.02-.6-.96c-3.41-5.44-5.87-11.37-7.3-17.62l-.25-1.1.81-.79c3.03-2.92,4.71-6.85,4.71-11.06s-1.67-8.14-4.71-11.06l-.81-.79.25-1.1c1.44-6.27,3.9-12.2,7.3-17.62l.6-.96,1.13.02c4.21.08,8.16-1.52,11.15-4.5,2.97-2.98,4.57-6.94,4.49-11.15l-.02-1.13.96-.6c5.43-3.41,11.36-5.86,17.62-7.3l1.1-.25.79.81c2.92,3.03,6.85,4.71,11.06,4.71s8.14-1.67,11.06-4.71l.79-.81,1.1.25c3.43.79,6.8,1.9,10.02,3.29l-.8,1.83.8-1.83c.53.23,1.05.47,1.58.71l-1.71,3.62c-.48-.23-.97-.45-1.46-.66h0c-2.66-1.16-5.44-2.1-8.26-2.81-3.58,3.31-8.19,5.12-13.11,5.12s-9.53-1.81-13.11-5.12c-5.09,1.28-9.93,3.28-14.41,5.97-.19,4.86-2.17,9.4-5.65,12.88-3.49,3.48-8.03,5.46-12.89,5.65-2.69,4.48-4.69,9.32-5.97,14.41,3.31,3.58,5.12,8.19,5.12,13.11s-1.81,9.53-5.12,13.11c1.28,5.08,3.28,9.92,5.97,14.41,4.86.19,9.4,2.18,12.88,5.65,3.48,3.48,5.46,8.01,5.65,12.88,4.48,2.69,9.32,4.69,14.42,5.98,3.58-3.31,8.19-5.11,13.11-5.11s9.53,1.81,13.11,5.11c5.09-1.28,9.93-3.29,14.42-5.98.19-4.86,2.18-9.4,5.65-12.88,3.1-3.1,7.2-5.07,11.55-5.55l.23,2.06-.23-2.06c.82-.09,1.66-.13,2.49-.11l-.07,4c-.66,0-1.32.02-1.98.09h0c-3.5.39-6.67,1.91-9.16,4.4-2.98,2.98-4.57,6.93-4.49,11.14l.02,1.13-.96.6c-5.43,3.4-11.36,5.86-17.62,7.31l-1.1.25-.79-.82c-2.92-3.04-6.85-4.71-11.06-4.71s-8.14,1.67-11.06,4.71l-.79.82ZM473.67,483.5c-4.72,0-9.27-1.87-12.62-5.22-3.62-3.62-5.5-8.63-5.18-13.75.56-8.91,7.71-16.06,16.62-16.62,5.12-.32,10.13,1.56,13.75,5.18,3.62,3.62,5.5,8.63,5.18,13.75-.56,8.91-7.71,16.06-16.62,16.62h0c-.38.02-.75.04-1.13.04ZM473.63,451.88c-.29,0-.59,0-.88.03-6.91.44-12.45,5.97-12.88,12.88-.25,3.98,1.21,7.86,4.02,10.67,2.8,2.8,6.69,4.27,10.67,4.02,6.91-.44,12.45-5.97,12.88-12.88.25-3.98-1.21-7.86-4.02-10.67-2.6-2.6-6.12-4.04-9.79-4.04Z"/>
  <rect class="cls-1" x="899.38" y="590.83" width="4" height="59.86" transform="translate(-174.93 819.19) rotate(-45)"/>
</svg>