<?xml version="1.0" encoding="UTF-8"?>
<svg id="Layer_1" xmlns="http://www.w3.org/2000/svg" viewBox="0 0 1080 1080">
  <defs>
    <style>
      .cls-1 {
        fill: #0c0c0c;
      }
    </style>
  </defs>
  <polygon class="cls-1" points="422.07 795.63 283.04 795.63 283.04 250.62 571.88 250.62 657.94 336.68 657.94 370.58 653.94 370.58 653.94 338.34 570.23 254.62 287.04 254.62 287.04 791.63 422.07 791.63 422.07 795.63"/>
  <rect class="cls-1" x="330.73" y="306.96" width="55.71" height="4"/>
  <rect class="cls-1" x="330.73" y="353.4" width="176.95" height="4"/>
  <rect class="cls-1" x="330.73" y="423.35" width="111.6" height="4"/>
  <rect class="cls-1" x="330.73" y="469.8" width="176.95" height="4"/>
  <rect class="cls-1" x="330.73" y="539.75" width="176.9" height="4"/>
  <rect class="cls-1" x="330.73" y="586.19" width="77.21" height="4"/>
  <rect class="cls-1" x="330.73" y="647.16" width="84.17" height="4"/>
  <rect class="cls-1" x="330.73" y="693.61" width="77.21" height="4"/>
  <path class="cls-1" d="M828.98,552.19h-269.79v-153.36h269.79v153.36ZM563.19,548.19h261.79v-145.36h-261.79v145.36Z"/>
  <path class="cls-1" d="M825.91,795.63h-374.72v-209.43h374.72v209.43ZM455.19,791.63h366.72v-201.43h-366.72v201.43Z"/>
  <polygon class="cls-1" points="647.53 702.59 456.01 589.92 458.03 586.47 647.45 697.9 822.84 586.5 824.99 589.88 647.53 702.59"/>
  <rect class="cls-1" x="684.75" y="492.67" width="102.37" height="4"/>
  <rect class="cls-1" x="740.01" y="455.81" width="47.11" height="4"/>
  <path class="cls-1" d="M629.25,499.57c-12.85,0-23.3-10.45-23.3-23.3s10.45-23.3,23.3-23.3,23.3,10.45,23.3,23.3-10.45,23.3-23.3,23.3ZM629.25,456.96c-10.64,0-19.3,8.66-19.3,19.3s8.66,19.3,19.3,19.3,19.3-8.66,19.3-19.3-8.66-19.3-19.3-19.3Z"/>
  <polygon class="cls-1" points="655.94 339.51 570.99 339.51 570.99 254.56 574.99 254.56 574.99 335.51 655.94 335.51 655.94 339.51"/>
</svg>