<svg width="80" height="80" viewBox="0 0 80 80" fill="none" xmlns="http://www.w3.org/2000/svg">
<path d="M31.36 41.6001C31.36 41.9601 31.36 41.9601 31.08 41.9601H24C25.32 37.9601 26.72 33.7201 28 29.5601C28 29.8801 28 30.2001 28.28 30.5201C28.56 30.8401 28.64 31.8401 28.8 32.4801L29.52 34.7201C29.52 35.4801 29.96 36.2001 30.2 36.9601L30.96 39.2401L31.36 41.6001Z" fill="#CDC3C5"/>
<path d="M60.32 39.08C60.0979 38.403 59.699 37.7977 59.1645 37.3265C58.6301 36.8553 57.9795 36.5355 57.28 36.4C56.5515 36.2806 55.8085 36.2806 55.08 36.4C54.541 36.505 54.0319 36.728 53.5893 37.0531C53.1467 37.3781 52.7815 37.7971 52.52 38.28C52.1148 38.9984 51.8438 39.7845 51.72 40.6H60C60.4 40.6 60.52 40.6 60.48 40.04C60.4659 39.7147 60.4122 39.3923 60.32 39.08ZM60.32 39.08C60.0979 38.403 59.699 37.7977 59.1645 37.3265C58.6301 36.8553 57.9795 36.5355 57.28 36.4C56.5515 36.2806 55.8085 36.2806 55.08 36.4C54.541 36.505 54.0319 36.728 53.5893 37.0531C53.1467 37.3781 52.7815 37.7971 52.52 38.28C52.1148 38.9984 51.8438 39.7845 51.72 40.6H60C60.4 40.6 60.52 40.6 60.48 40.04C60.4659 39.7147 60.4122 39.3923 60.32 39.08ZM60.32 39.08C60.0979 38.403 59.699 37.7977 59.1645 37.3265C58.6301 36.8553 57.9795 36.5355 57.28 36.4C56.5515 36.2806 55.8085 36.2806 55.08 36.4C54.541 36.505 54.0319 36.728 53.5893 37.0531C53.1467 37.3781 52.7815 37.7971 52.52 38.28C52.1148 38.9984 51.8438 39.7845 51.72 40.6H60C60.4 40.6 60.52 40.6 60.48 40.04C60.4659 39.7147 60.4122 39.3923 60.32 39.08ZM60.32 39.08C60.0979 38.403 59.699 37.7977 59.1645 37.3265C58.6301 36.8553 57.9795 36.5355 57.28 36.4C56.5515 36.2806 55.8085 36.2806 55.08 36.4C54.541 36.505 54.0319 36.728 53.5893 37.0531C53.1467 37.3781 52.7815 37.7971 52.52 38.28C52.1148 38.9984 51.8438 39.7845 51.72 40.6H60C60.4 40.6 60.52 40.6 60.48 40.04C60.4659 39.7147 60.4122 39.3923 60.32 39.08ZM60 0H20C14.6957 0 9.60859 2.10714 5.85786 5.85786C2.10714 9.60859 0 14.6957 0 20V60C0 65.3043 2.10714 70.3914 5.85786 74.1421C9.60859 77.8929 14.6957 80 20 80H60C65.3043 80 70.3914 77.8929 74.1421 74.1421C77.8929 70.3914 80 65.3043 80 60V20C80 14.6957 77.8929 9.60859 74.1421 5.85786C70.3914 2.10714 65.3043 0 60 0ZM42.92 56H36.44C36.329 56.0168 36.2154 55.9999 36.1141 55.9514C36.0129 55.9029 35.9285 55.8251 35.872 55.728C35.8345 55.6641 35.81 55.5934 35.8 55.52C35.48 54.52 35.12 53.56 34.8 52.56C34.48 51.56 34 50.28 33.64 49.12C33.64 48.48 33.12 48.4 32.56 48.4H22.48C22.04 48.4 22.04 48.4 21.88 48.88C21.72 49.36 21.48 50.2 21.24 50.88L20.6 52.96L19.76 55.4C19.7816 55.5056 19.7816 55.6144 19.76 55.72C19.76 56.24 19.12 56.16 18.72 56.16H13.56C12.96 56.16 12.76 55.88 13 55.32C13.24 54.76 13.44 54.12 13.64 53.56L14.48 51L16.04 46.6C16.48 45.4 16.88 44.16 17.28 42.92C17.68 41.68 18.04 40.8 18.44 39.72L19.28 37.2L20.76 33.2L21.96 29.68C22.36 28.56 22.76 27.44 23.12 26.28C23.1762 25.7348 23.1762 25.1852 23.12 24.64C23.12 23.8 23.12 23.8 23.96 23.8H31.2C31.84 23.8 31.8 23.8 32 24.4C32.2 25 32.72 26.36 33.04 27.32C33.36 28.28 33.64 29 33.92 29.8L34.88 32.4L35.84 35.2C36.24 36.28 36.64 37.32 37 38.4L38.04 41.28C38.36 42.24 38.72 43.2 39.08 44.2C39.44 45.2 39.56 45.68 39.84 46.4C40.12 47.12 40.4 48 40.72 48.8C41.04 49.6 41.24 50.32 41.52 51.08L42.68 54.32L43.16 55.72C43.32 55.68 43.2 56 42.92 56ZM66.92 44C66.9387 44.36 66.9387 44.72 66.92 45.08C66.92 45.44 66.32 45.56 65.96 45.56H51.84C51.984 46.872 52.56 48.096 53.48 49.04C55.1468 50.0638 57.0386 50.6645 58.9906 50.79C60.9427 50.9155 62.8958 50.5619 64.68 49.76C65 49.76 65.16 49.76 65.16 50.08V54.6C65.16 55.32 64.88 55.4 64.28 55.64L62.84 56.08C62.3826 56.2149 61.9141 56.3086 61.44 56.36C60.44 56.36 59.44 56.64 58.44 56.68C57.44 56.72 57.08 56.68 56.4 56.68H56C55.2 56.68 54.36 56.68 53.6 56.4C51.3935 55.9594 49.3798 54.8406 47.84 53.2C46.8632 52.19 46.1012 50.9926 45.6 49.68C45.1953 48.722 44.9261 47.7123 44.8 46.68C44.7426 45.5074 44.7426 44.3326 44.8 43.16C44.86 41.716 45.132 40.288 45.6 38.92C45.9934 37.7815 46.5455 36.7042 47.24 35.72C48.1514 34.3467 49.388 33.22 50.84 32.44C51.4667 32.0773 52.12 31.7707 52.8 31.52C53.5385 31.3443 54.2863 31.2107 55.04 31.12C55.72 31.08 56.4 31.08 57.08 31.12C58.0827 31.136 59.0693 31.2693 60.04 31.52C60.92 31.768 61.76 32.1147 62.56 32.56C63.7919 33.2665 64.8135 34.2881 65.52 35.52C65.92 36.24 66.24 36.96 66.56 37.68C66.7307 38.1893 66.864 38.7093 66.96 39.24C67.3175 40.8027 67.3584 42.4212 67.08 44H66.92ZM57.12 36.6C56.3915 36.4806 55.6485 36.4806 54.92 36.6C54.381 36.705 53.8719 36.928 53.4293 37.2531C52.9867 37.5781 52.6215 37.9971 52.36 38.48C51.9548 39.1984 51.6838 39.9845 51.56 40.8H60C60.4 40.8 60.52 40.8 60.48 40.24C60.4468 39.8842 60.3661 39.5344 60.24 39.2C60.0427 38.5109 59.664 37.8874 59.1432 37.3949C58.6225 36.9023 57.979 36.5587 57.28 36.4L57.12 36.6ZM60.16 39.28C59.9379 38.603 59.539 37.9977 59.0045 37.5265C58.4701 37.0553 57.8195 36.7355 57.12 36.6C56.3915 36.4806 55.6485 36.4806 54.92 36.6C54.381 36.705 53.8719 36.928 53.4293 37.2531C52.9867 37.5781 52.6215 37.9971 52.36 38.48C51.9548 39.1984 51.6838 39.9845 51.56 40.8H60C60.4 40.8 60.52 40.8 60.48 40.24C60.48 39.8453 60.4267 39.4587 60.32 39.08L60.16 39.28ZM60.16 39.28C59.9379 38.603 59.539 37.9977 59.0045 37.5265C58.4701 37.0553 57.8195 36.7355 57.12 36.6C56.3915 36.4806 55.6485 36.4806 54.92 36.6C54.381 36.705 53.8719 36.928 53.4293 37.2531C52.9867 37.5781 52.6215 37.9971 52.36 38.48C51.9548 39.1984 51.6838 39.9845 51.56 40.8H60C60.4 40.8 60.52 40.8 60.48 40.24C60.48 39.8453 60.4267 39.4587 60.32 39.08L60.16 39.28ZM60.16 39.28C59.9379 38.603 59.539 37.9977 59.0045 37.5265C58.4701 37.0553 57.8195 36.7355 57.12 36.6C56.3915 36.4806 55.6485 36.4806 54.92 36.6C54.381 36.705 53.8719 36.928 53.4293 37.2531C52.9867 37.5781 52.6215 37.9971 52.36 38.48C51.9548 39.1984 51.6838 39.9845 51.56 40.8H60C60.4 40.8 60.52 40.8 60.48 40.24C60.48 39.8453 60.4267 39.4587 60.32 39.08L60.16 39.28ZM60.16 39.28C59.9379 38.603 59.539 37.9977 59.0045 37.5265C58.4701 37.0553 57.8195 36.7355 57.12 36.6C56.3915 36.4806 55.6485 36.4806 54.92 36.6C54.381 36.705 53.8719 36.928 53.4293 37.2531C52.9867 37.5781 52.6215 37.9971 52.36 38.48C51.9548 39.1984 51.6838 39.9845 51.56 40.8H60C60.4 40.8 60.52 40.8 60.48 40.24C60.48 39.8453 60.4267 39.4587 60.32 39.08L60.16 39.28Z" fill="#CDC3C5"/>
</svg>
