<svg width="80" height="76" viewBox="0 0 80 76" fill="none" xmlns="http://www.w3.org/2000/svg">
<path fill-rule="evenodd" clip-rule="evenodd" d="M79.7157 68.6078L58.1608 3.94314C57.7858 2.82778 57.0561 1.8658 56.0831 1.20413C55.11 0.542463 53.9472 0.217478 52.7721 0.278813H27.2295C26.0998 0.275897 24.9978 0.628104 24.0791 1.28565C23.1605 1.9432 22.4717 2.87283 22.1102 3.94314L0.285923 68.6078C0.00291348 69.4416 -0.07146 70.3321 0.069309 71.2013C0.210078 72.0705 0.561701 72.8919 1.09341 73.5938C1.62513 74.2957 2.32073 74.8565 3.11937 75.2274C3.91801 75.5982 4.79536 75.7676 5.67464 75.7209H21.4636C22.5841 75.7126 23.6741 75.3552 24.582 74.6984C25.4899 74.0417 26.1705 73.1182 26.529 72.0566L29.8161 62.4647L45.9823 74.6971C46.9217 75.3774 48.0557 75.7365 49.2155 75.7209H74.4347C75.3051 75.7494 76.1694 75.5666 76.9537 75.1881C77.738 74.8095 78.4188 74.2465 78.9379 73.5473C79.4571 72.8481 79.799 72.0335 79.9344 71.1732C80.0699 70.313 79.9948 69.4327 79.7157 68.6078ZM49.4311 72.1644C49.0394 72.1647 48.6593 72.0316 48.3533 71.7871L17.907 49.2084L17.4221 48.8312H33.5882L34.0193 47.6996L39.408 34.0661L51.4788 69.7933C51.5758 70.0929 51.5939 70.4124 51.5315 70.721C51.469 71.0296 51.3281 71.3169 51.1223 71.5552C50.9165 71.7935 50.6528 71.9748 50.3565 72.0815C50.0603 72.1882 49.7415 72.2167 49.4311 72.1644ZM74.5964 72.1644H54.5503C54.9528 71.013 54.9528 69.7592 54.5503 68.6078L32.726 3.94314H52.7721C53.1526 3.94506 53.5231 4.06543 53.8321 4.28754C54.1412 4.50964 54.3733 4.82246 54.4965 5.18255L76.3208 69.8472C76.3946 70.1157 76.4062 70.3975 76.3547 70.6711C76.3033 70.9448 76.1902 71.2031 76.0239 71.4265C75.8577 71.6499 75.6427 71.8324 75.3954 71.9603C75.148 72.0881 74.8748 72.1579 74.5964 72.1644Z" fill="#CDC3C5"/>
</svg>
