<svg width="80" height="80" viewBox="0 0 80 80" fill="none" xmlns="http://www.w3.org/2000/svg">
<g clip-path="url(#clip0_628_622)">
<path d="M41.7073 44.0501C41.8498 41.3801 43.1648 39.0226 45.1298 37.3576C47.2047 35.6398 49.8187 34.7086 52.5123 34.7276C55.3398 34.7276 57.9423 35.7301 59.8823 37.3576C61.8498 39.0251 63.1498 41.3801 63.3048 44.0501C63.4473 46.7826 62.3548 49.3376 60.4148 51.2226C58.288 53.2537 55.4531 54.3756 52.5123 54.3501C49.563 54.3775 46.7189 53.2558 44.5823 51.2226C42.6548 49.3351 41.5498 46.7826 41.7048 44.0501H41.7073ZM24.5073 49.4401C24.5173 50.4826 24.8573 52.5126 25.3498 54.1001C26.4291 57.5113 28.2424 60.6447 30.6623 63.2801C33.2542 66.1326 36.4167 68.4085 39.9448 69.9601C43.7905 71.6474 47.9477 72.5085 52.1473 72.4876C56.3485 72.4971 60.5049 71.6241 64.3473 69.9251C67.8723 68.3558 71.0332 66.0718 73.6298 63.2176C76.0421 60.5682 77.8504 57.4267 78.9298 54.0101C79.9685 50.6992 80.253 47.1977 79.7623 43.7626C79.2966 40.4729 78.1424 37.3184 76.3748 34.5051C74.7467 31.8799 72.6553 29.5725 70.2023 27.6951L45.1523 8.44756C43.5123 7.18506 40.7523 7.19756 38.9548 8.44756C37.1323 9.72506 36.9223 11.8351 38.5348 13.1751L48.9548 21.6526L17.1448 21.6926C14.5123 21.6926 12.0023 23.4101 11.4923 25.6001C10.9848 27.8126 12.7548 29.6501 15.4898 29.6601L31.5973 29.6376L2.74479 51.7701C0.0372894 53.8401 -0.835211 57.3026 0.872289 59.4801C2.60229 61.7076 6.28979 61.7076 9.03479 59.4926L24.7123 46.6651C24.7123 46.6651 24.4798 48.3976 24.5048 49.4376L24.5073 49.4401ZM64.8023 55.2326C61.5623 58.5301 57.0423 60.4026 52.1498 60.4026C47.2523 60.4151 42.7198 58.5651 39.4923 55.2851C37.9637 53.7497 36.7859 51.9015 36.0398 49.8676C35.355 47.9572 35.0847 45.923 35.2467 43.9001C35.4088 41.8772 35.9996 39.912 36.9798 38.1351C37.9568 36.3809 39.2602 34.8297 40.8198 33.5651C43.9598 31.0151 47.9573 29.6351 52.1498 29.6226C56.3273 29.6226 60.3273 30.9901 63.4623 33.5401C65.0253 34.7973 66.3294 36.3459 67.3023 38.1001C68.2798 39.8426 68.8798 41.7826 69.0498 43.7901C69.2303 45.833 68.9598 47.8907 68.2573 49.8176C67.5042 51.8481 66.3272 53.6949 64.8048 55.2351L64.8023 55.2326Z" fill="#CDC3C5"/>
</g>
<defs>
<clipPath id="clip0_628_622">
<rect width="80" height="80" fill="white"/>
</clipPath>
</defs>
</svg>
