<svg width="82" height="82" viewBox="0 0 82 82" fill="none" xmlns="http://www.w3.org/2000/svg">
<path d="M35.9577 41.0001L15.7461 51.5264C15.7461 56.4864 15.7461 56.8654 17.2283 58.4064C18.7063 59.9475 21.0895 59.9475 25.8519 59.9475H46.0677C50.8343 59.9475 53.2175 59.9475 54.6997 58.4064C56.1819 56.8654 56.1777 56.4864 56.1777 51.5264M35.9577 41.0001L66.2751 25.2106M35.9577 41.0001L15.7461 30.4738C15.7461 25.5096 15.7461 25.1348 17.2283 23.5938C18.7063 22.0527 21.0895 22.0527 25.8519 22.0527H46.0677C50.8343 22.0527 53.2175 22.0527 54.6997 23.5938C56.1819 25.1348 56.1777 25.5096 56.1777 30.4738M35.9577 41.0001L66.2751 56.7896" stroke="#CDC3C5" stroke-width="1.5" stroke-linecap="round" stroke-linejoin="round"/>
<path d="M1 41C1 22.1453 1 12.7137 6.85715 6.85684C12.7143 1 22.1422 1 41.0021 1C59.8578 1 69.2857 1 75.1471 6.85684C81 12.7137 81 22.1411 81 41C81 59.8547 81 69.2863 75.1471 75.1432C69.2857 81 59.862 81 40.9979 81C22.1422 81 12.7143 81 6.85715 75.1432C1 69.2863 1 59.8589 1 41Z" stroke="#CDC3C5" stroke-width="1.5" stroke-linecap="round" stroke-linejoin="round"/>
</svg>
