<svg width="80" height="80" viewBox="0 0 80 80" fill="none" xmlns="http://www.w3.org/2000/svg">
<g clip-path="url(#clip0_628_620)">
<path d="M40.1733 2.25803e-05C17.98 -0.0233108 -0.00999583 18.04 4.16696e-06 39.92C0.0100042 62.18 18.25 79.9367 39.9267 80C61.71 80.0667 80.1167 62.3134 80 40.0067C79.97 34.4567 78.2333 22.1034 73.8667 22.42C67.2667 22.9034 66.67 36.1534 65.9433 40.4434C64.5533 48.6434 61.4567 57.3767 56.1 63.7434C49.8333 71.6067 40.4433 75.8567 30.56 74.27C18.7267 72.39 10.9167 63.3434 8.29334 56.9334C5.78334 51.19 4.84334 43.06 8.06 35.8534C11.9267 26.6334 20.5067 20.4134 28.9933 17.24C35.68 14.4834 42.67 13.4034 46.85 12.6567C55.2367 10.99 56.3667 7.78002 56.23 5.49336C56.18 4.65336 55.3767 3.08002 53.6133 2.35002C50.1 0.896689 44.2267 0.00335591 40.1733 2.25803e-05ZM57.1667 4.47336C57.63 5.80002 57.46 7.30669 56.6733 8.66002C55.59 10.5267 53.4333 12.16 50.35 12.96C44.8967 14.3867 40.43 14.8067 35.8833 16.16C31.51 17.46 24.56 19.5534 18.1633 24.6667C17.27 27.4734 17.0267 30.9734 16.9333 33.54C17.4333 50.2534 32.1233 63.1534 47.5 62.48C50.3433 62.3567 53.9033 61.61 57.2067 60.2134C59.0751 57.4132 60.6257 54.4135 61.83 51.27L61.8367 51.2634V51.2567C63.25 47.8234 63.8567 45.1367 64.5033 41.9467C65.57 36.73 65.1767 32.3467 67.8767 26.0867C68.7133 24.1467 70.2433 22.3767 72.07 21.6C72.9033 21.25 73.81 21.1567 74.7033 21.36C71.7367 13.1234 64.3167 6.94002 57.1667 4.47336Z" fill="#CDC3C5"/>
</g>
<defs>
<clipPath id="clip0_628_620">
<rect width="80" height="80" fill="white"/>
</clipPath>
</defs>
</svg>
