<svg width="80" height="80" viewBox="0 0 80 80" fill="none" xmlns="http://www.w3.org/2000/svg">
<g clip-path="url(#clip0_628_619)">
<path d="M58.7367 0L19.9233 0.0133333C15.3567 0.0133333 10.7367 1.16333 7.38333 3.71333C5.0323 5.4218 3.1797 7.72663 2.01667 10.39C0.776667 13.1 0 16.7333 0 19.8367L0.04 60.5033C0.0466667 65.85 1.63667 70.6933 4.91 74.21C8.19 77.73 13.1167 79.82 19.3467 79.8467L56.1867 80C60.3867 80.0167 66.5033 79.88 70.53 77.62C74.1133 75.6033 77.28 72.4333 78.8533 67.6733C79.78 64.8733 80.0033 60.7267 80 57.1833L79.93 20.0833C79.9233 17.1233 79.43 13.34 78.1067 10.3033C76.69 7.05 74.17 4.25333 70.3667 2.22C67.8433 0.866667 63.74 0 58.7367 0ZM58.7367 3.1C63.33 3.1 67.1967 4.08333 68.87 4.98333C72.1267 6.72667 74.0167 8.87 75.1667 11.5167C76.2167 13.92 76.7333 17.4933 76.7433 20.09L76.8033 57.19C76.81 60.5667 76.48 64.7133 75.81 66.7233C74.49 70.73 71.99 73.21 68.9333 74.93C66.22 76.4533 60.2267 76.9067 56.2 76.89L19.3667 76.7433C13.8433 76.72 9.92667 74.9633 7.28 72.1233C4.64 69.2867 3.24 65.2567 3.24 60.5067L3.33 19.8333C3.33 17.07 3.98333 13.7433 4.91 11.71C6.06 9.18667 7.41 7.68667 9.46 6.13C11.95 4.23333 16.2267 3.23333 20.2667 3.23333L58.7367 3.1ZM39.87 14.51C33.2833 14.8067 29.19 20.0367 29.1567 25.4767C29.22 30.2867 34.6067 37.08 38.77 40.5767C39.17 40.9067 39.2833 40.94 39.87 41.1767C40.0767 41.26 40.53 41.02 40.96 40.7267C42.16 39.91 44.27 37.57 46.4533 34.9333C47.8348 33.2185 48.9898 31.333 49.89 29.3233C51.2533 26.3567 50.76 23.9933 50.6733 23.03C50.0582 20.9054 48.9241 18.9672 47.3733 17.39C45.3147 15.5348 42.6413 14.5086 39.87 14.51ZM53.7767 40.9167C50.0857 41.0029 46.4335 41.6896 42.9633 42.95C42.4633 43.1433 42.0967 43.2833 41.7167 43.5167C41.5267 43.6367 41.35 43.9667 41.3667 44.49C41.4233 45.9333 42.3333 48.75 43.4467 52.0567C44.7267 55.84 47 59.6233 49.5933 61.19C50.8478 61.9431 52.2426 62.4326 53.6926 62.6286C55.1426 62.8246 56.6173 62.723 58.0267 62.33C60.8 61.52 63.3433 59.4367 64.5667 57.1767C67.8533 51.1167 65.2 45.35 60.83 42.4533C59.34 41.4667 57.0533 40.97 54.53 40.92L53.7767 40.9167ZM25.67 41.0433C24.832 41.043 23.9948 41.0953 23.1633 41.2C21.1767 41.46 20.0567 42.11 18.8633 42.9C16.5419 44.4188 14.9084 46.7871 14.3133 49.4967C14.0633 51.3367 14.0267 53.0067 14.4233 54.52C15.8667 59.15 18.8433 61.9267 23.9133 62.6933C26.0333 62.7867 28.48 62.4833 30.5467 61.1933C34.7767 58.5867 37.48 50.6267 38.5867 45.3867C38.7633 44.8 38.7033 44.1967 38.5433 43.9867C38.5267 43.7633 38.3967 43.61 37.91 43.3767C36.5833 42.7367 33.51 41.9867 29.9933 41.3767C28.5642 41.1438 27.1179 41.0323 25.67 41.0433Z" fill="#CDC3C5"/>
</g>
<defs>
<clipPath id="clip0_628_619">
<rect width="80" height="80" fill="white"/>
</clipPath>
</defs>
</svg>
