<svg width="80" height="80" viewBox="0 0 80 80" fill="none" xmlns="http://www.w3.org/2000/svg">
<g clip-path="url(#clip0_617_201)">
<path fill-rule="evenodd" clip-rule="evenodd" d="M50.5737 0H36.6537V19.7733C34.6724 19.295 32.6382 19.0709 30.6003 19.1067C16.0537 19.1033 6.66699 27.6833 6.66699 40.91C6.66699 54.6367 15.517 61.7867 32.517 61.8033C38.1937 61.8033 43.4437 61.3033 50.5737 60.0367V0ZM32.447 29.9233C34.167 29.9233 35.5137 30.09 37.1403 30.59V51.4167C35.1537 51.6667 33.9003 51.75 32.3603 51.75C25.227 51.75 21.3437 47.9433 21.3437 41.05C21.3437 33.9667 25.4103 29.9233 32.447 29.9233Z" fill="#CDC3C5"/>
<path d="M73.3331 50.7767V20.7167H59.4331V46.3C59.4331 57.59 58.8065 61.88 56.8165 65.5867C54.9165 69.21 51.9431 71.5867 45.7998 74.2733L58.7165 80C64.8598 77.1267 67.8331 74.5233 70.0898 70.4C72.5098 66.1067 73.3331 61.1267 73.3331 50.7767ZM71.9498 0H58.0298V13.31H71.9498V0Z" fill="#CDC3C5"/>
</g>
<defs>
<clipPath id="clip0_617_201">
<rect width="80" height="80" fill="white"/>
</clipPath>
</defs>
</svg>
