<svg width="55" height="82" viewBox="0 0 55 82" fill="none" xmlns="http://www.w3.org/2000/svg">
<path d="M40.75 54.3334C48.0678 54.3334 54 48.3639 54 41.0001C54 33.6363 48.0678 27.6667 40.75 27.6667C33.4322 27.6667 27.5 33.6363 27.5 41.0001C27.5 48.3639 33.4322 54.3334 40.75 54.3334Z" stroke="#B3B3B3" stroke-width="1.5" stroke-linecap="round" stroke-linejoin="round"/>
<path d="M27.5 54.3333V67.6667C27.5 71.2029 26.104 74.5943 23.6192 77.0948C21.1343 79.5952 17.7641 81 14.25 81C10.7359 81 7.36569 79.5952 4.88084 77.0948C2.39598 74.5943 1 71.2029 1 67.6667C1 64.1304 2.39598 60.7391 4.88084 58.2386C7.36569 55.7381 10.7359 54.3333 14.25 54.3333M27.5 54.3333H14.25M27.5 54.3333V27.6667M14.25 54.3333C10.7359 54.3333 7.36569 52.9286 4.88084 50.4281C2.39598 47.9276 1 44.5362 1 41C1 37.4638 2.39598 34.0724 4.88084 31.5719C7.36569 29.0714 10.7359 27.6667 14.25 27.6667M27.5 27.6667H14.25M27.5 27.6667V1M27.5 27.6667H40.75C44.2641 27.6667 47.6343 26.2619 50.1192 23.7614C52.604 21.2609 54 17.8696 54 14.3333C54 10.7971 52.604 7.40573 50.1192 4.90524C47.6343 2.40476 44.2641 1 40.75 1H27.5M14.25 27.6667C10.7359 27.6667 7.36569 26.2619 4.88084 23.7614C2.39598 21.2609 1 17.8696 1 14.3333C1 10.7971 2.39598 7.40573 4.88084 4.90524C7.36569 2.40476 10.7359 1 14.25 1H27.5" stroke="#B3B3B3" stroke-width="1.5" stroke-linecap="round" stroke-linejoin="round"/>
</svg>
