<svg width="53" height="82" viewBox="0 0 53 82" fill="none" xmlns="http://www.w3.org/2000/svg">
<path d="M7.69432 24.9897C5.25924 29.2585 2.82619 36.3743 2.01586 40.643C-0.824394 55.0779 2.42103 78.0501 10.1274 80.6942C18.0363 83.3363 31.2185 68.2922 37.7093 57.3138C40.5475 52.6369 43.1852 44.5056 43.793 38.6102" stroke="#B3B3B3" stroke-width="1.66667" stroke-linecap="round" stroke-linejoin="round"/>
<path d="M27.7723 16.2474C26.1496 13.4022 21.8913 9.33456 17.8335 9.53969C9.11421 9.74277 1.811 17.671 2.82596 23.3633C3.63834 26.8197 10.9395 23.7694 18.8484 21.7366M39.1292 30.4771C42.17 35.5622 45.618 41.6607 48.4583 41.6607C53.529 41.8637 53.1238 28.2432 47.4433 21.9397C45.2129 19.2976 39.737 18.0771 35.4786 19.2976" stroke="#B3B3B3" stroke-width="1.66667" stroke-linecap="round" stroke-linejoin="round"/>
<path d="M44.2001 1C42.1702 2.42359 39.7392 4.65948 37.5067 7.70768C35.2762 10.7579 32.6386 15.2318 31.6256 17.4677M31.6256 17.6707C41.5624 21.1271 40.1423 26.8194 38.5217 30.4789C36.4917 35.562 30.0029 41.2543 24.7296 39.6276C19.4564 38.0009 16.2109 28.6492 19.6589 19.9066C21.6868 14.8236 26.5549 16.0441 31.6256 17.6707Z" stroke="#B3B3B3" stroke-width="1.66667" stroke-linecap="round" stroke-linejoin="round"/>
</svg>
