<svg width="68" height="80" viewBox="0 0 68 80" fill="none" xmlns="http://www.w3.org/2000/svg">
<path d="M38.9342 79.9258C37.8875 79.7429 36.803 79.2468 36.188 78.698C35.7697 78.2613 35.5313 77.6835 35.5203 77.0794C35.5203 76.4655 35.8341 75.6035 36.3311 74.7441C36.6324 74.2596 36.8675 73.7418 37.0365 73.1906C37.1419 72.8122 37.3628 72.1983 37.5335 71.8074L37.8348 71.0908L37.9126 66.3025C37.9527 63.654 38.0306 61.2009 38.0958 60.8201C38.2665 59.7226 38.5527 58.6527 38.9317 57.6103L39.2204 56.9188L38.8012 56.6707C38.4221 56.4352 38.1084 56.1094 36.8658 54.6336C35.3371 52.832 33.3239 51.8398 30.4722 51.5015C29.5418 51.4096 28.6046 51.3445 27.6607 51.3061C23.4762 51.1106 21.0839 50.2361 18.9276 48.1214C17.3185 46.5428 16.4826 44.7011 16.1438 41.9875C15.6869 38.3192 15.1773 36.4399 14.236 34.914C14.0016 34.5388 13.7344 34.1849 13.4377 33.8566L13.0587 33.4782L12.2228 34.0144C11.7659 34.3151 11.1233 34.6935 10.8095 34.8639C9.76523 35.4402 8.76699 36.0749 7.81477 36.7682C5.47522 38.4645 2.92481 40.5918 1.52661 41.9875C0.899049 42.6139 0.572718 42.887 0.427124 42.862C-0.526768 42.7191 0.203712 38.5948 1.76006 35.4878C3.74817 31.4812 7.09433 27.7879 10.9651 25.2947C14.1431 23.2451 19.2816 20.4262 21.6588 19.434C25.881 17.6725 31.3458 15.7657 35.086 14.7484C35.8717 14.5254 36.3537 14.3299 36.68 14.1094C37.413 13.6008 38.131 13.3527 38.9543 13.3402C39.6472 13.3276 39.7124 13.3151 40.3801 12.8691C41.1659 12.3605 41.3993 12.3329 42.185 12.6085L42.6946 12.7914L43.3221 12.3605L43.9497 11.942L44.8509 11.9545C45.5437 11.9671 45.8575 11.942 46.1587 11.8117C46.5378 11.6413 46.5503 11.6163 46.6558 10.9899C46.8917 9.63179 46.9168 8.95275 46.7737 8.13089C46.5905 7.04844 46.5654 2.84644 46.7486 2.02207C46.9444 1.13507 47.075 0.952154 47.7427 0.626417C48.7367 0.142823 49.4823 0 51.1943 0C53.2853 0 54.3446 0.288152 55.1303 1.04486C55.8357 1.7239 55.9537 3.315 55.5872 7.04844C55.3638 9.20081 55.3387 9.80217 55.4039 11.2104C55.429 12.1099 55.4943 12.9593 55.5219 13.0771C55.5746 13.3001 55.6274 13.3126 56.3854 13.3251C57.131 13.3377 57.2615 13.3778 57.9669 13.7436C58.6472 14.0969 59.1568 14.5279 59.2622 14.8411C59.2772 14.9062 59.3902 14.9062 59.6011 14.8411C60.0052 14.7233 60.3592 14.8536 60.6478 15.2069C60.8185 15.4299 60.9215 15.4675 61.3156 15.4675C61.8528 15.4675 62.0486 15.5978 62.4929 16.2518C62.7026 16.5435 62.9869 16.7737 63.3162 16.9183C64.0492 17.2841 65.0433 18.3014 65.4223 19.1107C66.0097 20.3109 66.1277 21.7066 65.7612 22.9594C65.6307 23.4305 65.6307 23.443 65.9043 23.8991C66.4791 24.8788 66.69 26.079 66.454 27.0963L66.3235 27.6977L66.7151 28.0885C68.663 30.0329 68.3744 33.2051 65.9972 36.0365C65.7313 36.3598 65.5069 36.715 65.3294 37.0939C64.8726 38.3067 64.3479 39.1561 63.6702 39.8602L62.9773 40.5643H62.272C61.5666 40.5643 60.5725 40.3287 59.9701 40.0155C59.7216 39.8852 59.709 39.8852 59.7617 40.0406C59.9199 40.6144 60.3115 42.9497 60.442 44.2426C60.6503 46.2271 60.5851 49.1111 60.3115 50.3514C60.1117 51.2701 59.7767 52.1541 59.3174 52.9748C59.0563 53.3933 59.0438 53.4835 59.094 53.9921C59.1718 54.7088 59.0036 55.9115 58.715 56.7058C58.361 57.6329 58.2305 58.0638 58.1527 58.5324C58.0874 58.9358 58.0874 58.9358 58.3761 58.9358C58.7551 58.9358 58.9635 59.1588 58.9635 59.6023C58.9635 59.7978 58.7928 60.8552 58.5844 61.9376C58.0096 64.9795 57.9694 65.3177 57.9694 68.2669C57.9569 71.3088 57.9569 71.2812 58.6497 71.7373L60.206 72.742C61.5448 73.6294 62.9787 74.3648 64.481 74.9345C66.6649 75.7965 66.9661 76.017 66.9661 76.7486C66.9661 77.0743 66.9009 77.1921 66.6272 77.4527C65.7913 78.262 64.1421 78.4449 60.821 78.0916C59.0953 77.9312 57.3631 77.8484 55.6299 77.8436C51.0537 77.7784 50.386 77.6206 49.786 76.4855C49.4471 75.834 49.5124 74.9846 49.9818 73.589C50.1893 72.9759 50.3726 72.3495 50.5316 71.7097C50.8453 70.1963 50.637 68.3947 49.904 66.3601L49.2764 64.6237C48.6614 62.8622 48.3226 59.6374 48.689 58.9083C48.7543 58.7654 48.8723 58.7379 49.1861 58.7504L49.5777 58.7905L49.904 58.1115C50.1525 57.5752 50.4261 57.2244 51.1717 56.4803L52.1256 55.5281L52.0729 54.9142C52.0327 54.3279 51.262 51.4814 51.1566 51.494C51.1165 51.494 50.9081 51.7821 50.6721 52.1455C50.0973 53.0074 48.8296 54.3379 48.1092 54.8215C47.7954 55.0295 47.5343 55.2775 47.5343 55.3577C47.5218 55.711 47.2206 56.4026 46.8541 56.8837C46.5001 57.3547 46.475 57.4324 46.5277 57.8484C46.6181 58.4622 46.4223 60.4317 46.1888 61.464C45.9767 62.2304 45.6874 62.9734 45.3253 63.6815C44.4241 65.5483 43.7439 67.217 43.5732 67.9888C43.4523 68.7321 43.3736 69.4817 43.3372 70.2339C43.297 71.1209 43.2067 71.9828 43.1414 72.1657C43.051 72.4138 43.051 72.6092 43.1289 72.9876C43.1941 73.2607 43.2343 73.8746 43.2192 74.3582C43.2067 75.0247 43.2594 75.4557 43.4552 76.2374C43.7941 77.568 43.8593 78.4049 43.7037 78.901C43.5983 79.2142 43.4953 79.332 43.1414 79.5023C42.3557 79.9058 40.1341 80.1288 38.9317 79.9208L38.9342 79.9258ZM42.1097 78.8559C42.5666 78.7256 42.9607 78.3347 42.9607 77.9814C42.9607 77.8235 42.8301 77.3675 42.672 76.9641C42.3582 76.1949 41.821 74.1577 41.821 73.8195C41.821 73.6491 41.8336 73.6366 42.0946 73.7794L42.3833 73.9372V73.5714C42.3427 73.234 42.2679 72.9015 42.1599 72.5792C41.9114 71.835 41.8863 71.8225 40.3023 71.7298L39.2305 71.6771L38.8389 72.0555C38.6239 72.277 38.4352 72.5225 38.2766 72.7871C38.1059 73.1254 38.0406 73.6366 38.146 73.7518C38.1711 73.7919 38.4347 73.7518 38.7209 73.6867C38.8912 73.6383 39.0663 73.6081 39.243 73.5965C39.243 73.609 38.9543 73.8445 38.5903 74.0926C37.0214 75.2678 36.4717 75.9844 36.4717 76.8989C36.4717 77.8511 37.3729 78.5953 38.7861 78.8183C39.7526 78.9611 41.6353 79.0012 42.1072 78.8584L42.1097 78.8559ZM63.3815 77.3024C63.7731 76.8313 63.7204 76.3502 63.2233 75.8015C62.9355 75.5108 62.6083 75.2669 62.2418 75.0698C61.6921 74.7741 61.5089 74.6514 61.1424 74.4183C60.4796 73.9893 59.7987 73.5889 59.1015 73.2181C58.4991 72.8941 57.9108 72.5508 57.3368 72.1883L57.1009 72.0054V68.4173C57.1009 64.8818 57.0883 64.8291 56.9051 64.8818C55.9888 65.1298 54.4726 65.2476 52.5523 65.2075L50.4738 65.1824L50.7751 65.9141C51.3373 67.2972 51.626 69.1514 51.626 71.2787C51.626 72.0755 51.5733 72.3612 51.3775 72.9224C51.2754 73.1964 51.1792 73.4704 51.0888 73.7443C51.0487 73.8621 51.1943 73.9523 51.729 74.1101C52.1205 74.2279 52.6954 74.3457 53.0242 74.3833L53.6267 74.4484L53.5614 75.0498C53.4962 75.7288 53.574 76.4454 53.7447 76.6684C53.8501 76.7987 54.2417 76.8513 56.0591 76.929C57.4322 76.9942 58.9233 77.137 60.0981 77.3074C61.1173 77.4652 62.2167 77.5955 62.5431 77.5955C63.0928 77.6081 63.1455 77.583 63.379 77.3074L63.3815 77.3024ZM42.4511 71.196C42.5038 71.156 42.5816 70.4519 42.6092 69.6175C42.7147 67.2822 42.805 66.9414 43.9823 64.3055C44.9488 62.1531 45.4609 60.1435 45.4207 58.7203L45.3956 57.8709L45.0291 58.2242C44.271 58.9809 44.7932 57.7932 45.6968 56.7358C46.3771 55.9265 46.6131 55.483 46.716 54.7664C46.7687 54.4782 46.8741 54.3354 47.3185 53.9971C48.9791 52.7418 50.2597 51.0525 51.0186 49.1161C51.2018 48.645 51.6712 47.0414 52.0653 45.553C52.7983 42.7993 53.1899 41.6116 53.5439 41.103C53.6744 40.9042 53.7271 40.8691 53.702 40.9977C53.51 41.697 53.3616 42.4075 53.2577 43.1251C53.1523 43.764 52.9565 45.0168 52.8259 45.8913C52.5774 47.6804 52.3163 48.8279 51.9624 49.715L51.7264 50.3163L52.354 51.935C53.0067 53.5912 53.3079 54.7939 53.3606 55.9541L53.4008 56.6055L52.8912 56.7108C52.2185 56.8293 51.6182 57.204 51.2169 57.7556C50.7725 58.3946 50.524 58.9183 50.642 59.0335C50.6947 59.0862 51.3348 59.2039 52.0678 59.2941C53.205 59.4244 53.6367 59.4244 55.1404 59.3342C55.793 59.3075 56.4382 59.2465 57.0758 59.1513C57.2188 59.0987 57.3644 58.813 57.5979 58.0689C58.1351 56.36 58.238 55.7586 58.1727 54.5584L58.12 53.501L58.3936 53.1477C59.0338 52.3384 59.5308 50.8776 59.7391 49.1662C59.9876 47.079 59.5308 42.7066 58.6798 38.9481C58.2757 37.1591 58.105 36.0891 58.105 35.3074V34.6158L57.4649 34.681C55.163 34.929 52.3791 34.8639 50.6797 34.5106C49.7509 34.3276 47.4113 33.6361 46.9018 33.4131L46.4976 33.2302L46.4449 33.6862C46.4081 33.9318 46.3646 34.184 46.3144 34.4429C46.2365 34.716 46.2616 34.7812 46.7461 35.2522C47.3486 35.8661 47.5318 36.1793 47.5318 36.5953C47.5318 36.8559 47.3887 37.0663 46.6558 37.8231C46.1298 38.3824 45.5467 38.8854 44.9161 39.324L44.0652 39.8977L43.6987 41.1631C42.3908 45.7961 42.1423 50.0106 43.0059 53.0249L43.2142 53.7817L42.795 54.3028C41.2261 56.2723 40.2973 57.7732 40.1542 58.6101C40.0709 59.0223 39.9746 59.4317 39.8655 59.8379C39.5267 61.1308 39.2631 63.0226 39.1476 65.0722C39.0674 66.7881 38.9544 68.5023 38.8087 70.2138L38.7435 70.7225L39.3961 70.9179C39.7626 71.0357 40.3124 71.166 40.6261 71.2186C41.2135 71.3088 42.3005 71.2837 42.4687 71.1935L42.4511 71.196ZM55.1454 64.0173C56.1646 63.9522 57.0933 63.7943 57.2766 63.639C57.3544 63.5863 57.4473 63.3132 57.4724 63.0376L57.5377 62.5415L56.7268 62.7244C56.0867 62.8547 55.4466 62.9324 54.804 62.985C53.2602 63.0501 51.7064 63.01 50.1751 62.8547C49.6655 62.777 49.6655 62.777 49.8212 63.441C49.9517 63.9371 49.9793 63.9622 51.3122 64.0549C52.2009 64.1326 53.4434 64.12 55.1429 64.0148L55.1454 64.0173ZM54.2944 61.7472C55.6274 61.6294 57.2891 61.3438 57.6155 61.1734C57.7209 61.1208 57.8113 60.9253 57.8514 60.7023L57.9694 60.0107L58.0347 59.685L57.7083 59.7502C56.2574 60.0508 55.1579 60.141 52.9615 60.141C50.8177 60.141 50.5692 60.1285 50.0069 59.9331C49.7911 59.8412 49.5609 59.7878 49.3266 59.7752C49.2363 59.8278 49.2212 60.572 49.3015 61.0932C49.3543 61.4064 49.407 61.459 49.7208 61.5492C50.7148 61.8223 52.3891 61.8875 54.2969 61.7321L54.2944 61.7472ZM30.0304 49.9755C33.3766 49.0109 37.7569 46.177 41.3391 42.6289C42.5038 41.4663 42.6469 41.3109 42.8025 40.7898L43.0109 40.1233C43.036 40.0706 42.8276 39.9804 42.554 39.9153C41.8361 39.7449 41.2863 39.329 41.2863 38.9506C41.2863 38.7276 41.1558 38.5071 40.7768 38.1012C40.1618 37.4096 40.0061 37.1089 39.9408 36.4449L39.8881 35.9087L39.1551 35.3875C38.7359 35.0869 37.2725 34.2775 35.7161 33.4958C34.5317 32.9176 33.3718 32.2906 32.2394 31.6165C30.9316 30.742 30.0555 29.6972 29.5585 28.4594C29.4681 28.2113 29.3501 28.0033 29.31 28.0033C29.2045 28.0033 26.2625 30.8347 25.0074 32.1653C21.9098 35.4276 19.7786 38.259 18.4306 40.8825C18.0917 41.534 17.7252 42.3057 17.6198 42.5913L17.424 43.1125L17.6599 43.987C17.803 44.4581 18.1043 45.2273 18.3402 45.6833C19.1636 47.302 20.1451 48.2792 21.7667 49.076C23.5063 49.938 25.0476 50.2386 27.6231 50.1986C29.0087 50.186 29.4154 50.1459 30.0279 49.963L30.0304 49.9755ZM3.62015 38.5297C5.81661 36.5853 8.84899 34.4579 12.5641 32.253C14.9966 30.8047 24.3974 26.1066 28.7251 24.1872C29.5108 23.8339 30.2162 23.5082 30.294 23.4706C30.3718 23.418 30.5952 22.8567 30.8036 22.2303C31.7198 19.3337 32.1767 18.7599 33.8359 18.3816C34.0443 18.329 34.097 18.2638 34.097 18.0558C34.097 17.6775 34.3581 16.803 34.5815 16.4121C34.7522 16.1114 34.7522 16.0989 34.6066 16.139C34.5162 16.1641 33.9665 16.3219 33.3916 16.4923C25.4166 18.79 18.4482 21.8419 12.4336 25.653C6.01492 29.7247 2.31483 34.6058 1.24295 40.4515L1.16513 40.8825L1.95084 40.1132C2.37005 39.6823 3.12814 38.9782 3.62517 38.5472L3.62015 38.5297ZM62.7815 39.6397C63.4217 39.3139 64.4157 37.813 64.7822 36.6253C64.8876 36.2069 65.096 35.816 65.3972 35.4903C66.3637 34.4204 67.1619 32.476 67.1745 31.1455C67.1745 29.0708 65.9972 28.274 64.2852 29.161C64.0618 29.2662 63.881 29.3439 63.8534 29.3188C63.7631 29.2286 64.245 28.7575 64.8349 28.3917C65.6056 27.8831 65.7512 27.5824 65.7512 26.4999C65.7609 25.6252 65.5006 24.7688 65.0056 24.0469C64.7697 23.6936 64.6793 23.4606 64.7169 23.3152L64.9529 22.4408C65.2792 21.2781 65.1613 19.9476 64.6517 19.1007C63.8936 17.8228 62.9648 17.1964 61.6695 17.0912L60.9114 17.0385L61.3557 17.5347C62.6761 18.9579 63.3162 20.7444 63.0552 22.2729C62.9246 23.0572 62.8067 23.2125 62.0486 23.5132L61.6042 23.6961L61.657 24.2975C61.7473 25.2772 61.5791 25.9938 60.9516 27.3118C60.6378 27.9783 60.4018 28.5771 60.4295 28.6423C60.5073 28.8653 61.3708 29.2812 62.0511 29.4516L62.7188 29.6095L62.2996 29.7523C61.7498 29.9227 61.6319 30.1707 61.6319 31.0703C61.6319 31.8921 61.7498 32.2329 62.3498 33.1324C62.6234 33.5233 62.8066 33.9292 62.8343 34.1623C62.887 34.5281 62.8744 34.5532 62.5732 34.6584C62.2313 34.7519 61.8804 34.809 61.5264 34.8288C60.2964 34.9065 60.206 34.9465 59.6563 35.4677C59.1593 35.9388 59.1467 35.9639 59.1467 36.485C59.1467 37.2017 59.4203 38.6524 59.591 38.8479C59.8144 39.0834 61.0545 39.6973 61.539 39.7875C61.9567 39.8936 62.3989 39.8428 62.7815 39.6447V39.6397ZM44.6727 38.6625C45.4709 38.036 46.0985 37.4096 46.4499 36.8734C46.6733 36.5477 46.6859 36.4825 46.5804 36.2069C46.3972 35.7885 45.1948 34.706 44.5271 34.3803C44.0831 34.1787 43.6121 34.0428 43.1289 33.9769L42.3055 33.8716L41.7959 33.2327C40.7366 31.9272 40.1492 30.9099 39.3108 28.938C38.5778 27.2667 37.9377 26.2895 36.9185 25.3223C36.4993 24.9314 36.2006 24.6057 36.2257 24.6057C36.2784 24.6057 36.7754 24.8537 37.3503 25.1544C38.3042 25.663 38.4221 25.7031 38.8539 25.638C40.4103 25.4551 41.7834 23.6685 42.2804 21.1629C42.4235 20.4588 42.7122 19.7397 43.0134 19.3087C43.0259 19.2961 43.6284 19.687 44.3338 20.1957C46.1261 21.461 46.5177 21.6565 47.5368 21.6966C48.2046 21.7216 48.5836 21.6715 49.786 21.3834C52.349 20.757 55.1203 20.5089 56.8072 20.7319C57.7611 20.8622 59.1342 21.2806 60.1533 21.7617C61.1599 22.2328 61.3557 22.2578 61.6821 21.9697C61.9557 21.7342 61.9557 21.6966 61.9557 20.8221C61.9431 19.5292 61.4712 18.1335 60.7533 17.2991C60.3868 16.8682 59.3551 16.1641 58.3334 15.6279C57.9702 15.4356 57.6087 15.2401 57.249 15.0415C56.7645 14.7534 56.2173 14.7935 54.7262 15.1843C52.9991 15.6279 52.5423 15.6279 50.5692 15.1192C48.8949 14.7008 48.792 14.6882 47.1427 14.9488C46.2667 15.0791 44.0702 15.0014 43.3372 14.806C42.9707 14.7008 42.6042 14.598 42.2528 14.4677C41.6127 14.2197 40.5006 14.1796 39.494 14.3625C37.4934 14.7158 35.9772 15.7982 35.4274 17.2716C35.1388 18.0158 35.1789 18.3691 35.558 18.6021C36.1604 18.9804 36.9562 20.0128 36.9562 20.4162C36.9562 20.4412 36.7604 20.2734 36.537 20.0378C35.9747 19.4515 35.4651 19.1884 34.8626 19.1884C34.4726 19.1981 34.093 19.3168 33.7673 19.5313C33.4415 19.7457 33.1827 20.0471 33.0201 20.4011C32.8443 20.8622 32.6959 21.3333 32.5758 21.8118C32.2093 23.1423 31.883 23.8489 31.1901 24.7886C30.5751 25.638 30.4848 26.0163 30.7057 26.9685C31.2554 29.3689 32.2093 30.3361 36.1956 32.5937C38.2866 33.7814 39.3585 34.4479 40.1442 35.0342C40.7466 35.4777 40.7592 35.5053 40.7065 35.8436C40.5885 36.6279 41.0855 37.4748 42.067 38.1663C42.3155 38.3367 42.4712 38.5196 42.4712 38.6499C42.4712 38.8855 43.1389 39.2112 43.6209 39.2112C43.8945 39.2112 44.1053 39.0934 44.6676 38.6625H44.6727ZM60.7934 34.2625C62.3096 34.3151 62.3874 34.1974 61.5791 33.2577C60.7282 32.278 60.4947 31.4837 60.8085 30.6092L60.939 30.271L60.4018 30.0104C60.2186 29.9202 60.0353 29.8275 59.8521 29.7623C59.7617 30.1156 59.6688 30.4539 59.591 30.8072C59.3952 31.604 59.1593 33.6662 59.1467 34.5406C59.1467 34.6183 59.2772 34.5933 59.5007 34.4504C59.8144 34.2675 59.9726 34.2425 60.7959 34.2675L60.7934 34.2625ZM55.7077 34.1848C56.6239 34.1322 57.5653 34.0671 57.8138 34.027L58.2706 33.9618L58.3234 32.4609C58.4012 30.3211 58.715 29.0557 59.6437 27.0311C60.2964 25.5954 60.5851 24.3426 60.442 23.4029C60.3893 22.9995 60.3642 22.972 59.8144 22.7364C58.8076 22.3381 57.7593 22.0532 56.6892 21.887C55.6575 21.7442 52.6226 21.8219 51.4855 22.0449C51.0135 22.1225 50.1525 22.3055 49.5777 22.4483C48.1519 22.774 47.3938 22.7364 46.3093 22.2654C45.2375 21.7943 44.5572 21.3658 43.9171 20.7645C43.4075 20.2934 43.3548 20.2683 43.2242 20.4262C43.1188 20.544 43.0661 20.8973 43.0284 21.654C42.9883 22.8166 42.805 23.428 42.2955 24.2499C42.1827 24.4192 42.086 24.5987 42.0068 24.7861C42.0068 24.8262 42.3984 25.2822 42.8829 25.7783C44.5572 27.5147 45.3805 27.9582 46.7009 27.8655C47.1327 27.8254 47.4339 27.8405 47.4339 27.8906C47.4339 27.9958 46.583 28.6598 46.2315 28.8427C46.0608 28.9329 46.0232 29.0257 46.0483 29.2211L46.2566 30.5917C46.3746 31.376 46.465 31.7393 46.583 31.8445C46.8967 32.1051 48.5183 32.942 49.5375 33.358C50.8704 33.8942 51.6034 34.0896 52.6226 34.1798C53.8777 34.2851 53.9028 34.2851 55.7077 34.1798V34.1848ZM44.8961 32.7491C44.9212 32.709 44.8308 31.9523 44.6601 31.0778C44.4518 29.8901 44.3338 29.4591 44.2032 29.3414C44.1129 29.2637 43.6284 28.9229 43.1439 28.5721C42.5094 28.1126 41.9065 27.6112 41.3391 27.0712L40.4379 26.1842L39.9534 26.4323L39.4438 26.7054C39.4886 26.9087 39.5586 27.1057 39.6522 27.2917C39.7953 27.6049 40.0839 28.3742 40.2923 29.0006C40.842 30.6318 41.2738 31.4161 42.3582 32.8368L42.7624 33.373L43.533 33.4908C43.9648 33.5559 44.3965 33.6486 44.5145 33.6862C44.6978 33.7639 44.7229 33.7263 44.7756 33.3078C44.8007 33.1249 44.8408 32.9295 44.8936 32.7466L44.8961 32.7491ZM61.4612 16.5149C62.1289 16.4497 62.2469 16.357 61.9582 16.0588C61.7749 15.8759 61.3557 15.8634 61.0168 16.0187C60.7934 16.124 60.7432 16.0964 60.3893 15.7181C60.0228 15.3146 59.9977 15.2996 59.5383 15.3522C59.1191 15.4048 59.0538 15.3923 59.0011 15.2219C58.8391 14.9412 58.6361 14.6861 58.3987 14.4652C58.1015 14.1287 57.7303 13.8654 57.3142 13.696C56.5034 13.3828 56.0466 13.4229 55.2734 13.8538C53.0368 15.0666 53.1297 15.0541 50.9709 14.5053C48.9576 13.9967 47.454 13.4755 46.9695 13.1472C46.5654 12.8741 45.7019 12.5734 44.9814 12.4807C44.4442 12.4031 44.1053 12.5208 43.5958 12.9368L43.3221 13.1598L43.5707 13.5907C43.9095 14.1921 43.8719 14.2297 43.3623 13.7862C42.8126 13.3302 42.1599 13.0169 41.7407 13.0019C41.4395 13.0019 40.5508 13.3928 40.4454 13.5632C40.4052 13.6158 40.6814 13.6809 41.0479 13.706C41.4269 13.7461 41.949 13.8764 42.303 14.0192C43.2192 14.4101 43.6886 14.5404 44.5246 14.6206C45.4408 14.7108 47.1001 14.608 47.2959 14.4502C47.4013 14.36 47.6875 14.3449 48.2899 14.3976C49.0882 14.4502 49.4145 14.5279 51.3097 15.0365C52.4092 15.3372 53.1799 15.3096 54.4877 14.9588C55.0902 14.7885 55.8483 14.6206 56.162 14.5805C56.6992 14.5279 56.8022 14.5554 57.6406 14.9338C58.9735 15.5351 59.6814 15.9135 60.073 16.2643C60.4646 16.6026 60.5173 16.6026 61.4586 16.5249L61.4612 16.5149ZM54.0082 14.2322L54.8065 13.8137L54.7814 13.0044C54.7647 12.4448 54.7429 11.8927 54.7161 11.3482L54.6509 10.5138L53.8526 11.1277C53.3807 11.4935 52.9238 11.7666 52.728 11.8067C52.1532 11.9119 49.3166 11.8067 49.053 11.6639C48.7015 11.4055 48.373 11.1171 48.0715 10.8019L47.3385 10.0578L47.326 10.5013C47.326 10.7368 47.3009 11.1402 47.2482 11.3883C47.1829 11.8593 47.1829 11.8719 47.6925 12.5108C47.9661 12.8641 48.1895 13.1773 48.1895 13.2149C48.1895 13.463 51.9674 14.6381 52.8184 14.6506C53.092 14.6506 53.4334 14.5329 54.0082 14.2322ZM52.4921 11.268C53.4334 11.0851 53.8903 10.406 54.2442 8.68465C54.6107 6.83045 54.794 3.92137 54.6233 2.68106C54.4651 1.55853 53.21 1.0624 50.8177 1.14008C49.3266 1.1927 48.7116 1.33552 48.2021 1.7665C47.8883 2.02709 47.8883 2.05465 47.7452 3.29245C47.4841 5.66782 47.8757 9.04797 48.556 10.3133C48.8823 10.9272 49.171 11.1477 49.771 11.253C50.4512 11.3707 51.9022 11.3707 52.4896 11.2655L52.4921 11.268Z" fill="#B3B3B3"/>
</svg>
