<svg width="80" height="80" viewBox="0 0 80 80" fill="none" xmlns="http://www.w3.org/2000/svg">
<path d="M60 0H20C14.6957 0 9.60859 2.10714 5.85786 5.85786C2.10714 9.60859 0 14.6957 0 20V60C0 65.3043 2.10714 70.3914 5.85786 74.1421C9.60859 77.8929 14.6957 80 20 80H60C65.3043 80 70.3914 77.8929 74.1421 74.1421C77.8929 70.3914 80 65.3043 80 60V20C80 14.6957 77.8929 9.60859 74.1421 5.85786C70.3914 2.10714 65.3043 0 60 0ZM49.96 59.12H43.72C43.4711 59.1545 43.2186 59.0901 43.0166 58.9405C42.8147 58.7909 42.6795 58.5682 42.64 58.32C41.88 56.08 41.08 53.84 40.32 51.56C40.2961 51.417 40.2436 51.2804 40.1657 51.1581C40.0878 51.0359 39.9861 50.9306 39.8667 50.8484C39.7473 50.7663 39.6125 50.7091 39.4705 50.6802C39.3284 50.6512 39.182 50.6512 39.04 50.68H28.4C28.2522 50.6451 28.0988 50.6418 27.9496 50.6703C27.8005 50.6987 27.659 50.7583 27.5345 50.8451C27.4099 50.9319 27.3051 51.044 27.2267 51.1741C27.1484 51.3042 27.0984 51.4493 27.08 51.6C26.4 53.84 25.64 56 24.96 58.24C24.941 58.3813 24.8931 58.5172 24.8193 58.6393C24.7456 58.7613 24.6475 58.8669 24.5312 58.9494C24.4149 59.0319 24.2829 59.0897 24.1433 59.119C24.0038 59.1484 23.8597 59.1487 23.72 59.12H18.24C17.28 59.12 17.2 59.12 17.52 58.12L26.16 33.2C26.96 30.92 27.76 28.64 28.48 26.36C28.6778 25.6838 28.7854 24.9844 28.8 24.28C28.8 23.44 29.12 23.24 29.88 23.28H37.52C38.08 23.28 38.36 23.28 38.56 24.04L48.4 51.76C49.16 53.92 49.92 56.04 50.64 58.16C50.96 59.04 50.92 59.12 49.96 59.12ZM62.2 58.44C62.2 59.12 61.92 59.32 61.28 59.32H55.52C54.72 59.32 54.52 59 54.52 58.28V33.16C54.52 32.36 54.76 32.04 55.6 32.08H61.24C61.88 32.08 62.2 32.08 62.2 32.96C62.1733 41.44 62.1733 49.9333 62.2 58.44ZM58.2 29.24C57.6268 29.2764 57.0526 29.1889 56.5162 28.9836C55.9799 28.7782 55.4941 28.4598 55.0918 28.0499C54.6895 27.64 54.3802 27.1483 54.1849 26.6083C53.9896 26.0682 53.9129 25.4924 53.96 24.92C53.9651 24.3511 54.0836 23.7889 54.3085 23.2663C54.5334 22.7437 54.8603 22.2712 55.27 21.8764C55.6797 21.4816 56.1639 21.1724 56.6945 20.967C57.2251 20.7616 57.7913 20.664 58.36 20.68C58.9133 20.6782 59.461 20.7913 59.9684 21.012C60.4758 21.2327 60.9319 21.5563 61.3079 21.9623C61.6838 22.3684 61.9714 22.848 62.1525 23.3708C62.3336 23.8937 62.4043 24.4484 62.36 25C62.3928 25.5451 62.3136 26.0912 62.1273 26.6045C61.941 27.1179 61.6515 27.5877 61.2768 27.9849C60.902 28.3821 60.4499 28.6984 59.9483 28.9143C59.4466 29.1301 58.9061 29.241 58.36 29.24H58.2Z" fill="#CDC3C5"/>
<path d="M37.9204 43.6799H29.4404C30.8804 39.0399 32.2404 34.4799 33.4404 29.9199C35.0404 34.4799 36.4804 39.0399 37.9204 43.6799Z" fill="#CDC3C5"/>
</svg>
