<svg width="80" height="80" viewBox="0 0 80 80" fill="none" xmlns="http://www.w3.org/2000/svg">
<path d="M50.0179 46.84C50.1615 46.3143 50.2093 45.7409 50.2093 45.1196V41.6311C50.2093 41.1532 50.1658 40.5798 50.0657 40.1019C49.5435 37.8081 47.6723 35.9443 44.9917 35.9443C41.2102 35.9443 39.104 39.2895 39.104 43.6382C39.104 47.8913 41.2102 50.9976 44.9439 50.9976C47.3373 50.9976 49.4434 49.3728 50.0179 46.84Z" fill="#CDC3C5"/>
<path fill-rule="evenodd" clip-rule="evenodd" d="M17.2412 1.25467C32.3675 -0.418222 47.6327 -0.418222 62.7591 1.25467C71.0228 2.17567 77.6851 8.6705 78.6555 16.9509C80.4481 32.2633 80.4481 47.7321 78.6555 63.0446C77.6851 71.3249 71.0228 77.8197 62.7634 78.7451C47.6356 80.4183 32.369 80.4183 17.2412 78.7451C8.97744 77.8197 2.31512 71.3249 1.34471 63.0489C-0.448236 47.735 -0.448236 32.2647 1.34471 16.9509C2.31512 8.6705 8.97744 2.17567 17.2412 1.25467ZM50.209 34.463V21.2735H56.1011V48.656C56.1011 51.0454 56.1968 53.626 56.2926 55.203H51.0271L50.7878 51.5233H50.6921C49.3039 54.1039 46.4797 55.7287 43.0811 55.7287C37.5284 55.7287 33.1246 50.9976 33.1246 43.8294C33.0811 36.04 37.9592 31.4046 43.5597 31.4046C46.7669 31.4046 49.0645 32.7426 50.1176 34.463H50.209ZM24.1385 55.203V22.9939H30.0262V55.203H24.1385Z" fill="#CDC3C5"/>
</svg>
