<svg width="80" height="80" viewBox="0 0 80 80" fill="none" xmlns="http://www.w3.org/2000/svg">
<path fill-rule="evenodd" clip-rule="evenodd" d="M18.2059 14.222C17.4541 14.2106 16.7038 14.2935 15.9725 14.4687V14.5953H16.0959C16.5292 15.4853 17.2959 16.062 17.8325 16.8287L19.0726 19.4321L19.1992 19.3087C19.9659 18.7687 20.3192 17.902 20.3159 16.5787C20.0059 16.2553 19.9592 15.8487 19.6926 15.462C19.3392 14.9487 18.6526 14.6553 18.2059 14.222ZM78.2633 77.8795C78.8467 78.3095 79.24 78.9761 80 79.2461V79.1195C79.6 78.6128 79.5 77.9128 79.1333 77.3828C78.5933 76.8495 78.0555 76.3117 77.52 75.7694C75.8983 73.676 73.9738 71.8358 71.8099 70.3094C70.1165 69.0927 66.3132 67.446 65.6065 65.4726L65.4798 65.346C66.6832 65.2126 68.0932 64.776 69.2032 64.4793C71.0699 63.9793 72.7366 64.106 74.6633 63.6126L77.27 62.8659V62.3659C76.2966 61.3659 75.6033 60.0459 74.5399 59.1426C71.7599 56.7759 68.7299 54.4092 65.6065 52.4425C63.8731 51.3458 61.7331 50.6391 59.8964 49.7091C59.2797 49.3991 58.1964 49.2358 57.7897 48.7191C56.823 47.4857 56.2997 45.9291 55.5564 44.499C53.9997 41.499 52.4663 38.2223 51.0896 35.0656C50.1463 32.9156 49.533 30.7955 48.3563 28.8655C42.7229 19.5987 36.6561 14.0087 27.2627 8.51192C25.2626 7.34523 22.8559 6.88189 20.3159 6.27855L16.2192 6.03188C15.3859 5.68188 14.5192 4.6652 13.7392 4.16853C10.6258 2.20184 2.63902 -2.07489 0.338995 3.54852C-1.11769 7.09856 2.51236 10.5619 3.81237 12.3586C4.72238 13.622 5.88907 15.0353 6.54241 16.4553C6.96908 17.3887 7.04241 18.322 7.40908 19.3087C8.31243 21.7421 9.09577 24.3821 10.2625 26.6288C10.8558 27.7655 11.5058 28.9622 12.2491 29.9789C12.7092 30.6022 13.4892 30.8789 13.6125 31.8422C12.8458 32.9122 12.8058 34.5756 12.3758 35.9356C10.4358 42.0523 11.1658 49.6524 13.9892 54.1792C14.8525 55.5658 16.8892 58.5459 19.6926 57.4025C22.1459 56.4025 21.5993 53.3091 22.2993 50.5791C22.4559 49.9591 22.3626 49.5024 22.6726 49.0891V49.2124L24.906 53.6792C26.5593 56.3425 29.4927 59.1259 31.9794 61.0026C33.2661 61.9759 34.2794 63.6593 35.9494 64.2293V64.1026H35.8261C35.4994 63.6026 34.9928 63.3926 34.5861 62.9859C33.5543 61.9836 32.5993 60.905 31.7294 59.7592C29.4694 56.6925 27.4727 53.3325 25.6526 49.8358C24.7826 48.1624 24.026 46.3224 23.2926 44.6224C23.0093 43.9657 23.0126 42.9757 22.4259 42.6357C21.6226 43.8824 20.4392 44.889 19.8192 46.3591C18.8259 48.7091 18.6959 51.5758 18.3292 54.5492C18.1126 54.6258 18.2092 54.5725 18.0792 54.6725C16.3525 54.2558 15.7459 52.4758 15.1025 50.9491C13.4792 47.0924 13.1758 40.8757 14.6058 36.4323C14.9758 35.2823 16.6492 31.6622 15.9725 30.5989C15.6459 29.5388 14.5825 28.9288 13.9858 28.1188C13.209 27.0293 12.5434 25.8646 11.9991 24.6421C10.6725 21.6354 10.0491 18.2554 8.6491 15.212C7.98242 13.7586 6.84908 12.2886 5.91907 10.9953C4.89239 9.56193 3.73904 8.50858 2.94236 6.77523C2.65902 6.15855 2.27235 5.17521 2.69236 4.54187C2.82569 4.11519 3.0157 3.93519 3.43903 3.79852C4.15904 3.24185 6.1624 3.98186 6.91241 4.29186C8.90244 5.11854 10.5625 5.90522 12.2458 7.02523C13.0558 7.55857 13.8758 8.59858 14.8525 8.88525H15.9692C17.7192 9.28526 19.6759 9.00859 21.3059 9.50526C24.1893 10.3819 26.7727 11.7453 29.1227 13.2286C36.2761 17.7454 42.1229 24.1721 46.1229 31.8422C46.7662 33.0756 47.0463 34.2556 47.6129 35.5656C48.7563 38.2056 50.1963 40.9223 51.333 43.5057C52.4663 46.0824 53.5763 48.6824 55.1797 50.8258C56.023 51.9525 59.2831 52.5591 60.7664 53.1858C61.8031 53.6225 63.5031 54.0825 64.4865 54.6725C66.3665 55.8058 68.1865 57.1559 69.9465 58.3959C70.8265 59.0192 73.5366 60.3792 73.6699 61.4959C69.3032 61.3826 65.9698 61.7859 63.1231 62.9893C62.3131 63.3293 61.0231 63.3393 60.8898 64.3526C61.3331 64.8193 61.4031 65.5193 61.7564 66.0893C62.4364 67.1893 63.5865 68.666 64.6098 69.4394C65.7332 70.286 66.8865 71.1894 68.0865 71.9227C70.2199 73.2227 72.6066 73.9694 74.6599 75.2728C75.8766 76.0428 77.0833 77.0094 78.2633 77.8795Z" fill="#CDC3C5"/>
</svg>
