<svg width="81" height="81" viewBox="0 0 81 81" fill="none" xmlns="http://www.w3.org/2000/svg">
<path d="M34.4668 34.5864C34.5273 35.801 34.1602 36.9983 33.4295 37.9703C32.6987 38.9422 31.6503 39.6273 30.4668 39.9065C28.3787 40.5231 26.201 40.7801 24.0268 40.6665C23.4668 40.6665 23.4268 40.3065 23.4268 39.9065V29.7065C23.4268 29.4265 23.7068 28.9464 23.8668 28.9464C26.1549 28.6902 28.4703 28.8392 30.7068 29.3865C31.8323 29.6949 32.8186 30.3786 33.5025 31.3243C34.1863 32.27 34.5265 33.421 34.4668 34.5864Z" fill="#CDC3C5"/>
<path d="M60.6665 0.666748H20.6665C15.3622 0.666748 10.2751 2.77388 6.52437 6.52461C2.77364 10.2753 0.666504 15.3624 0.666504 20.6667V60.6667C0.666504 65.9711 2.77364 71.0582 6.52437 74.8089C10.2751 78.5596 15.3622 80.6667 20.6665 80.6667H60.6665C65.9708 80.6667 71.0579 78.5596 74.8086 74.8089C78.5594 71.0582 80.6665 65.9711 80.6665 60.6667V20.6667C80.6665 15.3624 78.5594 10.2753 74.8086 6.52461C71.0579 2.77388 65.9708 0.666748 60.6665 0.666748ZM36.6665 44.6667C34.6478 45.9489 32.3342 46.6925 29.9465 46.8267H24.5865C23.4665 46.8267 23.4665 46.8267 23.4665 47.9067V57.1867C23.4665 57.9867 23.2265 58.2267 22.4265 58.2267H17.1465C16.3865 58.2267 16.1865 57.9467 16.1865 57.2267V23.5067C16.1865 22.7067 16.1865 22.4667 17.1865 22.4667H29.7065C31.9918 22.5287 34.2229 23.176 36.1865 24.3467C37.8823 25.3023 39.2942 26.6907 40.278 28.3702C41.2618 30.0498 41.7824 31.9603 41.7865 33.9067C42.0179 35.9989 41.6613 38.1142 40.7569 40.015C39.8524 41.9157 38.4359 43.5266 36.6665 44.6667ZM60.3465 57.8667C56.8679 59.222 53.0593 59.4871 49.4265 58.6267C48.3358 58.3867 47.2692 58.0667 46.2265 57.6667C46.0657 57.5913 45.9244 57.4799 45.8134 57.3412C45.7024 57.2025 45.6248 57.0402 45.5865 56.8667V50.8267C46.8665 51.3067 48.0665 51.8667 49.3065 52.2667C51.3846 52.9309 53.5849 53.1223 55.7465 52.8267C56.1785 52.7467 56.5918 52.6134 56.9865 52.4267C57.2209 52.3241 57.4247 52.1624 57.578 51.9575C57.7313 51.7525 57.8288 51.5114 57.861 51.2575C57.8933 51.0036 57.8591 50.7457 57.7619 50.509C57.6647 50.2722 57.5078 50.0647 57.3065 49.9067C56.3915 49.2733 55.4128 48.7371 54.3865 48.3067C52.7465 47.5067 51.0665 46.8667 49.5065 45.9467C48.098 45.2615 46.948 44.1403 46.2274 42.7495C45.5068 41.3587 45.254 39.7726 45.5065 38.2267C45.71 36.7389 46.328 35.3384 47.2901 34.1854C48.2521 33.0324 49.5192 32.1734 50.9465 31.7067C53.519 30.8368 56.2641 30.6035 58.9465 31.0267C60.2265 31.0267 61.4665 31.5067 62.7465 31.7467C63.4265 31.7467 63.6665 32.3067 63.6265 32.9867V37.6667C63.6265 38.5467 63.4265 38.6267 62.6265 38.3067C60.1282 37.1501 57.3667 36.6806 54.6265 36.9467C54.2383 36.9919 53.86 37.1 53.5065 37.2667C53.2665 37.361 53.0554 37.5162 52.8939 37.7172C52.7324 37.9181 52.6261 38.1577 52.5857 38.4123C52.5453 38.6669 52.5721 38.9277 52.6634 39.1688C52.7548 39.4098 52.9075 39.6229 53.1065 39.7867C54.2638 40.5574 55.4772 41.2241 56.7465 41.7867C58.2665 42.5467 59.8665 43.1467 61.3465 43.9867C62.6895 44.5979 63.8019 45.6222 64.5215 46.9103C65.2411 48.1984 65.5302 49.6828 65.3465 51.1467C65.2201 52.6072 64.6783 54.0009 63.7852 55.1633C62.8922 56.3258 61.685 57.2083 60.3065 57.7067L60.3465 57.8667Z" fill="#CDC3C5"/>
</svg>
