<svg width="81" height="80" viewBox="0 0 81 80" fill="none" xmlns="http://www.w3.org/2000/svg">
<path d="M57.9723 0C54.7717 0.0299522 51.589 0.482349 48.5068 1.34546L48.2886 1.41092C46.3479 1.07816 44.3845 0.894588 42.4158 0.861823C38.3685 0.792732 34.8884 1.74547 32.0884 3.33457C29.3247 2.40365 23.5937 0.800005 17.5536 1.12001C13.3463 1.34183 8.75717 2.58183 5.35713 6.06549C1.96436 9.54915 0.171609 14.9383 0.549795 22.2729C0.651615 24.2983 1.24435 27.5965 2.23345 31.8729C3.21528 36.1457 4.60439 41.1457 6.33169 45.7094C8.05898 50.273 9.95355 54.3785 12.9136 57.164C14.39 58.5604 16.4227 59.7349 18.8191 59.6367C20.5028 59.5713 22.0264 58.8549 23.3392 57.7967C23.9792 58.6149 24.6628 58.9713 25.2847 59.3022C26.0665 59.7167 26.8301 60.0004 27.6192 60.1895C29.8044 60.7498 32.0804 60.8624 34.3102 60.5204C35.2811 60.364 36.303 60.0585 37.3212 59.6222C37.3575 60.7204 37.4012 61.7967 37.4484 62.8877C37.5866 66.3422 37.6775 69.5313 38.7466 72.3277C38.9175 72.7859 39.3866 75.1386 41.2449 77.215C43.0994 79.295 46.7358 80.5896 50.8741 79.7314C53.7941 79.1241 57.5105 78.0296 59.976 74.6259C62.4124 71.2586 63.5142 66.4295 63.7324 58.5931C63.7869 58.1713 63.8524 57.8113 63.9215 57.4731L64.5033 57.524H64.5688C67.6852 57.6622 71.067 57.2331 73.8925 55.9603C76.3944 54.8331 78.2853 53.6985 79.6635 51.6803C80.009 51.1821 80.3872 50.5785 80.489 49.5348C80.5908 48.4985 79.9799 46.8694 78.9581 46.1203C76.9108 44.6148 75.6271 45.1857 74.2489 45.4657C72.8913 45.7566 71.5143 45.9179 70.1179 45.9494C74.0925 39.4621 76.9398 32.5675 78.5653 26.4656C79.5253 22.8656 80.0672 19.5456 80.1108 16.6437C80.1544 13.7419 79.9108 11.171 78.118 8.94551C72.5143 2.00001 64.6342 0.0800003 58.5396 0.0145454C58.3505 0.00969684 58.1614 0.00848498 57.9723 0.0109092V0ZM57.8123 2.13456C63.576 2.08001 70.9434 3.65093 76.2307 10.2073C77.4199 11.6801 77.7726 13.8328 77.7326 16.4874C77.6889 19.1383 77.1835 22.3092 76.2598 25.7856C74.4671 32.5202 71.078 40.3675 66.3033 47.4148C66.4729 47.5323 66.656 47.6288 66.8488 47.7021C67.8452 48.1021 70.1143 48.4439 74.6489 47.5421C75.7871 47.3057 76.6235 47.1494 77.4889 47.7894C77.696 47.9613 77.8606 48.1787 77.9697 48.4247C78.0788 48.6708 78.1296 48.9387 78.118 49.2076C78.0699 49.6137 77.9157 50 77.6708 50.3276C76.798 51.604 75.0671 52.8149 72.8489 53.8112C70.8889 54.6985 68.0743 55.1603 65.5797 55.1894C64.3288 55.2003 63.176 55.1058 62.1978 54.8112L62.1324 54.7894C61.7542 58.3204 60.8851 65.2986 60.3215 68.4804C59.8669 71.0477 59.0742 73.0877 57.5578 74.615C56.045 76.1423 53.9068 77.0623 51.0268 77.6623C47.4595 78.4041 44.8594 77.6041 43.1831 76.2332C41.5103 74.8696 40.743 73.055 40.2812 71.9423C39.9648 71.1786 39.8012 70.1859 39.6412 68.8586C39.4653 67.2695 39.3476 65.6745 39.2885 64.0768C39.1841 61.2756 39.1501 58.4723 39.1866 55.6694C37.6957 56.9894 35.8411 57.8694 33.852 58.2004C31.4884 58.5894 29.372 58.2076 28.1101 57.9022C27.4915 57.7497 26.8933 57.5238 26.3283 57.2294C25.7392 56.9276 25.1828 56.5858 24.8119 55.9094C24.5934 55.5234 24.5235 55.0707 24.6156 54.6367C24.7346 54.1958 24.9985 53.8078 25.3647 53.5349C26.0483 52.9967 26.9465 52.6985 28.3029 52.4221C30.7756 51.9312 31.6375 51.593 32.1611 51.1894C32.6084 50.8439 33.1138 50.1458 34.0084 49.1167L33.9975 48.9821C32.4032 48.9353 30.8404 48.5275 29.4265 47.7894C28.9138 48.313 26.281 51.0149 23.0701 54.7603C21.721 56.3276 20.23 57.2258 18.6555 57.2913C17.0809 57.3567 15.6591 56.5858 14.4518 55.4513C12.0336 53.1749 10.1063 49.2585 8.42626 44.833C6.75351 40.4039 5.38622 35.4729 4.41894 31.2729C3.44438 27.0729 2.86982 23.6874 2.78982 22.0547C2.42618 15.1128 4.09893 10.4364 6.97169 7.48732C9.84446 4.53821 13.7791 3.4182 17.6191 3.20729C24.5065 2.82184 31.0484 5.15276 32.372 5.65458C34.9211 3.97457 38.2048 2.92729 42.3103 2.99275C44.2562 3.01981 46.1931 3.26374 48.0849 3.72002L48.154 3.69093C48.988 3.40729 49.8341 3.16972 50.6922 2.9782C53.0285 2.45087 55.4138 2.17054 57.8087 2.14183L57.8123 2.13456ZM58.3323 4.3673H57.8342C55.8667 4.3938 53.9062 4.60811 51.9795 5.0073C55.8041 6.67306 59.1643 9.24691 61.7687 12.5055C63.3465 14.455 64.6552 16.6076 65.6597 18.9056C66.0379 19.7856 66.2924 20.531 66.4343 21.1056C66.507 21.3965 66.5579 21.6401 66.5724 21.8947C66.5859 22.0558 66.5724 22.218 66.5324 22.3747L66.5106 22.4183C66.6161 25.3383 65.8706 27.3165 65.7797 30.102C65.7106 32.1238 66.2415 34.4984 66.3724 37.0839C66.4961 39.5202 66.1943 42.193 64.5651 44.8185C64.7009 44.9785 64.8318 45.1385 64.9579 45.2985C69.267 38.7166 72.3762 31.4293 74.0307 25.222C74.9144 21.8765 75.3871 18.8474 75.4271 16.4474C75.4635 14.0474 75.0016 12.3055 74.4125 11.5819C69.8016 5.86185 63.5651 4.4073 58.3323 4.3673ZM41.8776 5.21821C37.8157 5.22549 34.8993 6.41822 32.692 8.20005C30.412 10.0437 28.8847 12.5637 27.881 15.1492C26.9096 17.733 26.3156 20.4433 26.1174 23.1965L26.1647 23.1711C27.3901 22.502 29.0011 21.8365 30.7247 21.451C32.452 21.0656 34.3102 20.9456 35.9939 21.5783C37.6775 22.211 39.0703 23.702 39.5757 25.9638C41.994 36.822 38.823 40.8584 37.6521 43.9021C37.2128 45.0067 36.8341 46.1345 36.5175 47.2803C36.663 47.2391 36.8096 47.21 36.9575 47.193C37.5963 47.1585 38.2337 47.2834 38.8121 47.5567C39.9903 48.0294 40.7976 49.0185 41.2339 50.153C41.3479 50.4536 41.4291 50.7688 41.4776 51.0985C41.5261 51.2367 41.5491 51.3785 41.5467 51.524C41.416 55.6759 41.4305 59.8312 41.5903 63.9822C41.6703 65.7786 41.7867 67.3568 41.9358 68.6041C42.0812 69.8477 42.2921 70.7932 42.4267 71.1132C42.8631 72.1823 43.5067 73.5786 44.6704 74.5277C45.834 75.4768 47.4958 76.1059 50.5395 75.4732C53.1795 74.9241 54.8087 74.1641 55.8996 73.0623C56.9832 71.9677 57.6342 70.4441 58.0487 68.1059C58.6705 64.604 59.9214 54.4549 60.0705 52.5421C60.0051 51.1058 60.2233 49.9967 60.696 49.153C61.1869 48.2876 61.9433 47.7567 62.5942 47.4694C62.9215 47.3239 63.2269 47.2294 63.4779 47.1603C63.2105 46.7904 62.9315 46.429 62.6415 46.0766C61.7011 44.9766 60.9302 43.7424 60.3542 42.4148C60.0767 41.8687 59.782 41.3314 59.4705 40.8039C59.016 40.0039 58.4378 39.0039 57.8342 37.8802C56.6232 35.6293 55.3068 32.902 54.6232 30.2438C53.9432 27.5929 53.8414 24.8474 55.5869 22.9092C57.136 21.1892 59.8487 20.4765 63.9251 20.8765C63.8051 20.5274 63.7324 20.2365 63.5288 19.771C62.6089 17.6583 61.4064 15.6802 59.9542 13.891C56.4996 9.60733 50.9104 5.36003 42.2703 5.22185H41.8776V5.21821ZM19.0555 5.38912C18.6191 5.38912 18.1827 5.40125 17.7464 5.42549C14.2772 5.61822 10.9972 6.5964 8.65172 9.01096C6.29896 11.4219 4.75348 15.3783 5.08803 21.931C5.15713 23.1674 5.7135 26.6438 6.66624 30.7675C7.61898 34.8984 8.97172 39.753 10.5936 44.0403C12.2154 48.3312 14.1863 52.0658 16.0554 53.8331C16.9973 54.7167 17.8155 55.0731 18.5573 55.044C19.3028 55.0076 20.1973 54.5931 21.2955 53.3167C23.2955 50.9763 25.3693 48.7 27.5138 46.4912C25.9986 45.2206 24.8322 43.5849 24.1246 41.7384C23.4229 39.9095 23.2098 37.9293 23.5064 35.9929C23.8592 33.5275 23.9065 31.222 23.8665 29.4038C23.8228 27.6293 23.6919 26.4511 23.6919 25.7129V25.6111C23.6882 21.7679 24.3767 17.9555 25.7247 14.3565C26.6847 11.8764 28.1174 9.35642 30.2665 7.31641C28.1574 6.64368 24.4119 5.61822 20.3573 5.42549C19.9213 5.40214 19.4848 5.39002 19.0482 5.38912H19.0555ZM61.6524 22.9965C59.3214 23.0256 58.0123 23.6111 57.3251 24.3747C56.3505 25.4583 56.2596 27.3565 56.8632 29.6984C57.4669 32.0402 58.7069 34.662 59.8778 36.8366C60.4596 37.9275 61.0269 38.9093 61.4851 39.7021C61.9469 40.5021 62.2851 41.0693 62.4888 41.5566C62.6827 41.9954 62.8863 42.3966 63.0997 42.7603C64.0015 40.9093 64.1651 39.0948 64.0706 37.2002C63.9506 34.8584 63.3906 32.462 63.4742 30.0365C63.5651 27.2002 64.1433 25.3492 64.1942 23.1565C63.3508 23.0537 62.5021 23.0003 61.6524 22.9965ZM33.3611 23.3783C32.6488 23.3837 31.9391 23.4666 31.2447 23.6256C29.8641 23.9511 28.5318 24.4547 27.281 25.1238C26.8616 25.342 26.4616 25.5953 26.081 25.8838L26.0083 25.9492C26.0301 26.4365 26.1283 27.6183 26.1719 29.3529C26.2083 31.2547 26.1647 33.6802 25.7865 36.2984C24.9646 42.0003 29.2265 46.7203 34.2375 46.7276C34.5284 45.5566 35.012 44.3712 35.4921 43.1203C36.8884 39.473 39.6339 36.8148 37.3212 26.4329C36.943 24.7347 36.1939 24.0474 35.1611 23.6583C34.5828 23.4575 33.9731 23.3627 33.3611 23.3783ZM60.5615 24.0583H60.736C60.9639 24.0656 61.1699 24.0898 61.3542 24.1311C61.5214 24.1647 61.6814 24.2275 61.8269 24.3165C61.8932 24.3555 61.9504 24.4081 61.9949 24.4707C62.0394 24.5334 62.0701 24.6048 62.0851 24.6802V24.7092C62.0947 24.8691 62.0512 25.0276 61.9615 25.1602C61.86 25.3435 61.7326 25.5113 61.5833 25.6583C61.2309 26.0323 60.7662 26.2812 60.2596 26.3674C59.7631 26.4262 59.2619 26.3036 58.8487 26.022C58.6824 25.9121 58.5319 25.78 58.4014 25.6292C58.2911 25.5115 58.2156 25.3655 58.1833 25.2074C58.1753 25.1297 58.1842 25.0511 58.2093 24.9771C58.2344 24.903 58.2751 24.8353 58.3287 24.7783C58.445 24.6563 58.5815 24.5554 58.7323 24.4802C59.3083 24.2157 59.9316 24.0698 60.5651 24.0511L60.5615 24.0583ZM33.6957 24.6183C33.8775 24.6183 34.0678 24.6329 34.2666 24.662C34.7902 24.7347 35.2593 24.8692 35.6157 25.0692C35.7902 25.1589 35.943 25.2765 36.0739 25.422C36.1418 25.502 36.1927 25.5905 36.2266 25.6874C36.2605 25.7844 36.2715 25.885 36.2593 25.9893C36.2263 26.1821 36.1364 26.3606 36.0011 26.502C35.8605 26.6714 35.695 26.8185 35.5102 26.9383C35.0587 27.2459 34.5107 27.379 33.9684 27.3129C33.4181 27.2241 32.9122 26.9571 32.5284 26.5529C32.3688 26.3901 32.2318 26.2067 32.1211 26.0074C32.0079 25.8331 31.9578 25.6251 31.9793 25.4183C32.0302 25.0547 32.3393 24.8729 32.6338 24.7638C32.9743 24.6558 33.3318 24.6114 33.6884 24.6329L33.6957 24.6183ZM64.8233 49.0985H64.8124C64.307 49.2803 63.8924 49.353 63.5397 49.4985C63.1883 49.6288 62.8971 49.8838 62.7215 50.2149C62.5033 50.5967 62.3215 51.2767 62.376 52.433C62.5327 52.5364 62.7044 52.6149 62.8851 52.6658C63.4706 52.8403 64.4561 52.9567 65.5579 52.9385C67.747 52.9131 70.4452 52.4185 71.878 51.7712C73.0525 51.2403 74.1434 50.5494 75.118 49.7203C70.3288 50.6803 67.627 50.4258 65.9652 49.7603C65.5553 49.593 65.1709 49.3727 64.8233 49.0985ZM37.2303 49.4076H37.1575C36.9757 49.4221 36.7103 49.4803 36.2012 50.033C35.0011 51.3349 34.5866 52.1494 33.5975 52.9131C32.6157 53.6767 31.332 54.0803 28.772 54.5894C27.961 54.7494 27.4992 54.9276 27.1865 55.0694C27.2883 55.1494 27.2774 55.1712 27.4265 55.2476C27.801 55.4476 28.2847 55.6222 28.6701 55.7203C29.772 55.9858 31.5793 56.2985 33.4666 55.9858C35.3539 55.6731 37.3139 54.7967 38.9866 52.5203C39.2776 52.1276 39.3066 51.5458 39.0703 50.9203C38.8266 50.3021 38.303 49.7639 37.9321 49.6112C37.7108 49.5069 37.4736 49.4405 37.2303 49.4148V49.4076Z" fill="#CDC3C5"/>
</svg>
