<svg width="80" height="80" viewBox="0 0 80 80" fill="none" xmlns="http://www.w3.org/2000/svg">
<g clip-path="url(#clip0_628_616)">
<path d="M76.3591 9.11113H47.2236V0.93457H42.0723L0 8.22098V71.7975L41.5728 79.0655H47.2236V69.9805H74.4877C76.0411 69.9079 77.7673 70.0624 79.0936 69.0993C80.1475 67.4732 79.892 65.438 79.983 63.6029V12.6725C80.1919 10.583 78.4486 8.91129 76.3591 9.11113ZM26.6461 43.0163C24.5839 44.07 22.2217 43.9247 19.9778 43.8521L19.9688 54.5086L14.5631 54.0544L14.5722 24.9372C19.5055 25.1733 25.4833 22.9839 29.5716 26.6814C33.4872 31.433 32.4514 40.1727 26.6461 43.0163ZM75.6417 65.6929H47.2236V59.9869H69.0275V56.3532H47.2236V51.8107H69.0275V48.1766H47.2327C47.2327 48.1766 47.2236 44.6154 47.2145 42.8347C50.8122 43.9521 54.9095 43.9249 58.1255 41.7627C61.6052 39.7004 63.422 35.7666 63.7219 31.8419H51.7661V19.9769L47.2236 20.8946V13.3988H75.6417V65.6929ZM53.5823 18.078C59.8964 18.3686 65.2119 23.7063 65.548 30.0022H53.5823V18.078ZM19.9688 29.8521C21.7584 29.7704 23.9752 29.4433 25.1834 31.1239C26.2192 32.9047 26.1647 35.2486 25.3016 37.0838C24.2659 38.9552 21.9219 38.7736 20.1141 38.9916C19.9234 35.9482 19.9414 32.9047 19.9688 29.8521Z" fill="#CDC3C5"/>
</g>
<defs>
<clipPath id="clip0_628_616">
<rect width="80" height="80" fill="white"/>
</clipPath>
</defs>
</svg>
