<svg width="80" height="80" viewBox="0 0 80 80" fill="none" xmlns="http://www.w3.org/2000/svg">
<path d="M34.5202 36.44C34.2832 37.1847 33.862 37.8574 33.2956 38.3959C32.7292 38.9343 32.0359 39.321 31.2802 39.52C29.1758 40.1215 26.9703 40.2849 24.8002 40C24.3602 40 24.2002 40 24.2002 39.36V29.6C24.2002 29.24 24.2002 28.92 24.6802 28.92C26.5789 28.8933 28.4722 28.9866 30.3602 29.2C31.1662 29.2948 31.9387 29.577 32.6161 30.0239C33.2935 30.4708 33.8568 31.0701 34.2611 31.7737C34.6654 32.4773 34.8994 33.2658 34.9444 34.0761C34.9894 34.8864 34.8441 35.6959 34.5202 36.44Z" fill="#CDC3C5"/>
<path d="M60 0H20C14.6957 0 9.60859 2.10714 5.85786 5.85786C2.10714 9.60859 0 14.6957 0 20V60C0 65.3043 2.10714 70.3914 5.85786 74.1421C9.60859 77.8929 14.6957 80 20 80H60C65.3043 80 70.3914 77.8929 74.1421 74.1421C77.8929 70.3914 80 65.3043 80 60V20C80 14.6957 77.8929 9.60859 74.1421 5.85786C70.3914 2.10714 65.3043 0 60 0ZM39.44 42.28C37.3884 44.5945 34.5225 46.0274 31.44 46.28C29.44 46.52 27.44 46.28 25.44 46.6H24V56.88C24 57.68 24 57.8 23.16 57.8H17.48C16.88 57.8 16.64 57.6 16.64 56.96V23.16C16.64 22.64 16.64 22.36 17.36 22.36H28.4C31.0296 22.2735 33.64 22.8368 36 24C37.8431 24.8729 39.4026 26.248 40.4994 27.9674C41.5961 29.6868 42.1855 31.6807 42.2 33.72C42.3375 35.259 42.164 36.8099 41.6899 38.2805C41.2157 39.751 40.4506 41.1112 39.44 42.28ZM63.2 37.12C63.2 37.68 62.88 37.8 62.4 37.8C60.4156 37.7432 58.441 38.0972 56.6 38.84L56.08 39.08C55.5669 39.2435 55.1267 39.5803 54.8348 40.0328C54.5429 40.4853 54.4175 41.0252 54.48 41.56V56.84C54.48 57.76 54.48 57.8 53.56 57.8H47.76C46.92 57.8 46.84 57.8 46.84 56.88V36.12C46.84 34.6 46.84 33.08 46.64 31.56C46.64 31.04 46.64 30.8 47.32 30.84H52.64C52.7702 30.817 52.9038 30.8222 53.0318 30.8555C53.1597 30.8887 53.279 30.9492 53.3815 31.0327C53.484 31.1162 53.5673 31.2208 53.6257 31.3394C53.6841 31.458 53.7163 31.5878 53.72 31.72C53.72 32.52 54 33.36 54.12 34.04C55.32 33.2 56.48 32.28 57.76 31.52C59.2085 30.6915 60.8514 30.2635 62.52 30.28C63 30.28 63.24 30.28 63.24 30.96L63.2 37.12Z" fill="#CDC3C5"/>
</svg>
