<svg width="81" height="80" viewBox="0 0 81 80" fill="none" xmlns="http://www.w3.org/2000/svg">
<mask id="mask0_617_223" style="mask-type:luminance" maskUnits="userSpaceOnUse" x="0" y="0" width="81" height="80">
<path d="M0.666992 0H80.667V80H0.666992V0Z" fill="white"/>
</mask>
<g mask="url(#mask0_617_223)">
<path d="M40.3803 0C20.067 0 21.3337 8.85333 21.3337 8.85333L21.357 18.0267H40.737V20.78H13.667C13.667 20.78 0.666992 19.2967 0.666992 39.8967C0.666992 60.4967 12.0103 59.7633 12.0103 59.7633H18.777V50.2067C18.777 50.2067 18.4137 38.8067 29.9437 38.8067H49.1637C49.1637 38.8067 59.9637 38.98 59.9637 28.3133V10.6733C59.9637 10.6733 61.6037 0 40.3803 0ZM29.6937 6.16667C31.6203 6.16667 33.1803 7.73333 33.1803 9.67333C33.1803 11.61 31.6203 13.1767 29.6937 13.1767C27.767 13.1767 26.207 11.61 26.207 9.67333C26.207 7.73333 27.7637 6.16667 29.6937 6.16667Z" fill="#CDC3C5"/>
<path d="M40.9574 80C61.2641 80 59.9974 71.1466 59.9974 71.1466L59.9741 61.9733H40.5941V59.22H67.6708C67.6708 59.22 80.6708 60.7033 80.6708 40.1033C80.6708 19.5033 69.3241 20.2366 69.3241 20.2366H62.5574V29.7933C62.5574 29.7933 62.9208 41.1933 51.3908 41.1933H32.1741C32.1741 41.1933 21.3741 41.02 21.3741 51.6866V69.3266C21.3741 69.3266 19.7341 80 40.9574 80ZM51.6441 73.8333C49.7141 73.8333 48.1574 72.2666 48.1574 70.3266C48.1574 68.39 49.7141 66.8233 51.6441 66.8233C53.5708 66.8233 55.1308 68.39 55.1308 70.3266C55.1308 72.2666 53.5708 73.8333 51.6441 73.8333Z" fill="#CDC3C5"/>
</g>
</svg>
