<svg width="67" height="80" viewBox="0 0 67 80" fill="none" xmlns="http://www.w3.org/2000/svg">
<path d="M33.9881 47.7695C32.6181 48.4016 31.117 49.2252 28.1121 50.8811C26.9728 51.5246 25.7822 52.1681 24.6742 52.7744C24.5973 52.6972 24.5176 52.5999 24.4407 52.5198C18.4963 46.1422 7.50194 41.6378 7.96905 33.0724C8.1428 29.9522 9.21091 21.7614 29.0834 11.8146C45.4382 3.72104 58.452 5.96322 60.6993 10.9366C63.9292 18.0264 53.7238 31.2192 36.8335 33.1324C34.9642 33.513 33.0336 33.4669 31.1843 32.9976C29.3351 32.5283 27.6145 31.6479 26.1496 30.4212C25.2553 29.446 25.1214 29.3888 24.791 29.5833C24.247 29.8693 24.5973 30.753 24.791 31.2592C25.4353 32.4305 26.3069 33.4601 27.3543 34.2874C28.4018 35.1146 29.6037 35.7225 30.8892 36.0753C37.536 37.5178 44.466 36.8286 50.7018 34.1048C60.9385 30.1267 68.9308 19.0674 66.5895 9.79551C64.2397 0.394953 48.6995 -2.7052 33.9966 2.53989C24.7889 5.65547 16.2818 10.56 8.96026 16.9739C0.859744 24.5813 -0.421981 31.1934 0.102103 33.9618C1.98767 43.7914 15.4828 50.189 20.8946 54.9279C20.6135 55.0804 20.3676 55.2167 20.1568 55.3369C17.4567 56.6839 7.16299 62.0863 4.59669 67.8004C1.6829 74.2752 5.06381 78.9169 7.29686 79.5404C10.6621 80.3506 14.1953 80.085 17.4028 78.7805C20.6103 77.4761 23.3318 75.198 25.1869 72.2647C26.7628 69.8329 27.7305 67.0548 28.0077 64.1669C28.2849 61.2789 27.8634 58.3665 26.7791 55.6772C27.4186 55.1645 28.1009 54.7081 28.8185 54.313C30.197 53.4951 31.5101 52.6886 32.675 52.0651C36.6645 50.1914 41.0168 49.2256 45.4211 49.2366C54.6666 50.3291 56.4924 56.1205 56.142 58.56C55.9776 59.4253 55.6308 60.2453 55.1248 60.965C54.6188 61.6847 53.9653 62.2874 53.2083 62.7326C52.5674 63.1416 52.3538 63.2789 52.4108 63.5706C52.4877 63.9996 52.7981 63.9795 53.3422 63.9023C54.7313 63.4615 55.9551 62.6091 56.8528 61.4571C57.7505 60.3051 58.2802 58.9073 58.3722 57.4475C58.6571 51.7276 53.2254 45.453 43.6096 45.5102C40.7307 45.5186 37.8808 46.0887 35.2186 47.1889C34.7913 47.3663 34.3764 47.5569 33.9739 47.7609L33.9881 47.7695ZM20.2451 70.1884C17.1747 73.5431 12.9023 74.8101 11.0566 73.7376C9.06279 72.5936 9.85177 67.6316 13.62 64.0825C15.85 62.0611 18.2624 60.2525 20.8262 58.6801C21.2734 58.3941 21.9342 58.0166 22.7288 57.5361L22.9425 57.4189L23.4096 57.1329C24.0811 59.3954 24.1419 61.7965 23.5859 64.0904C23.0299 66.3843 21.877 68.4887 20.2451 70.1884Z" fill="#CDC3C5"/>
</svg>
