<svg width="81" height="98" viewBox="0 0 81 98" fill="none" xmlns="http://www.w3.org/2000/svg">
<path d="M35.9235 5.20497C48.6751 -2.91763 66.3047 0.872918 75.2308 13.6507C77.3493 16.6159 78.8547 19.9741 79.6585 23.5285C80.4624 27.0829 80.5487 30.7621 79.9122 34.3503C79.293 37.7766 77.9857 41.0419 76.0693 43.9489C78.8642 49.281 79.8031 55.3904 78.7331 61.3164C78.1028 64.8339 76.7452 68.1811 74.7472 71.1438C72.7493 74.1066 70.1549 76.6197 67.13 78.5224L44.7405 92.7937C31.9889 100.916 14.3593 97.1301 5.42883 84.3523C3.31124 81.386 1.80717 78.0268 1.00479 74.4716C0.202418 70.9163 0.117884 67.2367 0.756147 63.6484C1.3754 60.2221 2.6827 56.9568 4.5991 54.0498C1.80366 48.7182 0.864787 42.6071 1.93087 36.6822C2.56172 33.1644 3.91998 29.817 5.91872 26.8543C7.91747 23.8915 10.5127 21.3786 13.5383 19.4763L35.9235 5.20497ZM23.0802 85.0161C26.4952 86.2825 30.2115 86.466 33.7357 85.5533C35.3471 85.1209 36.8799 84.4484 38.2861 83.5532L60.68 69.2862C62.4988 68.141 64.0587 66.629 65.2603 64.847C66.4619 63.0649 67.2786 61.0519 67.6585 58.9364C68.0408 56.7788 67.9886 54.5666 67.505 52.4295C67.0213 50.2923 66.1159 48.2732 64.8417 46.4905C62.768 43.4991 59.8257 41.2165 56.4127 39.9512C52.9998 38.686 49.2806 38.4992 45.758 39.416C44.1466 39.8483 42.6138 40.5208 41.2076 41.4161L32.6614 46.8573C32.2386 47.1287 31.7759 47.332 31.2902 47.46C30.6021 47.6381 29.8855 47.6775 29.1821 47.576C28.4786 47.4745 27.8024 47.2341 27.1928 46.8687C26.5832 46.5034 26.0523 46.0204 25.6312 45.4479C25.21 44.8754 24.907 44.2248 24.7397 43.5341C24.5898 42.889 24.5749 42.22 24.696 41.5689C24.8112 40.9332 25.0569 40.3283 25.4177 39.7924C25.7785 39.2564 26.2465 38.8011 26.7922 38.4552L49.1904 24.1839C49.6132 23.9126 50.0759 23.7092 50.5617 23.5813C51.6237 23.3075 52.7441 23.3654 53.7722 23.7471C54.8004 24.1289 55.687 24.8162 56.313 25.7167C56.9986 26.6862 57.3174 27.8653 57.217 29.0444L57.1384 29.8741L57.9725 30.1274C61.1195 31.0774 64.0808 32.5588 66.7283 34.5075L67.8768 35.346L68.296 34.0577C68.5231 33.3735 68.7022 32.6777 68.8332 31.9703C69.2162 29.813 69.1647 27.6009 68.6818 25.4638C68.1989 23.3266 67.2942 21.3074 66.0208 19.5243C63.9473 16.5313 61.0046 14.2472 57.5907 12.9812C54.1768 11.7151 50.4564 11.5281 46.9327 12.4454C45.3218 12.8735 43.7869 13.5481 42.3823 14.4455L19.984 28.7125C18.1636 29.8568 16.602 31.3684 15.3989 33.1505C14.1958 34.9326 13.3777 36.9461 12.9968 39.0623C12.6145 41.2198 12.6666 43.4321 13.1503 45.5692C13.634 47.7064 14.5394 49.7255 15.8135 51.5082C17.8876 54.5005 20.8306 56.7836 24.2444 58.0489C27.6583 59.3142 31.3784 59.5005 34.9017 58.5827C36.5131 58.1504 38.0459 57.4779 39.4521 56.587L47.9939 51.137C48.4248 50.8662 48.8833 50.6668 49.3695 50.5387C50.0575 50.3624 50.7736 50.3243 51.4764 50.4267C52.1793 50.529 52.8548 50.7696 53.464 51.1347C54.0732 51.4998 54.6039 51.9821 55.0255 52.5537C55.4471 53.1253 55.7511 53.7748 55.92 54.4646C56.0685 55.1066 56.0816 55.7747 55.968 56.4254C55.8518 57.0619 55.6048 57.6672 55.2424 58.2032C54.8801 58.7392 54.4104 59.1941 53.8631 59.5391L31.4736 73.8148C31.0505 74.0846 30.5878 74.2865 30.1023 74.4131C29.0408 74.6873 27.9207 74.6301 26.8926 74.2491C25.8645 73.8682 24.9776 73.1817 24.351 72.282C23.6664 71.3142 23.3462 70.1355 23.447 68.9543L23.5213 68.1246L22.6915 67.8713C19.5445 66.9213 16.5832 65.4399 13.9357 63.4912L12.7872 62.6527L12.368 63.941C12.1461 64.6251 11.9667 65.3222 11.8308 66.0284C11.4478 68.1857 11.4993 70.3978 11.9822 72.5349C12.4652 74.6721 13.3698 76.6913 14.6432 78.4744C16.7164 81.4666 19.6584 83.7501 23.0715 85.0161" fill="#CDC3C5"/>
</svg>
