<svg width="80" height="80" viewBox="0 0 80 80" fill="none" xmlns="http://www.w3.org/2000/svg">
<path d="M39.9999 0C18.0849 0 0.337402 17.9025 0.337402 40C0.337402 62.0975 18.0849 80 39.9999 80C61.8999 80 79.6624 62.0975 79.6624 40C79.6624 17.9025 61.9024 0 39.9874 0H39.9999ZM39.9999 1.7575C50.1174 1.7575 59.6474 5.7425 66.8099 12.955C70.3465 16.5128 73.1476 20.7324 75.0535 25.3728C76.9593 30.0132 77.9325 34.9835 77.9174 40C77.9174 50.2075 73.9724 59.8175 66.8099 67.045C63.3081 70.5976 59.134 73.4174 54.531 75.3399C49.928 77.2624 44.9882 78.2491 39.9999 78.2425C35.0116 78.2491 30.0718 77.2624 25.4688 75.3399C20.8658 73.4174 16.6917 70.5976 13.1899 67.045C6.04757 59.8586 2.04831 50.132 2.0699 40C2.0699 29.7925 6.0274 20.1825 13.1774 12.955C16.6781 9.3975 20.8538 6.57462 25.4596 4.65184C30.0655 2.72905 35.0088 1.74504 39.9999 1.7575ZM38.0074 15.8325C31.5499 17.565 25.5724 20.885 17.6049 30.025C9.6374 39.165 11.1474 46.7175 11.1474 46.7175C11.1474 46.7175 13.3474 41.5225 18.6349 36.0525C21.1474 33.4625 23.0099 32.59 24.2999 32.59C24.5718 32.5761 24.8437 32.6177 25.0991 32.7121C25.3544 32.8066 25.5879 32.9521 25.7852 33.1396C25.9826 33.3272 26.1398 33.5529 26.2472 33.8031C26.3545 34.0533 26.4099 34.3227 26.4099 34.595V53.15C26.4099 54.985 25.2249 55.39 24.1324 55.3625C23.2074 55.35 22.3474 55.025 22.3474 55.025C27.7774 62.915 40.7724 64.0225 40.7724 64.0225L46.4749 57.9275L46.6049 58.045L51.8274 62.4975C61.3849 56.82 65.9949 46.3 65.9949 46.3C61.7249 50.805 59.0149 51.86 57.3999 51.86C55.9674 51.8475 55.4074 51.0125 55.4074 51.0125C55.3299 50.6225 55.1999 44.97 55.1474 39.32C55.0949 33.4725 55.1474 27.615 55.4349 27.6C57.0874 24.5 62.3499 18.25 62.3499 18.25C52.5199 20.19 47.1674 26.635 47.1674 26.635C45.5799 25.385 42.3499 25.5925 42.3499 25.5925C43.8599 26.425 45.3699 28.8475 45.3699 30.8525V50.5925C45.3699 50.5925 42.0749 53.495 39.5374 53.495C38.9627 53.5003 38.3952 53.367 37.8829 53.1063C37.3707 52.8456 36.9289 52.4653 36.5949 51.9975C36.3948 51.7325 36.2286 51.4436 36.0999 51.1375V26.7625C35.7476 27.0199 35.326 27.1654 34.8899 27.18C34.3424 27.18 33.7824 26.9075 33.4049 26.1125C33.1174 25.5125 32.9349 24.615 32.9349 23.3C32.9349 18.8075 38.0124 15.825 38.0124 15.825L38.0074 15.8325Z" fill="#B3B3B3"/>
</svg>
