<?xml version="1.0" encoding="UTF-8"?>
<svg id="Layer_1" xmlns="http://www.w3.org/2000/svg" viewBox="0 0 408.77 379.27">
  <defs>
    <style>
      .cls-1 {
        fill: #6e6e6e;
      }
    </style>
  </defs>
  <path class="cls-1" d="M263.09,206.99c1.73-.91,3.45-1.82,5.18-2.73,8.63-4.55,16.92-9.63,24.47-15.85,4.6-3.79,8.91-7.88,11.89-13.14,2.55-4.51,3.58-9.19,1.31-14.15-1.6-3.48-4.32-5.97-7.41-8.09-9.38-6.44-19.67-11.02-30.36-14.78-10.34-3.64-20.97-6.11-31.79-7.71-6.46-.95-12.97-1.5-19.5-1.82-7.87-.38-15.72-.26-23.56.34-14.19,1.08-28.24,3.1-41.95,7.1-14.89,4.35-29.47,9.56-43.48,16.26-7.6,3.64-14.99,7.66-21.49,13.09-3.42,2.85-6.51,6.02-8.48,10.11-2.58,5.37-1.39,11.32,2.75,16.14,3.84,4.48,8.91,6.7,14.2,8.7,10.29,3.89,20.89,6.66,31.71,8.61,2.15.39,2.16.38,2.14,2.5-.02,3.25-.04,6.49-.07,9.74-.02,1.71-.21,1.96-1.85,2-14.65.4-29.15-.62-43.25-4.92-7.44-2.27-14.43-5.5-20.3-10.79-3.91-3.53-6.89-7.7-8.57-12.7-1.21-3.58-2.49-7.15-2.37-11.06.19-5.98,2.12-11.36,5.21-16.4,4.32-7.04,10.15-12.66,16.64-17.66,8.62-6.66,18.08-11.9,27.9-16.53,8.69-4.09,17.54-7.79,26.69-10.75.43-.14.87-.22.84-.88-.27-5.48-.07-10.95.09-16.43.13-4.39-.09-8.78.1-13.16.34-7.63.02-15.26.32-22.89.22-5.53.13-11.06.17-16.59.01-1.28.4-2.16,1.38-3.06,5.7-5.19,11.3-10.49,16.95-15.74,5.95-5.54,11.97-11,17.83-16.62,2.79-2.68,5.68-5.26,8.45-7.97,2.3-2.24,4.69-4.43,7.09-6.59.03-.03.07-.06.11-.08.67-.43.82-1.71,1.78-1.48.66.16,1.15.96,1.73,1.47,4.16,3.63,8.4,7.17,12.46,10.92,6.95,6.4,14.19,12.46,21.19,18.81,4.39,3.98,8.93,7.8,13.37,11.73.68.6,1.59,1.15,1.52,2.31,0,.13.18.35.32.41,1.9.75,1.61,2.25,1.58,3.87-.12,5.94.09,11.89-.13,17.83-.2,5.53.01,11.06-.27,16.58-.28,5.44-.07,10.87-.23,16.31-.09,3.38-.3,6.75-.25,10.13.01,1.08.36,1.51,1.46,1.66,12.14,1.56,24.04,4.2,35.57,8.33,12.65,4.53,24.86,10.01,35.47,18.47,4.82,3.85,9.04,8.25,11.76,13.91,3.84,7.99,2.46,15.37-2.61,22.29-4.12,5.62-9.51,9.84-15.32,13.55-11.78,7.54-24.63,12.79-37.7,17.55-.16.06-.34.08-.51.12-.05-.1-.1-.19-.15-.29ZM206.49,31.85c0-1.19,0-2.38,0-3.56,0-.57-.12-1.07-.58-1.47-.83-.71-1.63-1.46-2.47-2.16-5-4.13-10-8.25-15-12.36-.37-.31-.72-.88-1.26-.65-.54.23-.36.87-.37,1.36-.08,4.43-.07,8.85-.19,13.28-.21,7.53-.09,15.07-.12,22.61,0,.82.27,1.34,1,1.77,5.83,3.5,11.63,7.04,17.44,10.56.59.36,1.03.43,1.06-.49.04-1.05.18-2.09.2-3.14.11-8.58-.15-17.17.29-25.75ZM160.51,55.36c0,.69,0,1.37,0,2.06.04,2.18,1.38,2.96,3.26,1.85,2.12-1.25,4.23-2.53,6.33-3.8,2.97-1.8,5.92-3.61,8.9-5.4.66-.4.93-.9.94-1.67.05-3.29.16-6.57.22-9.86.14-7.9-.16-15.8.26-23.7.03-.54,0-1.1-.06-1.64-.05-.38.03-.91-.45-1.06-.4-.12-.62.31-.88.55-1.11,1.02-2.2,2.06-3.3,3.09-4.66,4.37-9.33,8.73-14,13.1-.5.47-.73,1-.75,1.69-.04,1.64-.17,3.28-.19,4.92-.1,6.62.07,13.24-.29,19.86ZM160,105.54s-.09,0-.14,0c0,2.83.07,5.66-.04,8.49-.04,1.08.26,1.26,1.22,1.09,5.62-.99,11.27-1.73,16.93-2.36.7-.08,1.11-.33,1.12-1.08.08-4.51.16-9.03.23-13.54.02-1.07-.57-1.63-1.59-1.91-3.34-.93-6.66-1.9-9.99-2.87-.58-.17-1.13-.29-1.73-.03-1.63.7-3.28,1.39-4.92,2.06-.7.29-1.11.72-1.1,1.54.02,2.87,0,5.74,0,8.61ZM179.57,75.96s-.01,0-.02,0c0-.91-.14-1.85.03-2.73.29-1.51-.39-2.13-1.72-2.57-4.64-1.54-9.25-3.16-13.86-4.76-.57-.2-1.05-.12-1.57.15-1.35.71-2.26,1.62-1.99,3.33.13.85.03,1.73.02,2.6-.08,4.43-.17,8.86-.24,13.28,0,.58-.14,1.32.57,1.55,1.41.45,2.79,1.03,4.37.33,4.33-1.93,8.7-3.78,13.07-5.62.88-.37,1.32-.94,1.34-1.86.02-1.23,0-2.47,0-3.7ZM210.12,46.88c0,4.77,0,8.1,0,11.44,0,.88.15,1.19,1.08.65,2.49-1.45,5.01-2.83,7.54-4.2,3.81-2.05,7.5-4.35,11.48-6.08.61-.27.61-.73.66-1.21.05-.5-.08-.91-.66-1.03-.9-.18-1.5-.84-2.17-1.39-5.35-4.41-10.69-8.84-16.04-13.27-.35-.29-.7-.7-1.19-.54-.57.18-.41.76-.41,1.19-.04,5.29-.46,10.58-.29,14.45ZM135.5,74.62c-.27,1.37.05,1.57,1.26.9.68-.38,1.31-.83,1.98-1.23,5.05-3.03,10.11-6.05,15.15-9.08.58-.35,1.25-.67,1.21-1.51-.04-.86-.75-1.06-1.39-1.32-.42-.17-.84-.36-1.27-.51-4.97-1.69-9.94-3.37-14.91-5.08-1.89-.65-2.04-.58-2.04,1.39,0,5.48,0,10.96,0,16.43ZM155.23,41.32c.09,0,.18,0,.27,0,0-1.23.03-2.47-.01-3.7-.02-.71.37-1.78-.25-2.04-.79-.33-1.36.67-1.93,1.21-3,2.8-5.98,5.62-8.97,8.43-1.96,1.84-3.92,3.69-5.89,5.52-.71.66-.55,1.02.33,1.28,1.09.32,2.17.71,3.25,1.07,3.86,1.26,7.71,2.52,11.57,3.78,1.21.4,1.66-.08,1.65-1.31-.03-4.74-.01-9.49-.01-14.23ZM230.39,50.08c0,1.09.06,2.18-.02,3.26-.06.9-.16,1.79-1.13,2.34-5.28,3-10.54,6.04-15.81,9.06-1.15.66-1.17.82-.04,1.5,5.26,3.13,10.53,6.24,15.78,9.37.88.52,1.18.15,1.21-.68.05-1.42,0-2.84.08-4.25.38-6.85.08-13.7-.08-20.59ZM134.99,95.64c0,.41,0,.82,0,1.23,0,.46,0,.91,0,1.37.01,1.57.12,1.64,1.52,1.05,3.32-1.4,6.64-2.8,9.96-4.2,2.4-1.01,4.79-2.03,7.19-3.03.72-.3,1.09-.77,1.01-1.58-.07-.73-.53-1-1.15-1.17-5.53-1.57-11.06-3.15-16.59-4.71-1.39-.39-1.72-.2-1.7,1.19.05,3.29-.17,6.57-.25,9.86ZM134.71,115.37c0,.96,0,1.92,0,2.88,0,2.56-.01,2.54,2.42,1.9,5.22-1.36,10.47-2.55,15.77-3.56.57-.11,1.27-.05,1.44-.8.18-.81-.5-1.09-1.03-1.43-.19-.12-.4-.23-.6-.33-5.38-2.82-10.76-5.63-16.15-8.44-1.24-.65-1.6-.48-1.58.89.05,2.97-.44,5.93-.26,8.9ZM230.38,85.28c0-.37,0-.73,0-1.1,0-.41.02-.82-.01-1.23-.09-1.3-.46-1.57-1.63-1.05-4.99,2.24-9.97,4.5-14.96,6.76-.28.13-.68.2-.67.59,0,.48.48.5.8.61,4.91,1.7,9.84,3.36,14.74,5.09,1.15.41,1.51.06,1.49-1.05-.06-2.88.09-5.75.24-8.62ZM209.86,77.82h-.04c0,2.24,0,4.47,0,6.71,0,.83.28,1.21,1.17.8,4.38-2.04,8.77-4.06,13.16-6.08.84-.39.77-.79.02-1.22-4.29-2.5-8.58-5.02-12.89-7.5-1.14-.66-1.41-.48-1.43.87-.03,2.14,0,4.29,0,6.43ZM196.71,103.81h-.07c0,1.96,0,3.93,0,5.89,0,.4-.13.89.27,1.14.47.29.91-.08,1.23-.34,1.79-1.47,3.83-2.47,5.96-3.32.99-.4,1.34-1.05,1.34-2.11,0-2.51-.08-5.01.18-7.52.3-2.96-1.71-4.29-4.44-3.06-1,.45-1.98.94-2.98,1.37-1.05.45-1.54,1.17-1.51,2.34.05,1.87.01,3.74.01,5.61ZM205.94,72.25c0-.5.03-1,0-1.5-.1-1.36-.38-1.54-1.58-.85-2.1,1.19-4.16,2.45-6.25,3.66-.57.33-.87.73-.88,1.41-.03,2.55.08,5.1-.22,7.65-.09.8.17,1.42,1.02,1.7,2.03.67,4.05,1.37,6.08,2.02,1.08.34,1.59-.02,1.61-1.24.05-4.28-.17-8.57.22-12.84ZM154.93,77.99s.02,0,.04,0c0-1.69.02-3.37-.01-5.06,0-.52.26-1.21-.3-1.51-.6-.32-1.1.23-1.59.54-4.32,2.71-8.64,5.42-12.95,8.13-.3.19-.75.32-.72.74.03.52.55.54.93.64,4.36,1.14,8.73,2.25,13.09,3.42,1.13.3,1.54-.07,1.54-1.16,0-1.91,0-3.83,0-5.74ZM210.51,110.8c.12.34.32.31.49.32,6.03.13,12.04.46,18.05.99.73.06,1.01-.28,1.02-.94,0-2.24.01-4.48,0-6.72,0-.8-.47-1.04-1.18-.89-.4.08-.79.22-1.17.37-4.63,1.81-9.27,3.61-13.89,5.44-1.13.44-2.22.96-3.32,1.44ZM192.07,105.52h-.11c0-1.78.02-3.55-.01-5.33,0-.55.01-1.52-.86-1.07-1.44.75-2.68.19-3.94-.23-1.16-.39-1.43-.02-1.45,1.09-.06,3.65.17,7.3-.18,10.94-.08.81.33,1.07,1.05,1.03,1.59-.1,3.18-.2,4.77-.31.57-.04.74-.34.73-.91-.04-1.73-.01-3.46-.01-5.2ZM191.99,60.7c.12-.99-.29-1.65-1.17-2.11-1.05-.54-2.06-1.16-3.09-1.75-1.17-.67-1.43-.55-1.45.77-.03,2.09-.05,4.19-.02,6.29.07,4.73-.75,3.44,3.64,5.14,1.14.44,1.57.17,1.69-.99.26-2.45-.13-4.92.39-7.35ZM142.92,103.39c.58.28,1.04.56,1.55.75,2.79,1.01,5.59,1.99,8.38,2.99,1.45.52,1.75.34,1.79-1.25.05-1.92.02-3.84.03-5.76,0-1.88-.24-2.01-1.93-1.28-2.72,1.17-5.46,2.29-8.21,3.41-.56.23-1.08.47-1.62,1.14ZM179.79,56.71c.06-.35.22-.77-.2-.97-.37-.17-.72.05-1.02.24-2.62,1.64-5.24,3.29-7.86,4.95-.37.24-.92.45-.84.97.07.5.62.62,1.05.76,2.54.86,5.1,1.69,7.63,2.59.98.35,1.33-.04,1.22-.92-.31-2.55.2-5.08.02-7.62ZM209.54,99.75c-.05.99-.12,2.4-.2,3.81-.05.98.4,1.25,1.26.89,2.82-1.17,5.63-2.36,8.44-3.55.28-.12.67-.24.68-.6.01-.39-.4-.46-.68-.57-2.18-.81-4.36-1.61-6.54-2.41-2.89-1.06-2.96-1-2.96,2.43ZM191.58,78.74c.31-3.12.23-3.26-2.11-4.03q-3.06-1.01-3.4,2.21-.31,2.96,2.48,4.05c.3.12.59.23.89.34,2.28.86,2.52.11,2.14-1.62-.07-.3,0-.63,0-.95ZM191.73,92.22q.02-2.3-2.22-3.04c-.69-.23-1.38-.48-2.07-.7-1.46-.46-1.66-.32-1.69,1.23,0,.23,0,.46,0,.68q-.01,3.21,3.08,3.99c2.42.61,2.88.26,2.9-2.16ZM179.36,89.71c-.24-.42.48-1.67-.91-1.32-1.14.29-2.21.85-3.31,1.3-.25.1-.52.23-.46.59.05.31.29.45.56.53.7.2,1.4.41,2.11.58,1.55.39,2,.04,2.01-1.67Z"/>
  <path class="cls-1" d="M177.21,265.42c0-10.6-.13-21.21.05-31.8.11-6.08-.02-12.16.23-18.23.29-7.13-.01-14.26.25-21.39.3-8.04.03-16.09.31-24.13.24-6.99.05-13.99.28-20.98.11-3.38.16-6.76.14-10.14,0-1.28.49-1.64,1.71-1.63,12.89.16,25.78.18,38.67.44,6.4.13,12.8.04,19.19.22,2.15.06,2.25.1,2.22,2.26-.24,14.49-.48,28.97-.53,43.46,0,1.82-.15,3.65-.21,5.47-.04,1.2.38,1.51,1.55,1.26,5.27-1.09,10.29-2.91,15.14-5.19,8.93-4.2,17.22-9.45,25.08-15.39.22-.17.43-.34.67-.48.29-.17.53-.66.92-.32.27.24,0,.6-.12.88-.66,1.62-1.53,3.11-2.56,4.52-4.22,5.76-9.74,10.12-15.52,14.16-7.43,5.2-15.31,9.65-23.46,13.61-1.36.66-1.79,1.45-1.81,2.94-.13,13.85-.25,27.7-.56,41.54-.16,7.13-.07,14.26-.23,21.39-.07,3.11-.09,6.21-.22,9.32-.05,1.28.33,1.76,1.69,1.77,11.61.07,23.22.21,34.83.34,4.02.05,8.04.17,12.06.19,1.27,0,1.69.51,1.65,1.73-.07,2.33-.09,4.66-.06,6.99.02,1.17-.39,1.62-1.6,1.6-11.01-.14-22.03-.22-33.04-.35-7.63-.09-15.26-.12-22.89-.34-8.55-.24-17.1-.03-25.64-.29-7.13-.22-14.26-.07-21.39-.25-13.57-.33-27.15-.35-40.72-.59-5.39-.1-10.79-.05-16.18-.21-1.67-.05-1.8-.16-1.8-1.8,0-2.24.01-4.48.03-6.72.01-1.81.11-1.92,1.97-1.89,9.18.14,18.37.35,27.55.43,6.67.06,13.34.05,20.01.32,1.39.06,1.91-.44,1.9-1.77-.02-3.66,0-7.31,0-10.97.14,0,.29,0,.43,0Z"/>
  <path class="cls-1" d="M130.02,360.82c0-3.56.03-7.13-.02-10.69-.02-1.29.43-1.82,1.76-1.77,3.37.15,6.76-.23,10.13.27,3.55.52,5.57,2.28,6.11,5.33.56,3.15-.9,6.07-3.91,7.58-.92.47-1.06.68-.2,1.41,2.27,1.93,3.42,4.71,5.13,7.07.49.68.75,1.98,1.56,1.87.74-.1.78-1.41,1.07-2.21,2.4-6.56,4.8-13.13,7.14-19.71.42-1.17,1.04-1.72,2.3-1.61,1,.08,2.02.1,3.01,0,1.48-.16,2.23.45,2.71,1.84,2.47,7.12,5.02,14.21,7.54,21.32.57,1.61.51,1.69-1.2,1.7-1.1,0-2.19-.03-3.29,0-.87.03-1.34-.36-1.58-1.18-.31-1.1-.7-2.17-1.04-3.26-.19-.63-.5-1.02-1.26-.99-2.1.07-4.2.11-6.3.09-.98,0-1.53.35-1.78,1.31-.25.97-.62,1.91-.88,2.88-.23.87-.72,1.32-1.65,1.31-3.29-.06-6.58.12-9.86-.1-.83-.06-1.33-.37-1.74-1.07-1.28-2.16-2.58-4.31-3.93-6.44-.59-.93-1.3-1.76-2.54-1.88-1.07-.1-1.48.32-1.45,1.4.05,2.15-.03,4.3.03,6.44.03,1.14-.41,1.58-1.53,1.51-.91-.06-1.83-.07-2.74,0-1.2.1-1.62-.41-1.6-1.58.04-3.61.02-7.22.02-10.83ZM136.07,356.09c0,.68,0,1.36,0,2.04,0,.5.17.93.74.97,1.09.07,2.18.18,3.22-.29,1.31-.59,2-2.1,1.7-3.66-.24-1.23-1.21-1.97-2.68-2.05q-2.99-.16-2.97,2.99ZM162.79,355.1l-.36.03c-.44,1.33-.9,2.66-1.32,4q-1.31,4.14,3.05,3.86c.14,0,.27-.01.41-.02.49-.04.63-.33.49-.76-.75-2.37-1.51-4.74-2.27-7.11Z"/>
  <path class="cls-1" d="M88.62,359.09c1.38-2.06,2.74-4.08,4.09-6.11.08-.11.14-.23.21-.35q2.8-4.41,8.02-4.24c.39.01.88-.15,1.11.31.23.45-.17.76-.41,1.08-2.27,3.1-4.51,6.21-6.82,9.28-.65.86-.73,1.49-.05,2.4,2.44,3.25,4.79,6.58,7.18,9.87.23.31.38.83.88.73.48-.1.48-.62.61-.99,2.57-7.04,5.16-14.07,7.68-21.13.4-1.13.99-1.63,2.2-1.57,1.32.07,2.65.03,3.98.02.8,0,1.25.34,1.52,1.1,2.64,7.45,5.29,14.9,7.96,22.34.38,1.05.05,1.44-1.02,1.41-1.23-.03-2.47-.03-3.7,0-.76.02-1.19-.31-1.41-1.02-.31-1-.69-1.99-.97-3-.26-.93-.77-1.34-1.77-1.33-2.05.01-4.11.12-6.16-.11-.76-.09-1.19.26-1.41.99-.34,1.14-.74,2.26-1.07,3.4-.23.83-.74,1.22-1.58,1.21-3.43-.03-6.85-.06-10.28-.07-1.02,0-1.67-.45-2.22-1.3-1.9-2.91-3.87-5.77-5.82-8.64-.22-.32-.31-.78-.81-.87-.39.39-.18.87-.19,1.29-.02,2.65-.04,5.3,0,7.95.02,1.14-.43,1.57-1.54,1.5-1-.06-2.01-.04-3.02,0-.94.03-1.33-.41-1.33-1.31.02-7.4.03-14.81.04-22.21,0-.92.44-1.33,1.35-1.32.96.01,1.92.04,2.88,0,1.18-.06,1.64.46,1.62,1.63-.04,2.65-.02,5.3,0,7.95,0,.34-.17.72.24,1.14ZM115.06,355.08h-.32c-.76,2.37-1.52,4.74-2.27,7.11-.22.68.24.79.74.79,1.09.01,2.19-.01,3.28.02.85.02,1.04-.37.8-1.11-.31-.95-.62-1.91-.93-2.86-.43-1.31-.87-2.63-1.31-3.94Z"/>
  <path class="cls-1" d="M311.91,365.48c1.08-3.15,2.12-6.19,3.17-9.24.74-2.16,1.52-4.31,2.23-6.48.31-.96.82-1.43,1.88-1.4,1.78.06,3.56.04,5.35,0,.98-.02,1.42.35,1.42,1.36-.02,7.4-.02,14.81,0,22.21,0,.95-.41,1.32-1.33,1.29-1.05-.03-2.1-.05-3.15,0-1.04.05-1.37-.44-1.36-1.4.03-5.03.05-10.05.06-15.08,0-.18,0-.35,0-.67-.59.32-.61.86-.75,1.28-1.67,4.79-3.35,9.57-4.95,14.39-.39,1.17-1.01,1.54-2.19,1.5-3.58-.12-2.87.46-4.07-2.89-1.71-4.76-3.4-9.53-5.37-14.28,0,1.97,0,3.94,0,5.91,0,3.2-.03,6.4.02,9.6.02,1.23-.38,1.7-1.66,1.66-4.08-.12-3.59.57-3.6-3.55-.02-6.49,0-12.98,0-19.47,0-1.76.09-1.84,1.88-1.85,1.65,0,3.29.05,4.93-.02,1.16-.05,1.71.42,2.07,1.51,1.67,5.08,3.41,10.13,5.13,15.19.04.11.14.2.3.42Z"/>
  <path class="cls-1" d="M71.34,364.39c.38-.72.24-1.28.24-1.81.01-4.16.04-8.32-.01-12.48-.02-1.31.46-1.78,1.77-1.75,4.39.1,3.78-.54,3.8,3.78.03,6.4,0,12.8,0,19.2,0,1.83-.05,1.87-1.81,1.89-4.11.03-4.08.01-6.34-3.49-2.6-4.03-5.26-8.03-7.9-12.03-.17-.26-.38-.49-.63-.8-.47.46-.3.98-.3,1.43-.02,4.39-.04,8.78.01,13.16.02,1.29-.37,1.79-1.72,1.75-4.31-.12-3.67.54-3.69-3.72-.03-6.44-.01-12.89,0-19.33,0-1.71.12-1.61,1.76-1.84,3.15-.44,5.11.68,6.68,3.52,2.16,3.91,4.81,7.55,7.26,11.3.25.38.52.74.87,1.24Z"/>
  <path class="cls-1" d="M381.79,360.7c0-3.56.04-7.12-.02-10.68-.02-1.25.4-1.71,1.67-1.66,3.42.14,6.84-.14,10.26.25,6.28.71,9.97,4.69,10.16,11,.1,3.24-.42,6.3-2.48,8.91-2.45,3.1-5.73,4.6-9.64,4.69-2.74.06-5.48-.04-8.22.04-1.3.04-1.78-.39-1.75-1.72.06-3.61.02-7.21.02-10.82ZM387.74,360.89s.06,0,.09,0c0,1.55,0,3.1,0,4.65q0,3.02,3.03,2.84c3.86-.23,6.34-2.77,6.78-6.95.42-3.94-1.55-6.91-5.24-7.86-1.25-.33-2.54-.18-3.81-.19-.73,0-.87.42-.86,1.08.04,2.14.01,4.29.01,6.43Z"/>
  <path class="cls-1" d="M26.51,361.18c.03-4.94,1.63-9.12,6.16-11.58,6.91-3.74,17.29-.99,18.12,9.84.22,2.91-.17,5.75-1.63,8.35-2.71,4.83-8.22,7.04-13.92,5.61-5.09-1.28-8.61-5.82-8.74-11.27,0-.32,0-.64,0-.96ZM38.58,353.36c-2.25-.22-3.92,1.07-4.91,3.13-1.26,2.6-1.39,5.38-.36,8.11,1.01,2.7,3.31,4.25,5.73,4,2.84-.29,4.75-2.09,5.29-5.06.38-2.09.26-4.18-.28-6.23-.67-2.54-2.58-3.93-5.47-3.95Z"/>
  <path class="cls-1" d="M234.79,356.95c0-2.33.03-4.66-.01-6.99-.02-1.19.47-1.66,1.63-1.6.96.05,1.92.04,2.88,0,.91-.03,1.35.34,1.35,1.28-.03,4.84.11,9.69-.11,14.52-.17,3.66-1.44,7.02-5.18,8.53-3.95,1.6-7.99,1.66-11.67-.8-2.85-1.91-3.59-4.99-3.67-8.18-.11-4.61-.01-9.22-.04-13.84,0-1.14.5-1.53,1.58-1.51,4.9.1,4.21-.72,4.26,4.15.04,3.47,0,6.94.02,10.41,0,.72.06,1.47.22,2.17.58,2.56,2.1,3.7,4.59,3.54,2.42-.16,3.92-1.57,4.06-4.16.14-2.5.03-5.02.03-7.53.02,0,.05,0,.07,0Z"/>
  <path class="cls-1" d="M186.6,348.09c1.68-.04,3.25.18,4.81.58.84.21,1.24.67,1.22,1.55-.03.96-.02,1.92,0,2.88.02.93-.34,1.12-1.18.73-1.94-.9-3.97-1.38-6.12-.98-1.16.22-2.3.56-2.57,1.9-.28,1.38.73,2.06,1.74,2.65,1.86,1.09,3.95,1.68,5.77,2.85,2.85,1.84,4.05,4.85,3.21,8.05-.67,2.56-2.42,4.05-4.83,4.79-3.51,1.06-7.03.88-10.54-.12-1.03-.29-1.55-.85-1.48-1.96.06-.91,0-1.83.02-2.74.02-1.44.14-1.52,1.34-.76,1.75,1.11,3.65,1.65,5.71,1.68.79.01,1.55-.16,2.28-.43,1.83-.69,2.15-2.47.68-3.78-.72-.64-1.6-1.05-2.48-1.45-1.5-.67-3.04-1.25-4.41-2.18-2.49-1.69-3.52-4.04-3.11-6.96.4-2.89,2.27-4.6,4.9-5.54,1.65-.59,3.37-.84,5.06-.76Z"/>
  <path class="cls-1" d="M370.51,373.21c-1.96,0-3.93-.04-5.89.02-1.1.03-1.55-.34-1.55-1.49.03-7.31.03-14.62,0-21.93,0-1.09.46-1.45,1.48-1.44,3.84.02,7.68.02,11.51,0,1.05,0,1.47.43,1.46,1.48-.04,3.75.32,3.3-3.14,3.32-1.42,0-2.83.03-4.25,0-.89-.02-1.23.37-1.22,1.23.05,4.7-.54,3.86,3.74,3.94.37,0,.73,0,1.1,0,3.32,0,3.73.52,3.19,3.88-.14.85-.67,1.01-1.36,1.01-1.74.01-3.47.04-5.21,0-1.04-.03-1.49.36-1.47,1.43.08,4.49-.51,3.73,3.61,3.8,1.42.02,2.83.02,4.25.01.9,0,1.31.39,1.3,1.33-.03,3.94.33,3.37-3.18,3.41-1.46.02-2.92,0-4.39,0Z"/>
  <path class="cls-1" d="M17.99,373.77c-5.54.04-9.64-1.67-11.78-6.38-3.72-8.19.59-19.34,11.99-19.32,1.7,0,3.37.15,5.02.57.83.21,1.26.66,1.24,1.54-.02.96-.02,1.92,0,2.88.03,1.06-.27,1.43-1.37.93-2.06-.94-4.25-1.1-6.44-.64-3.7.78-5.89,4.19-5.59,8.28.46,6.25,5.59,8.33,11.33,6.4.3-.1.59-.25.88-.39.71-.33,1.16-.21,1.17.67,0,1.05,0,2.1,0,3.15,0,.9-.6,1.26-1.35,1.5-1.85.58-3.74.85-5.11.8Z"/>
  <path class="cls-1" d="M171.49,161.93c0,4.75-.03,9.5.02,14.25.02,1.33-.46,1.77-1.76,1.72-2.42-.1-4.84-.08-7.27-.08-.91,0-1.44-.23-1.42-1.33.09-5.3.11-10.6.16-15.9.02-1.74.07-3.47.06-5.21,0-.95.33-1.45,1.36-1.44,2.56.03,5.12.04,7.68.02,1.05,0,1.46.49,1.44,1.52-.04,2.15-.01,4.3-.01,6.44-.09,0-.18,0-.27,0Z"/>
  <path class="cls-1" d="M165.92,211.61c0,3.29,0,6.58,0,9.87,0,2.1-.13,2.22-2.28,2.21-2.15,0-4.29-.04-6.44-.02-1.25,0-1.79-.48-1.76-1.81.13-6.89.21-13.79.28-20.69.01-1.05.43-1.49,1.48-1.47,2.42.04,4.84.04,7.26.04,1.18,0,1.66.41,1.62,1.72-.11,3.38-.04,6.76-.04,10.14-.04,0-.08,0-.12,0Z"/>
  <path class="cls-1" d="M147.83,211.97c0,3.33,0,6.66,0,9.99,0,1.81-.21,2-2.06,2-2.28,0-4.56-.04-6.84-.01-1.08.01-1.58-.38-1.56-1.52.11-7.02.19-14.05.27-21.07.01-.9.38-1.34,1.32-1.33,2.55.03,5.11.03,7.67.04.91,0,1.43.3,1.42,1.37-.04,3.51-.02,7.02-.02,10.54-.06,0-.12,0-.19,0Z"/>
  <path class="cls-1" d="M139.29,176.43c0-5.34.02-10.69-.02-16.03,0-1.16.38-1.65,1.59-1.61,2.37.07,4.75.09,7.13.02,1.32-.04,1.82.45,1.75,1.76-.32,5.84-.13,11.69-.23,17.54-.02,1.1-.01,2.19-.02,3.29,0,.9-.47,1.34-1.36,1.32-2.69-.06-5.39-.12-8.08-.18-.88-.02-1.03-.61-1.03-1.31,0-1.6,0-3.2,0-4.8.09,0,.18,0,.27,0Z"/>
  <path class="cls-1" d="M347.19,363.25c0-2.79-.08-5.58.03-8.36.05-1.43-.45-1.86-1.81-1.74-1.22.1-2.47,0-3.7.03-.96.03-1.43-.32-1.41-1.34.06-3.95-.42-3.43,3.27-3.45,4.93-.02,9.87.03,14.8-.03,1.3-.01,1.79.43,1.79,1.74,0,3.08.06,3.08-3.04,3.07-.87,0-1.74.05-2.6-.01-1.16-.09-1.48.4-1.47,1.52.05,5.48.04,10.96.04,16.44,0,2.09,0,2.09-2.15,2.1-.73,0-1.47-.05-2.19.01-1.22.1-1.59-.46-1.57-1.62.05-2.79.02-5.57.02-8.36Z"/>
  <path class="cls-1" d="M268.46,360.67c0-3.56.03-7.12-.02-10.68-.02-1.17.39-1.69,1.58-1.63.91.05,1.83.06,2.74,0,1.26-.08,1.54.61,1.53,1.7-.02,5.39,0,10.78,0,16.16q0,2.24,2.28,2.24c1.78,0,3.56.02,5.34,0,.99-.01,1.52.31,1.51,1.42-.04,3.92.3,3.29-3.25,3.33-3.38.03-6.76-.03-10.14.03-1.2.02-1.61-.42-1.59-1.6.05-3.65.02-7.3.02-10.96Z"/>
  <path class="cls-1" d="M245.6,348.39c1.74-.4,2.72.53,3.62,1.85,5.65,8.28,5.66,18.99-.03,26.84-1.23,1.7-3.16,2.36-5.13,1.79-.57-.16-.62-.46-.33-.9.33-.49.7-.96,1-1.47,5.13-8.73,4.91-17.41-.21-26.06-.34-.57-1.2-1.1-.9-1.72.36-.74,1.33-.19,1.99-.33Z"/>
  <path class="cls-1" d="M214.59,378.9c-1.37.32-2.32-.52-3.21-1.71-5.87-7.89-5.61-20.28.63-27.85.68-.83,3.63-1.4,4.58-.88.66.37.21.78-.01,1.13-1.3,2-2.46,4.06-3.18,6.34-2.34,7.46-1.49,14.5,2.75,21.1.32.5,1.14.94.74,1.61-.31.52-1.1.2-1.68.26-.14.01-.27,0-.63,0Z"/>
  <path class="cls-1" d="M292.19,360.77c0,3.52,0,7.03,0,10.55,0,1.86-.03,1.88-1.94,1.89-.82,0-1.65-.05-2.47.01-1.1.08-1.43-.44-1.43-1.46.02-7.26.02-14.52,0-21.78,0-1.16.43-1.69,1.62-1.61.82.05,1.65.06,2.46,0,1.29-.1,1.8.4,1.78,1.73-.06,3.56-.02,7.12-.02,10.69Z"/>
  <path class="cls-1" d="M337.12,360.89c0,3.56-.03,7.12.02,10.68.02,1.22-.37,1.78-1.66,1.66-.95-.09-1.92-.04-2.87-.01-.92.03-1.33-.35-1.33-1.29.01-7.4.01-14.79,0-22.19,0-1,.5-1.39,1.45-1.37.96.02,1.92.04,2.88,0,1.15-.06,1.53.49,1.52,1.57-.03,3.65,0,7.3,0,10.96Z"/>
</svg>