<?xml version="1.0" encoding="UTF-8"?>
<svg id="Layer_1" xmlns="http://www.w3.org/2000/svg" viewBox="0 0 850.09 388.5">
  <defs>
    <style>
      .cls-1 {
        fill: #6e6e6e;
      }
    </style>
  </defs>
  <path class="cls-1" d="M526.37,80.97l-16.11-76.35-48.91,59.64-75.34-7.78,39.87,66.48-43.48,105.49-23.87,57.9-28.28,68.6,47.11-58.91,38.64-48.32,55.54-69.46,53.92,49.63,5.62-77.93,65.38-39.39-70.08-29.59ZM518.17,141.65l-4.12,57.13-44.01-40.49-66.81,83.56-24.22,30.27,14.74-35.74,47.24-114.61-29.2-48.67,55.24,5.71,35.86-43.73,11.82,55.98,51.38,21.69-47.94,28.9Z"/>
  <path class="cls-1" d="M48.36,303.17l-24.64-43.51-.25,43.52H7.59v-86.05h15.88v39.2l24.86-39.22,16.3.02-26.89,39.77,28.39,46.28h-17.76Z"/>
  <path class="cls-1" d="M95.26,304.42c-9.09,0-15.95-1.77-20.58-5.31s-6.94-8.61-6.94-15.2c0-8.17,3.29-14.07,9.88-17.7,6.59-3.63,15.84-6.02,27.76-7.19v-3.63c0-4.08-1.15-6.96-3.44-8.63-2.3-1.67-5.62-2.5-9.97-2.5-3.1,0-6.02.36-8.77,1.07-2.76.71-5.48,1.73-8.15,3.06l-3.5-8.75c2.92-1.42,6.28-2.63,10.08-3.63,3.8-1,8.16-1.5,13.09-1.5,7.6,0,13.65,1.81,18.16,5.44s6.77,9.57,6.77,17.82v41.78c-2.76,1.42-6.23,2.59-10.44,3.5s-8.86,1.37-13.94,1.37ZM105.38,266.27c-8.04,1-13.96,2.67-17.72,5-3.78,2.34-5.66,6.38-5.66,12.13,0,4.25,1.21,7.4,3.65,9.44,2.43,2.04,5.95,3.06,10.56,3.06,3.6,0,6.66-.62,9.17-1.87v-27.77Z"/>
  <path class="cls-1" d="M206.69,303.17v-48c0-3.26-.92-5.91-2.76-7.96s-4.71-3.07-8.63-3.07c-4.42,0-8.18,1.55-11.26,4.64v54.4h-15.26v-48.28c0-3.33-1.08-5.96-3.25-7.88-2.17-1.92-5.3-2.88-9.38-2.88-3.67,0-7,.63-10.01,1.88v57.16h-15.26v-63.79c3.42-1.67,7.13-2.9,11.13-3.69,4-.79,8.72-1.19,14.14-1.19s9.52.62,12.82,1.88c3.3,1.25,6.02,3.08,8.19,5.5,2.51-2.25,5.5-4.05,9.01-5.38s7.71-2,12.63-2c7.59,0,13.34,1.98,17.26,5.94,3.92,3.96,5.88,8.86,5.88,14.7v48.03h-15.25Z"/>
  <path class="cls-1" d="M255.09,329.94h-16.14l11.01-26.85-22.26-67.33h16.26l11.64,43.65c.58,2.34.94,4.36,1.06,6.07.12,1.71.23,2.9.31,3.56.25-1.08.5-2.39.76-3.94.25-1.54.7-3.44,1.37-5.69l12.54-43.64h14.22s-30.77,94.17-30.77,94.17Z"/>
  <path class="cls-1" d="M301.87,252.39h-7.75l-3.01-33.14c1.67-2.25,3.96-3.38,6.88-3.38s5.25,1.12,7,3.38l-3.13,33.14Z"/>
  <path class="cls-1" d="M330.51,304.3c-3.84,0-7.36-.43-10.57-1.3-3.21-.86-5.9-2.04-8.06-3.52l4-9.81c1.26,1.03,3.03,1.96,5.32,2.78,2.3.82,4.73,1.22,7.32,1.22,3.08,0,5.58-.88,7.5-2.63,1.92-1.76,2.87-4.05,2.87-6.89s-.73-5.16-2.19-6.71c-1.46-1.54-4.59-3.24-9.38-5.08-4.8-1.84-8.27-4.32-10.44-7.46-2.17-3.13-3.25-6.75-3.25-10.84,0-5.43,1.98-10.05,5.94-13.85,3.96-3.8,9.11-5.7,15.45-5.7,3.66,0,6.92.4,9.75,1.19,2.84.79,5.42,1.98,7.76,3.57l-3.75,8.88c-1.25-1-2.77-1.88-4.57-2.63-1.79-.75-3.86-1.13-6.19-1.13-3,0-5.36.86-7.06,2.56-1.71,1.71-2.56,3.82-2.56,6.32s.83,4.67,2.5,6.25c1.67,1.59,4.88,3.33,9.63,5.25s8.27,4.46,10.57,7.63c2.29,3.17,3.44,6.96,3.44,11.38,0,5.75-2.19,10.61-6.57,14.57-4.38,3.96-10.19,5.94-17.45,5.94Z"/>
  <path class="cls-1" d="M467.63,305.54c-10.89,0-19.25-1.67-25.07-5.02v-81.01c3-1.54,6.56-2.77,10.67-3.66,4.12-.9,8.62-1.35,13.51-1.35,12.94,0,22.57,4.01,28.87,12.02,6.3,8.02,9.45,18.97,9.45,32.86s-3.05,25.27-9.13,33.62c-6.09,8.36-15.52,12.54-28.29,12.54ZM467.11,225.17c-3.35,0-6.13.43-8.36,1.29v66.48c1.03.34,2.27.64,3.73.9,1.45.26,3.08.39,4.89.39,7.45,0,12.83-2.8,16.14-8.42,3.3-5.61,4.95-14.51,4.95-26.68s-1.69-20.23-5.07-25.72c-3.39-5.49-8.81-8.23-16.27-8.23Z"/>
  <path class="cls-1" d="M526.91,275.32c1.28,12.86,7.59,19.29,18.9,19.29,3.77,0,7.07-.34,9.9-1.03,2.82-.68,5.36-1.63,7.59-2.83l3.73,9.9c-2.66,1.46-5.85,2.64-9.58,3.54-3.73.9-8.17,1.35-13.31,1.35-9.95,0-17.79-3.13-23.53-9.39-5.74-6.26-8.61-15.17-8.61-26.75s2.64-19.99,7.9-26.3c5.27-6.3,12.5-9.45,21.67-9.45s16.1,2.98,20.77,8.94c4.67,5.96,7.01,14.81,7.01,26.55l-42.44,6.17ZM541.06,243.3c-4.72,0-8.4,2-11.06,5.99-2.65,3.99-3.98,10.03-3.98,18.1l28.67-4.43c0-6.77-1.18-11.74-3.53-14.91-2.36-3.17-5.73-4.76-10.09-4.76Z"/>
  <path class="cls-1" d="M579.11,304.25v-100.95h15.69v100.95h-15.69Z"/>
  <path class="cls-1" d="M615.38,222.98c-2.4,0-4.43-.75-6.11-2.25s-2.51-3.32-2.51-5.47.84-4.09,2.51-5.59,3.71-2.25,6.11-2.25,4.54.73,6.17,2.19c1.63,1.46,2.44,3.35,2.44,5.66,0,2.14-.83,3.97-2.51,5.47s-3.71,2.25-6.11,2.25ZM607.54,304.25v-69.31h15.68v69.31h-15.68Z"/>
  <path class="cls-1" d="M660.39,333.19c-5.06,0-9.63-.42-13.7-1.27-4.07-.85-7.39-2.03-9.97-3.56l4.37-10.34c2.06,1.15,4.59,2.14,7.59,2.98,3.01.84,6,1.26,9,1.26,5.57,0,9.63-1.36,12.15-4.08,2.53-2.72,3.8-6.59,3.8-11.59v-4.39c-3.01,1.72-7.33,2.57-12.98,2.57-8.4,0-15.16-3.02-20.26-9.05-5.1-6.03-7.65-14.27-7.65-24.71,0-11.55,2.85-20.66,8.55-27.34,5.7-6.67,14.04-10.01,25.01-10.01,4.89,0,9.28.45,13.18,1.35,3.9.9,7.01,2.12,9.32,3.66v66.52c0,9.07-2.53,16.01-7.59,20.81-5.06,4.79-12,7.19-20.83,7.19ZM673.63,244.46c-1.8-1.02-4.5-1.54-8.1-1.54-5.92,0-10.27,2.35-13.05,7.06-2.79,4.7-4.18,11.46-4.18,20.27s1.3,14.92,3.92,19.11,6.79,6.28,12.54,6.28c3.42,0,6.38-.73,8.87-2.18v-49Z"/>
  <path class="cls-1" d="M739.34,304.25v-48.63c0-3.42-.94-6.22-2.83-8.4s-5.02-3.27-9.39-3.27-7.88.94-11.06,2.82v57.49h-15.69v-100.95h15.69v34.59c5.06-2.4,10.2-3.6,15.43-3.6,8.06,0,14,1.99,17.82,5.97,3.81,3.98,5.72,8.96,5.72,14.95v49.03h-15.68Z"/>
  <path class="cls-1" d="M789.62,305.02c-6.43,0-11.21-1.8-14.34-5.4s-4.69-8.06-4.69-13.37v-41.28h-7.72v-10.03h7.72v-15.33l15.68-4.38v19.71h11.32v10.03h-11.32v40.51c0,6,2.53,9,7.59,9,1.03,0,2.27-.22,3.73-.65v9.78c-.69.34-1.78.66-3.28.96-1.5.3-3.06.45-4.69.45Z"/>
  <path class="cls-1" d="M820.48,305.41c-3.95,0-7.57-.45-10.87-1.34-3.3-.89-6.07-2.1-8.29-3.62l4.12-10.09c1.28,1.06,3.1,2.02,5.46,2.86s4.86,1.26,7.52,1.26c3.17,0,5.75-.9,7.72-2.71,1.97-1.8,2.96-4.17,2.96-7.09s-.75-5.3-2.25-6.89-4.72-3.33-9.65-5.22c-4.93-1.89-8.51-4.44-10.74-7.67-2.23-3.22-3.35-6.94-3.35-11.15,0-5.58,2.04-10.33,6.11-14.24,4.07-3.91,9.37-5.86,15.89-5.86,3.77,0,7.11.41,10.03,1.22,2.91.82,5.57,2.04,7.97,3.66l-3.86,9.13c-1.28-1.03-2.85-1.93-4.69-2.7-1.85-.77-3.97-1.16-6.37-1.16-3.08,0-5.5.88-7.26,2.63-1.76,1.76-2.64,3.92-2.64,6.5s.85,4.8,2.57,6.43c1.71,1.63,5.02,3.43,9.9,5.4,4.89,1.97,8.51,4.59,10.87,7.85,2.35,3.26,3.53,7.16,3.53,11.7,0,5.92-2.25,10.91-6.75,14.98-4.5,4.07-10.49,6.11-17.94,6.11Z"/>
  <path class="cls-1" d="M93.58,384.21v1.53h-12.39v-22.01h12.04v1.51h-10.46v8.32h9.64v1.48h-9.64v9.17h10.81Z"/>
  <path class="cls-1" d="M121.99,385.74l-7.06-10.26-7.04,10.26h-1.83l7.88-11.51-7.23-10.5h1.8l6.41,9.31,6.4-9.31h1.81l-7.22,10.55,7.88,11.46h-1.81Z"/>
  <path class="cls-1" d="M135.58,374.75c0-6.59,4.7-11.35,11.24-11.35,4.93,0,8.81,2.78,10.24,7.22h-1.63c-1.37-3.54-4.54-5.66-8.61-5.66-5.59,0-9.63,4.08-9.63,9.8s4.02,9.76,9.63,9.76c4.18,0,7.41-2.25,8.77-6.03h1.62c-1.42,4.69-5.34,7.58-10.38,7.58-6.56,0-11.24-4.73-11.24-11.32Z"/>
  <path class="cls-1" d="M184.67,384.21v1.53h-12.39v-22.01h12.04v1.51h-10.46v8.32h9.64v1.48h-9.64v9.17h10.81Z"/>
  <path class="cls-1" d="M212.06,384.24v1.5h-11.99v-22.01h1.58v20.52h10.41Z"/>
  <path class="cls-1" d="M238.65,384.24v1.5h-11.99v-22.01h1.58v20.52h10.41Z"/>
  <path class="cls-1" d="M265.64,384.21v1.53h-12.39v-22.01h12.04v1.51h-10.46v8.32h9.64v1.48h-9.64v9.17h10.81Z"/>
  <path class="cls-1" d="M297.99,363.72v22.01h-1.35l-14.04-19.22v19.22h-1.55v-22.01h1.44l13.95,19.13v-19.13h1.56Z"/>
  <path class="cls-1" d="M313.54,374.75c0-6.59,4.7-11.35,11.24-11.35,4.93,0,8.81,2.78,10.24,7.22h-1.63c-1.37-3.54-4.54-5.66-8.61-5.66-5.59,0-9.63,4.08-9.63,9.8s4.02,9.76,9.63,9.76c4.18,0,7.41-2.25,8.77-6.03h1.62c-1.42,4.69-5.34,7.58-10.38,7.58-6.56,0-11.24-4.73-11.24-11.32Z"/>
  <path class="cls-1" d="M362.63,384.21v1.53h-12.39v-22.01h12.04v1.51h-10.46v8.32h9.64v1.48h-9.64v9.17h10.81Z"/>
  <path class="cls-1" d="M409.7,379.72h-11.63l-2.53,6.02h-1.69l9.23-22.01h1.43l9.49,22.01h-1.72l-2.57-6.02ZM398.68,378.25h10.4l-5.26-12.3-5.14,12.3Z"/>
  <path class="cls-1" d="M439.59,365.22h-7.02v20.51h-1.58v-20.51h-7.02v-1.5h15.63v1.5Z"/>
  <path class="cls-1" d="M484.52,365.22h-7.02v20.51h-1.58v-20.51h-7.02v-1.5h15.63v1.5Z"/>
  <path class="cls-1" d="M515.49,363.72v22.01h-1.58v-10.67h-13.22v10.67h-1.58v-22.01h1.58v9.82h13.22v-9.82h1.58Z"/>
  <path class="cls-1" d="M545.03,384.21v1.53h-12.39v-22.01h12.04v1.51h-10.46v8.32h9.64v1.48h-9.64v9.17h10.81Z"/>
  <path class="cls-1" d="M577.87,374.74c0-6.59,4.8-11.41,11.32-11.41,5.21,0,9.38,3.24,10.53,8.2h-3.66c-1.05-2.93-3.62-4.71-6.88-4.71-4.41,0-7.64,3.32-7.64,7.91s3.23,7.89,7.64,7.89c3.36,0,5.96-1.9,6.95-5.02h3.66c-1.15,5.17-5.32,8.52-10.62,8.52-6.52,0-11.32-4.82-11.32-11.39Z"/>
  <path class="cls-1" d="M627.38,382.32v3.41h-13.12v-22.01h12.78v3.38h-9.17v5.75h8.36v3.31h-8.36v6.16h9.51Z"/>
  <path class="cls-1" d="M660.4,363.72v22.01h-3.03l-11.44-15.72v15.72h-3.54v-22.01h3.26l11.2,15.46v-15.46h3.55Z"/>
  <path class="cls-1" d="M691.03,367.09h-6.45v18.64h-3.62v-18.64h-6.45v-3.37h16.52v3.37Z"/>
  <path class="cls-1" d="M712.94,377.59h-4.18v8.15h-3.61v-22.01h8.56c4.25,0,7.4,2.9,7.4,6.96,0,3-1.78,5.4-4.48,6.4l5.09,8.65h-4.05l-4.73-8.15ZM708.76,374.21h4.75c2.39,0,3.94-1.48,3.94-3.55s-1.54-3.55-3.94-3.55h-4.75v7.1Z"/>
  <path class="cls-1" d="M749.39,382.32v3.41h-13.12v-22.01h12.78v3.38h-9.17v5.75h8.36v3.31h-8.36v6.16h9.51Z"/>
</svg>