<svg width="143" height="51" viewBox="0 0 143 51" fill="none" xmlns="http://www.w3.org/2000/svg">
<g clip-path="url(#clip0_457_334)">
<path d="M139.68 41.4147H2.44873V42.2861H139.68V41.4147Z" fill="#6E6E6E"/>
<path d="M48.5096 8.06428C54.7332 5.64023 83.2931 -7.49397 119.044 12.9282C119.044 12.9282 20.1058 1.34666 0 18.8061C0 18.8061 13.3986 11.7875 33.5044 11.4706C53.6102 11.1537 77.709 12.643 84.7281 13.5144C91.7472 14.3858 127.654 19.6617 132.926 18.315C138.198 16.9683 143.298 16.1603 142.986 9.68031C142.986 9.68031 137.886 13.4035 127.825 10.821C117.765 8.23856 96.0678 1.58432 94.7888 1.42588C89.8575 0.476051 84.8494 -0.00134757 79.8303 -2.77887e-05C70.7991 -2.77887e-05 59.0538 1.58432 48.5096 8.06428Z" fill="#6D6D6D"/>
<path d="M99.7801 7.73159C99.7489 9.25256 98.657 10.1081 98.5322 10.219C99.5929 9.44268 114.38 11.5182 114.38 11.5182C112.461 10.3299 98.5322 5.14911 98.5322 5.14911C98.6414 5.22833 99.8113 6.16309 99.7801 7.73159Z" fill="#6D6D6D"/>
<path d="M1.5755 50.9842H0.998373C0.974092 50.9825 0.95123 50.972 0.934022 50.9545C0.916814 50.937 0.906428 50.9138 0.904785 50.8891V46.7381C0.906428 46.7135 0.916814 46.6902 0.934022 46.6728C0.95123 46.6553 0.974092 46.6447 0.998373 46.6431H1.5755C1.60581 46.6428 1.63574 46.6499 1.66285 46.6637C1.68996 46.6774 1.71348 46.6975 1.73148 46.7223L4.02438 49.7801C4.02982 49.7874 4.03689 49.7934 4.04501 49.7976C4.05313 49.8017 4.06209 49.8038 4.07117 49.8038C4.08025 49.8038 4.08921 49.8017 4.09733 49.7976C4.10545 49.7934 4.11251 49.7874 4.11796 49.7801L6.41086 46.7223C6.42886 46.6975 6.45238 46.6774 6.47949 46.6637C6.5066 46.6499 6.53653 46.6428 6.56684 46.6431H7.14397C7.16825 46.6447 7.19111 46.6553 7.20832 46.6728C7.22552 46.6902 7.23591 46.7135 7.23755 46.7381V50.8891C7.23591 50.9138 7.22552 50.937 7.20832 50.9545C7.19111 50.972 7.16825 50.9825 7.14397 50.9842H6.56684C6.54256 50.9825 6.5197 50.972 6.50249 50.9545C6.48528 50.937 6.4749 50.9138 6.47325 50.8891V48.069L4.6327 50.4455C4.60414 50.4854 4.56656 50.5177 4.52313 50.5398C4.4797 50.5618 4.43168 50.573 4.38313 50.5722H3.75921C3.71285 50.5729 3.6671 50.5616 3.62619 50.5394C3.58529 50.5172 3.55056 50.4849 3.52524 50.4455L1.68468 48.069V50.8891C1.67953 50.9151 1.66598 50.9385 1.6462 50.9557C1.62641 50.973 1.60153 50.983 1.5755 50.9842Z" fill="#6D6D6D"/>
<path d="M11.2773 50.8891V46.7223C11.279 46.6976 11.2894 46.6744 11.3066 46.6569C11.3238 46.6394 11.3467 46.6289 11.3709 46.6272H15.8163C15.8406 46.6289 15.8635 46.6394 15.8807 46.6569C15.8979 46.6744 15.9083 46.6976 15.9099 46.7223V47.2451C15.9083 47.2698 15.8979 47.293 15.8807 47.3105C15.8635 47.328 15.8406 47.3385 15.8163 47.3402H12.1352C12.111 47.3419 12.0881 47.3524 12.0709 47.3699C12.0537 47.3874 12.0433 47.4106 12.0416 47.4352V48.3066C12.0399 48.3297 12.0471 48.3525 12.0616 48.3703C12.0762 48.388 12.097 48.3993 12.1196 48.4017H15.1456C15.1699 48.4034 15.1928 48.4139 15.21 48.4314C15.2272 48.4489 15.2376 48.4721 15.2392 48.4968V49.0671C15.2376 49.0918 15.2272 49.115 15.21 49.1325C15.1928 49.15 15.1699 49.1605 15.1456 49.1622H12.1352C12.111 49.1638 12.0881 49.1744 12.0709 49.1919C12.0537 49.2094 12.0433 49.2326 12.0416 49.2572V50.1286C12.0433 50.1533 12.0537 50.1765 12.0709 50.194C12.0881 50.2115 12.111 50.222 12.1352 50.2237H15.8163C15.8406 50.2254 15.8635 50.2359 15.8807 50.2534C15.8979 50.2709 15.9083 50.2941 15.9099 50.3187V50.8416C15.9083 50.8662 15.8979 50.8895 15.8807 50.9069C15.8635 50.9244 15.8406 50.935 15.8163 50.9366H11.3709C11.3241 50.9842 11.2773 50.9366 11.2773 50.8891Z" fill="#6D6D6D"/>
<path d="M19.9342 49.7325V47.863C19.9328 47.6146 20.0049 47.3716 20.1412 47.1653C20.2775 46.9591 20.4717 46.7992 20.6985 46.7064C20.8422 46.6482 20.9963 46.6212 21.1508 46.6272H23.6465C23.8005 46.629 23.9532 46.6558 24.0988 46.7064C24.3257 46.7992 24.5198 46.9591 24.6561 47.1653C24.7924 47.3716 24.8645 47.6146 24.8631 47.863V47.9581C24.8615 47.9827 24.8511 48.0059 24.8339 48.0234C24.8167 48.0409 24.7938 48.0515 24.7696 48.0531H24.1768C24.1526 48.0515 24.1297 48.0409 24.1125 48.0234C24.0953 48.0059 24.0849 47.9827 24.0832 47.9581V47.8788C24.0737 47.7309 24.0084 47.5924 23.901 47.492C23.7935 47.3917 23.6521 47.3373 23.5061 47.3402H21.2756C21.1304 47.3399 20.9904 47.3952 20.8835 47.495C20.7766 47.5948 20.7105 47.7319 20.6985 47.8788V49.7167C20.713 49.8627 20.7798 49.9982 20.8862 50.0975C20.9926 50.1968 21.1311 50.253 21.2756 50.2554H23.4905C23.635 50.253 23.7736 50.1968 23.88 50.0975C23.9864 49.9982 24.0531 49.8627 24.0676 49.7167V49.6216C24.0693 49.597 24.0797 49.5737 24.0969 49.5563C24.1141 49.5388 24.137 49.5282 24.1612 49.5266H24.754C24.7782 49.5282 24.8011 49.5388 24.8183 49.5563C24.8355 49.5737 24.8459 49.597 24.8475 49.6216V49.7325C24.8489 49.9809 24.7768 50.224 24.6405 50.4302C24.5042 50.6364 24.3101 50.7963 24.0832 50.8891C23.9396 50.9473 23.7855 50.9743 23.6309 50.9683H21.1352C20.9813 50.9665 20.8286 50.9397 20.6829 50.8891C20.456 50.7982 20.2623 50.6383 20.1283 50.4312C19.9942 50.2242 19.9265 49.9802 19.9342 49.7325Z" fill="#6D6D6D"/>
<path d="M28.8721 50.8891V46.7064C28.8767 46.6845 28.8885 46.6648 28.9054 46.6504C28.9224 46.6361 28.9436 46.6279 28.9657 46.6272H29.5428C29.5671 46.6289 29.5899 46.6394 29.6071 46.6569C29.6243 46.6744 29.6347 46.6976 29.6364 46.7223V48.3225C29.6346 48.3455 29.6418 48.3683 29.6564 48.3861C29.6709 48.4038 29.6917 48.4151 29.7144 48.4175H32.6156C32.6273 48.4178 32.6389 48.4153 32.6495 48.4104C32.6602 48.4055 32.6696 48.3982 32.6771 48.389C32.6846 48.3799 32.6899 48.3692 32.6928 48.3577C32.6956 48.3461 32.6959 48.3341 32.6936 48.3225V46.7223C32.6952 46.6976 32.7056 46.6744 32.7228 46.6569C32.74 46.6394 32.7629 46.6289 32.7872 46.6272H33.3799C33.3903 46.6266 33.4007 46.6282 33.4105 46.6319C33.4202 46.6357 33.4291 46.6415 33.4364 46.649C33.4438 46.6565 33.4495 46.6655 33.4532 46.6754C33.4569 46.6853 33.4585 46.6959 33.4579 46.7064V50.8733C33.4562 50.8979 33.4458 50.9211 33.4286 50.9386C33.4114 50.9561 33.3886 50.9666 33.3643 50.9683H32.8184C32.7941 50.9666 32.7712 50.9561 32.754 50.9386C32.7368 50.9211 32.7264 50.8979 32.7248 50.8733V49.2889C32.7231 49.2643 32.7127 49.241 32.6955 49.2235C32.6783 49.2061 32.6555 49.1955 32.6312 49.1939H29.7456C29.7213 49.1955 29.6984 49.2061 29.6812 49.2235C29.664 49.241 29.6536 49.2643 29.652 49.2889V50.8891C29.6503 50.9138 29.6399 50.937 29.6227 50.9545C29.6055 50.9719 29.5827 50.9825 29.5584 50.9842H28.9813C28.9545 50.9856 28.9283 50.9765 28.908 50.9588C28.8876 50.9411 28.8748 50.9161 28.8721 50.8891Z" fill="#6D6D6D"/>
<path d="M37.4353 50.8891V46.7223C37.4336 46.6992 37.4407 46.6764 37.4553 46.6587C37.4699 46.6409 37.4907 46.6296 37.5133 46.6272H40.7889C41.3972 46.6272 41.8963 47.1817 41.8963 47.8789V47.9105C41.8992 48.1633 41.8286 48.4112 41.6936 48.6235C41.8943 48.7287 42.0629 48.8876 42.1811 49.0831C42.2993 49.2785 42.3626 49.5031 42.3643 49.7325V49.7484C42.3636 50.0801 42.2335 50.3981 42.0026 50.6326C41.7716 50.8672 41.4586 50.9993 41.132 51H37.5133C37.4925 50.9892 37.4746 50.9735 37.461 50.9542C37.4474 50.9349 37.4386 50.9126 37.4353 50.8891ZM38.1372 48.3225C38.1389 48.3471 38.1493 48.3704 38.1665 48.3878C38.1837 48.4053 38.2065 48.4159 38.2308 48.4175H40.6797C40.8165 48.4101 40.9455 48.3505 41.041 48.2506C41.1364 48.1508 41.1912 48.018 41.1944 47.8789C41.1885 47.7406 41.1328 47.6094 41.0379 47.5101C40.9431 47.4108 40.8156 47.3503 40.6797 47.3402H38.2308C38.2065 47.3419 38.1837 47.3524 38.1665 47.3699C38.1493 47.3874 38.1389 47.4106 38.1372 47.4352V48.3225ZM41.0228 49.1939H38.3088C38.2845 49.1955 38.2617 49.2061 38.2445 49.2236C38.2272 49.241 38.2169 49.2643 38.2152 49.2889V50.1603C38.2169 50.185 38.2272 50.2082 38.2445 50.2257C38.2617 50.2432 38.2845 50.2537 38.3088 50.2554H41.0228C41.1673 50.253 41.3059 50.1968 41.4123 50.0975C41.5187 49.9982 41.5855 49.8627 41.6 49.7167C41.5848 49.5723 41.5173 49.4389 41.4107 49.3422C41.304 49.2456 41.1658 49.1927 41.0228 49.1939Z" fill="#6D6D6D"/>
<path d="M50.6778 48.4334C50.6804 48.6762 50.6096 48.914 50.475 49.1146C50.6719 49.2189 50.837 49.3759 50.9525 49.5685C51.0679 49.7612 51.1294 49.9823 51.1301 50.2078L51.1457 50.8891C51.1474 50.9122 51.1403 50.935 51.1257 50.9527C51.1111 50.9705 51.0903 50.9818 51.0677 50.9842H50.4594C50.4367 50.9859 50.4142 50.9787 50.3968 50.9639C50.3793 50.9491 50.3682 50.9279 50.3658 50.905L50.3346 50.2712C50.3348 50.1942 50.32 50.1179 50.291 50.0467C50.2621 49.9755 50.2196 49.9108 50.166 49.8563C50.1123 49.8018 50.0487 49.7586 49.9786 49.7292C49.9084 49.6999 49.8333 49.6848 49.7575 49.685H47.0434C47.0192 49.6867 46.9963 49.6972 46.9791 49.7147C46.9619 49.7322 46.9515 49.7554 46.9498 49.7801V50.8891C46.9482 50.9138 46.9378 50.937 46.9206 50.9545C46.9034 50.972 46.8805 50.9825 46.8563 50.9842H46.2791C46.2549 50.9825 46.232 50.972 46.2148 50.9545C46.1976 50.937 46.1872 50.9138 46.1855 50.8891V46.7223C46.1872 46.6976 46.1976 46.6744 46.2148 46.6569C46.232 46.6394 46.2549 46.6289 46.2791 46.6272H49.4299C49.7565 46.6279 50.0695 46.76 50.3005 46.9946C50.5314 47.2292 50.6615 47.5471 50.6622 47.8789L50.6778 48.4334ZM49.8979 47.9264C49.8956 47.7716 49.834 47.6239 49.7263 47.5145C49.6185 47.405 49.4731 47.3425 49.3207 47.3402H47.059C47.0347 47.3419 47.0119 47.3524 46.9947 47.3699C46.9775 47.3874 46.9671 47.4106 46.9654 47.4352V48.8453C46.9671 48.87 46.9775 48.8932 46.9947 48.9107C47.0119 48.9282 47.0347 48.9387 47.059 48.9404H49.3207C49.4731 48.938 49.6185 48.8755 49.7263 48.7661C49.834 48.6567 49.8956 48.5089 49.8979 48.3542V47.9264Z" fill="#6D6D6D"/>
<path d="M55.1078 46.6431H55.7005C55.7248 46.6447 55.7476 46.6553 55.7648 46.6727C55.782 46.6902 55.7924 46.7135 55.7941 46.7381V50.8891C55.7924 50.9138 55.782 50.937 55.7648 50.9545C55.7476 50.9719 55.7248 50.9825 55.7005 50.9842H55.1078C55.0835 50.9825 55.0606 50.9719 55.0434 50.9545C55.0262 50.937 55.0158 50.9138 55.0142 50.8891V46.7223C55.0139 46.7104 55.0163 46.6986 55.0212 46.6878C55.026 46.677 55.0332 46.6674 55.0422 46.6598C55.0512 46.6522 55.0618 46.6467 55.0731 46.6438C55.0845 46.6409 55.0963 46.6407 55.1078 46.6431Z" fill="#6D6D6D"/>
<path d="M59.7713 50.8891V46.7223C59.7695 46.6992 59.7767 46.6764 59.7912 46.6587C59.8058 46.6409 59.8266 46.6296 59.8492 46.6272H64.2947C64.3071 46.6267 64.3195 46.6288 64.3311 46.6334C64.3427 46.6379 64.3532 46.6449 64.362 46.6539C64.3708 46.6628 64.3777 46.6735 64.3822 46.6853C64.3867 46.697 64.3888 46.7097 64.3882 46.7223V47.2451C64.3866 47.2698 64.3762 47.293 64.359 47.3105C64.3418 47.328 64.3189 47.3385 64.2947 47.3402H60.6291C60.6049 47.3418 60.582 47.3524 60.5648 47.3699C60.5476 47.3873 60.5372 47.4106 60.5356 47.4352V48.3066C60.5338 48.3297 60.541 48.3525 60.5555 48.3702C60.5701 48.388 60.5909 48.3993 60.6135 48.4017H63.6395C63.6638 48.4034 63.6867 48.4139 63.7039 48.4314C63.7211 48.4489 63.7315 48.4721 63.7331 48.4967V49.083C63.7315 49.1076 63.7211 49.1308 63.7039 49.1483C63.6867 49.1658 63.6638 49.1763 63.6395 49.178H61.2687C61.2444 49.1797 61.2215 49.1902 61.2043 49.2077C61.1871 49.2252 61.1767 49.2484 61.1751 49.2731V49.178H60.6135C60.5893 49.1797 60.5664 49.1902 60.5492 49.2077C60.532 49.2252 60.5216 49.2484 60.52 49.2731V50.8733C60.5183 50.8979 60.5079 50.9211 60.4907 50.9386C60.4735 50.9561 60.4507 50.9666 60.4264 50.9683H59.8492C59.818 50.9842 59.7713 50.9525 59.7713 50.8891Z" fill="#6D6D6D"/>
<path d="M74.73 50.8891V47.863C74.729 47.6984 74.7602 47.5352 74.8218 47.3829C74.8834 47.2306 74.9741 47.0922 75.0887 46.9758C75.2034 46.8594 75.3396 46.7672 75.4895 46.7046C75.6395 46.6421 75.8001 46.6104 75.9622 46.6114H78.4423C78.7689 46.6121 79.0819 46.7442 79.3129 46.9788C79.5438 47.2133 79.6739 47.5313 79.6746 47.863V50.8891C79.6729 50.9138 79.6625 50.937 79.6453 50.9545C79.6281 50.972 79.6052 50.9825 79.581 50.9842H78.9882C78.964 50.9825 78.9411 50.972 78.9239 50.9545C78.9067 50.937 78.8963 50.9138 78.8947 50.8891V49.7801C78.893 49.7554 78.8826 49.7322 78.8654 49.7147C78.8482 49.6972 78.8253 49.6867 78.8011 49.685H75.6035C75.5792 49.6867 75.5563 49.6972 75.5391 49.7147C75.5219 49.7322 75.5115 49.7554 75.5099 49.7801V50.8891C75.5083 50.9138 75.4979 50.937 75.4807 50.9545C75.4635 50.972 75.4406 50.9825 75.4163 50.9842H74.8392C74.8125 50.9856 74.7862 50.9765 74.7659 50.9588C74.7456 50.9411 74.7327 50.9162 74.73 50.8891ZM75.5099 48.8453C75.5115 48.87 75.5219 48.8932 75.5391 48.9107C75.5563 48.9281 75.5792 48.9387 75.6035 48.9404H78.7855C78.8098 48.9387 78.8326 48.9281 78.8498 48.9107C78.867 48.8932 78.8774 48.87 78.8791 48.8453V47.9264C78.8792 47.8494 78.8644 47.773 78.8355 47.7018C78.8066 47.6306 78.7641 47.5659 78.7104 47.5115C78.6568 47.457 78.5931 47.4138 78.523 47.3844C78.4529 47.355 78.3778 47.34 78.3019 47.3402H76.1026C75.9503 47.3425 75.8048 47.405 75.6971 47.5145C75.5893 47.6239 75.5278 47.7716 75.5255 47.9264L75.5099 48.8453Z" fill="#6D6D6D"/>
<path d="M84.9779 50.9842C84.8189 50.981 84.6613 50.9543 84.5099 50.905C84.2831 50.8122 84.0889 50.6523 83.9527 50.4461C83.8164 50.2398 83.7442 49.9968 83.7456 49.7484V46.7223C83.7473 46.6976 83.7577 46.6744 83.7749 46.6569C83.7921 46.6394 83.8149 46.6289 83.8392 46.6272H84.4319C84.4562 46.6289 84.4791 46.6394 84.4963 46.6569C84.5135 46.6744 84.5239 46.6976 84.5255 46.7223V49.7325C84.5375 49.8795 84.6036 50.0166 84.7105 50.1164C84.8174 50.2162 84.9574 50.2714 85.1026 50.2712H87.3176C87.4628 50.2714 87.6028 50.2162 87.7097 50.1164C87.8166 50.0166 87.8827 49.8795 87.8947 49.7325V46.7223C87.8963 46.6976 87.9067 46.6744 87.9239 46.6569C87.9411 46.6394 87.964 46.6289 87.9883 46.6272H88.581C88.6053 46.6289 88.6281 46.6394 88.6453 46.6569C88.6625 46.6744 88.6729 46.6976 88.6746 46.7223V49.7484C88.6728 49.996 88.5994 50.2377 88.4635 50.4433C88.3276 50.6489 88.1352 50.8095 87.9103 50.905C87.7629 50.9695 87.6023 50.9967 87.4423 50.9842H84.9779Z" fill="#6D6D6D"/>
<path d="M92.4961 47.261V46.7223C92.4977 46.6976 92.5081 46.6744 92.5253 46.6569C92.5425 46.6394 92.5654 46.6289 92.5897 46.6272H97.0351C97.0594 46.6289 97.0822 46.6394 97.0995 46.6569C97.1167 46.6744 97.127 46.6976 97.1287 46.7223V47.2451C97.127 47.2698 97.1167 47.293 97.0995 47.3105C97.0822 47.328 97.0594 47.3385 97.0351 47.3402H95.3037C95.2794 47.3419 95.2566 47.3524 95.2394 47.3699C95.2222 47.3874 95.2118 47.4106 95.2101 47.4352V50.8733C95.2085 50.8979 95.1981 50.9212 95.1809 50.9386C95.1637 50.9561 95.1408 50.9667 95.1166 50.9683H94.5394C94.5152 50.9667 94.4923 50.9561 94.4751 50.9386C94.4579 50.9212 94.4475 50.8979 94.4458 50.8733V47.4511C94.4442 47.4264 94.4338 47.4032 94.4166 47.3857C94.3994 47.3682 94.3765 47.3577 94.3523 47.356H92.6209C92.5429 47.356 92.4961 47.3085 92.4961 47.261Z" fill="#6D6D6D"/>
<path d="M105.864 47.8788V49.7484C105.865 49.9967 105.793 50.2398 105.656 50.446C105.52 50.6523 105.326 50.8122 105.099 50.9049C104.951 50.9683 104.792 51.0006 104.631 51H102.151C101.991 51.0006 101.831 50.9683 101.683 50.9049C101.456 50.8122 101.262 50.6523 101.126 50.446C100.99 50.2398 100.918 49.9967 100.919 49.7484V47.8788C100.918 47.6305 100.99 47.3874 101.126 47.1812C101.262 46.9749 101.456 46.8151 101.683 46.7223C101.831 46.6577 101.991 46.6305 102.151 46.6431H104.631C104.79 46.6462 104.948 46.6729 105.099 46.7223C105.325 46.8159 105.519 46.976 105.655 47.1821C105.791 47.3881 105.864 47.6307 105.864 47.8788ZM105.084 47.9264V47.8788C105.072 47.7318 105.006 47.5948 104.899 47.495C104.792 47.3952 104.652 47.3399 104.506 47.3402H102.292C102.146 47.3399 102.006 47.3952 101.899 47.495C101.793 47.5948 101.726 47.7318 101.714 47.8788V49.7167C101.726 49.8637 101.793 50.0007 101.899 50.1005C102.006 50.2003 102.146 50.2556 102.292 50.2554H104.506C104.652 50.2556 104.792 50.2003 104.899 50.1005C105.006 50.0007 105.072 49.8637 105.084 49.7167V47.9264Z" fill="#6D6D6D"/>
<path d="M120.806 50.9842H116.377C116.352 50.9825 116.329 50.972 116.312 50.9545C116.295 50.937 116.285 50.9138 116.283 50.8891V46.7223C116.281 46.6992 116.288 46.6764 116.303 46.6587C116.318 46.6409 116.338 46.6296 116.361 46.6272H116.938C116.962 46.6289 116.985 46.6394 117.002 46.6569C117.02 46.6744 117.03 46.6976 117.032 46.7223V50.1603C117.033 50.185 117.044 50.2082 117.061 50.2257C117.078 50.2432 117.101 50.2537 117.125 50.2554H120.791C120.815 50.257 120.838 50.2676 120.855 50.2851C120.872 50.3026 120.883 50.3258 120.884 50.3504V50.8733C120.888 50.8859 120.889 50.8992 120.887 50.9121C120.885 50.9251 120.88 50.9374 120.872 50.9481C120.865 50.9588 120.855 50.9676 120.843 50.9738C120.832 50.9801 120.819 50.9836 120.806 50.9842Z" fill="#6D6D6D"/>
<path d="M124.472 47.261V46.7223C124.473 46.6976 124.484 46.6744 124.501 46.6569C124.518 46.6394 124.541 46.6289 124.565 46.6272H129.011C129.035 46.6289 129.058 46.6394 129.075 46.6569C129.092 46.6744 129.103 46.6976 129.104 46.7223V47.2451C129.103 47.2698 129.092 47.293 129.075 47.3105C129.058 47.328 129.035 47.3385 129.011 47.3402H127.279C127.255 47.3419 127.232 47.3524 127.215 47.3699C127.198 47.3874 127.187 47.4106 127.186 47.4352V50.8733C127.184 50.8979 127.174 50.9212 127.156 50.9386C127.139 50.9561 127.116 50.9667 127.092 50.9683H126.515C126.491 50.9667 126.468 50.9561 126.451 50.9386C126.433 50.9212 126.423 50.8979 126.421 50.8733V47.4511C126.42 47.4264 126.409 47.4032 126.392 47.3857C126.375 47.3682 126.352 47.3577 126.328 47.356H124.596C124.518 47.356 124.472 47.3085 124.472 47.261Z" fill="#6D6D6D"/>
<path d="M132.941 50.8891V46.7064C132.943 46.6818 132.953 46.6585 132.971 46.6411C132.988 46.6236 133.011 46.613 133.035 46.6114H136.654C136.813 46.6145 136.97 46.6412 137.122 46.6906C137.168 46.7064 137.2 46.7381 137.246 46.754C137.439 46.8617 137.6 47.0198 137.713 47.2121C137.825 47.4043 137.885 47.6236 137.886 47.8471V49.7325C137.885 49.9561 137.825 50.1754 137.713 50.3676C137.6 50.5598 137.439 50.718 137.246 50.8257C137.071 50.9423 136.863 50.9979 136.654 50.9841H133.035C133.011 50.9825 132.988 50.9719 132.971 50.9544C132.953 50.937 132.943 50.9137 132.941 50.8891ZM133.721 50.1603C133.723 50.185 133.733 50.2082 133.751 50.2257C133.768 50.2431 133.791 50.2537 133.815 50.2553H136.591C136.721 50.2342 136.841 50.1698 136.931 50.0724C137.022 49.9749 137.078 49.8498 137.09 49.7167V47.8788C137.08 47.7446 137.025 47.618 136.935 47.52C136.844 47.4219 136.723 47.3585 136.591 47.3402H133.815C133.791 47.3418 133.768 47.3524 133.751 47.3699C133.733 47.3873 133.723 47.4106 133.721 47.4352V50.1603Z" fill="#6D6D6D"/>
<path d="M83.3709 23.2423H75.3068C74.7823 23.242 74.2629 23.3467 73.7783 23.5504C73.2937 23.7541 72.8534 24.0529 72.4826 24.4296C72.1117 24.8062 71.8176 25.2535 71.617 25.7457C71.4165 26.2379 71.3134 26.7655 71.3137 27.2982V29.2628L75.0884 29.3262V28.2647C75.0855 27.8448 75.2462 27.4409 75.5356 27.141C75.8249 26.8412 76.2193 26.6699 76.6326 26.6645H82.0295C82.4428 26.6657 82.8389 26.833 83.1311 27.1299C83.4234 27.4267 83.5881 27.829 83.5893 28.2488V30.0074C83.5909 30.0482 83.5845 30.0888 83.5703 30.1269C83.5562 30.1651 83.5347 30.2 83.5071 30.2295C83.4794 30.259 83.4462 30.2827 83.4095 30.2989C83.3727 30.3152 83.3331 30.3239 83.2929 30.3243H75.4004C75.3177 30.3241 75.2385 30.2906 75.1801 30.2312C75.1216 30.1719 75.0887 30.0914 75.0884 30.0074L71.3137 30.4986V37.1053C71.3121 37.146 71.3186 37.1867 71.3327 37.2248C71.3468 37.2629 71.3683 37.2978 71.396 37.3274C71.4236 37.3569 71.4568 37.3805 71.4936 37.3968C71.5303 37.4131 71.57 37.4217 71.6101 37.4222H74.7453C74.7854 37.4238 74.8254 37.4173 74.8629 37.4029C74.9005 37.3886 74.9348 37.3667 74.9639 37.3386C74.993 37.3106 75.0162 37.2769 75.0323 37.2395C75.0483 37.2021 75.0568 37.1619 75.0572 37.1211V34.095C75.0575 34.0111 75.0904 33.9306 75.1489 33.8713C75.2073 33.8119 75.2865 33.7784 75.3692 33.7782H83.2462C83.3248 33.7782 83.4001 33.8099 83.4557 33.8664C83.5113 33.9228 83.5425 33.9994 83.5425 34.0792V37.1053C83.5428 37.1893 83.5757 37.2697 83.6342 37.3291C83.6926 37.3885 83.7718 37.4219 83.8545 37.4222H86.9897C87.0297 37.4238 87.0698 37.4173 87.1073 37.4029C87.1449 37.3886 87.1792 37.3667 87.2083 37.3386C87.2374 37.3106 87.2606 37.2769 87.2766 37.2395C87.2927 37.2021 87.3012 37.1619 87.3016 37.1211V27.2982C87.3116 26.7681 87.2172 26.2414 87.0239 25.7489C86.8307 25.2564 86.5426 24.8081 86.1764 24.4302C85.8102 24.0524 85.3735 23.7527 84.8917 23.5487C84.4099 23.3447 83.8929 23.2405 83.3709 23.2423ZM71.3137 29.7381V30.0074L73.0763 29.7698L71.3137 29.7381Z" fill="#6D6D6D"/>
<path d="M104.694 23.2265H101.558C101.512 23.2265 101.48 23.2423 101.434 23.2423C101.377 23.2706 101.329 23.3131 101.293 23.3659C101.258 23.4186 101.236 23.4797 101.231 23.5433V32.685C101.204 33.0581 101.04 33.4073 100.771 33.6628C100.502 33.9183 100.148 34.0614 99.7803 34.0634H94.1806C93.8115 34.0642 93.4561 33.922 93.1866 33.666C92.9171 33.4099 92.7538 33.0591 92.73 32.685V23.5433C92.7297 23.4783 92.7102 23.4149 92.6741 23.3612C92.6379 23.3075 92.5868 23.2661 92.5272 23.2423C92.4804 23.2423 92.4492 23.2265 92.4024 23.2265H89.2828C89.2051 23.2291 89.1312 23.2617 89.0762 23.3176C89.0211 23.3735 88.9891 23.4485 88.9865 23.5275V33.5881C88.9839 33.6414 88.9892 33.6948 89.0021 33.7465C89.069 34.4846 89.3363 35.1894 89.7742 35.7824C90.212 36.3754 90.8033 36.8334 91.4821 37.1053C91.9581 37.3008 92.4662 37.4029 92.9795 37.4063H101.044C101.552 37.4013 102.055 37.2992 102.525 37.1053C103.203 36.8307 103.792 36.372 104.23 35.7795C104.667 35.1871 104.936 34.4837 105.006 33.7465C105.018 33.6948 105.024 33.6414 105.021 33.5881V23.5275C105.009 23.4467 104.97 23.3726 104.91 23.3177C104.851 23.2628 104.774 23.2306 104.694 23.2265Z" fill="#6D6D6D"/>
<path d="M122.257 23.2899H107.844C107.804 23.2903 107.765 23.2989 107.728 23.3152C107.691 23.3315 107.658 23.3551 107.63 23.3847C107.603 23.4142 107.581 23.4491 107.567 23.4872C107.553 23.5254 107.546 23.566 107.548 23.6067V26.3635C107.548 26.4474 107.581 26.5279 107.64 26.5873C107.698 26.6466 107.777 26.6801 107.86 26.6803H112.867C112.949 26.6833 113.027 26.7176 113.084 26.7764C113.142 26.8352 113.176 26.9141 113.179 26.9972V37.0895C113.177 37.1302 113.184 37.1708 113.198 37.209C113.212 37.2471 113.234 37.282 113.261 37.3115C113.289 37.3411 113.322 37.3647 113.359 37.381C113.396 37.3973 113.435 37.4059 113.475 37.4064H116.626C116.666 37.408 116.706 37.4014 116.744 37.3871C116.781 37.3727 116.816 37.3509 116.845 37.3228C116.874 37.2947 116.897 37.261 116.913 37.2237C116.929 37.1863 116.938 37.1461 116.938 37.1053V27.0131C116.936 26.9723 116.943 26.9317 116.957 26.8936C116.971 26.8554 116.993 26.8205 117.02 26.791C117.048 26.7615 117.081 26.7378 117.118 26.7216C117.155 26.7053 117.194 26.6966 117.234 26.6962H122.241C122.324 26.6959 122.403 26.6625 122.462 26.6031C122.52 26.5437 122.553 26.4633 122.553 26.3793V23.6226C122.555 23.5393 122.525 23.4587 122.47 23.397C122.415 23.3352 122.339 23.2969 122.257 23.2899Z" fill="#6D6D6D"/>
<path d="M138.65 23.5275C138.179 23.3372 137.676 23.2404 137.169 23.2423H129.104C128.592 23.2418 128.084 23.3386 127.607 23.5275C126.869 23.8324 126.237 24.3541 125.792 25.0258C125.348 25.6976 125.111 26.4888 125.111 27.2982V33.3821C125.113 34.191 125.351 34.9813 125.795 35.6527C126.239 36.324 126.87 36.8462 127.607 37.1528C128.084 37.3418 128.592 37.4385 129.104 37.438H137.169C137.693 37.4398 138.213 37.3361 138.699 37.1329C139.184 36.9298 139.625 36.6311 139.996 36.2541C140.367 35.8771 140.661 35.4293 140.861 34.9364C141.061 34.4435 141.163 33.9152 141.162 33.3821V27.2982C141.161 26.4869 140.922 25.6943 140.474 25.0223C140.027 24.3503 139.392 23.8297 138.65 23.5275ZM137.403 32.685C137.371 33.0619 137.202 33.4132 136.927 33.6686C136.652 33.9241 136.293 34.065 135.921 34.0634H130.337C129.965 34.0625 129.607 33.9206 129.333 33.6657C129.059 33.4107 128.888 33.061 128.855 32.685V28.0429C128.886 27.6659 129.056 27.3147 129.33 27.0592C129.605 26.8038 129.964 26.6628 130.337 26.6645H135.921C136.292 26.668 136.648 26.8107 136.922 27.0651C137.195 27.3196 137.367 27.6679 137.403 28.0429V32.685Z" fill="#6D6D6D"/>
<mask id="mask0_457_334" style="mask-type:luminance" maskUnits="userSpaceOnUse" x="2" y="41" width="138" height="2">
<path d="M139.68 41.4147H2.44873V42.2861H139.68V41.4147Z" fill="white"/>
</mask>
<g mask="url(#mask0_457_334)">
<path d="M139.68 41.4147H2.44873V42.2861H139.68V41.4147Z" fill="#6E6E6E"/>
</g>
<path d="M21.2444 23.3057H18.3276C18.2239 23.2979 18.1202 23.3207 18.0289 23.3713C17.9376 23.4219 17.8626 23.4981 17.8129 23.5909L11.1993 31.671C11.1872 31.692 11.1711 31.7103 11.1519 31.7249C11.1327 31.7394 11.1109 31.75 11.0876 31.7559C11.0644 31.7618 11.0402 31.7629 11.0166 31.7592C10.9929 31.7555 10.9702 31.7471 10.9498 31.7344C10.9219 31.7219 10.8996 31.6993 10.8874 31.671L4.74177 23.5909C4.6881 23.5017 4.6123 23.4284 4.52196 23.3783C4.43162 23.3283 4.32991 23.3032 4.22704 23.3057H1.29462C1.21196 23.3059 1.13276 23.3394 1.07431 23.3988C1.01586 23.4581 0.98291 23.5386 0.982663 23.6226V37.0895C0.981054 37.1302 0.987504 37.1708 1.00163 37.209C1.01576 37.2471 1.03727 37.282 1.06491 37.3115C1.09254 37.3411 1.12573 37.3647 1.16251 37.381C1.19929 37.3973 1.23891 37.4059 1.27902 37.4063H4.42981C4.50841 37.4063 4.58379 37.3746 4.63937 37.3182C4.69495 37.2617 4.72617 37.1851 4.72617 37.1053V29.9124L8.96881 35.7111C9.05343 35.8427 9.1691 35.9508 9.3053 36.0255C9.4415 36.1002 9.59392 36.1392 9.74871 36.1389H12.2912C12.446 36.1392 12.5984 36.1002 12.7346 36.0255C12.8708 35.9508 12.9865 35.8427 13.0711 35.7111L17.8129 29.9124V37.1053C17.8112 37.146 17.8177 37.1867 17.8318 37.2248C17.8459 37.263 17.8675 37.2978 17.8951 37.3274C17.9227 37.3569 17.9559 37.3805 17.9927 37.3968C18.0295 37.4131 18.0691 37.4217 18.1092 37.4222H21.2444C21.3271 37.4219 21.4063 37.3885 21.4647 37.3291C21.5232 37.2697 21.5561 37.1893 21.5564 37.1053V23.6226C21.5509 23.5403 21.5163 23.4629 21.4589 23.4046C21.4016 23.3464 21.3253 23.3112 21.2444 23.3057Z" fill="#6E6E6E"/>
<path d="M37.7468 28.3122L38.5423 28.3439V28.3122H37.7468ZM37.9964 29.7064C38.169 29.4299 38.3054 29.1316 38.4019 28.8192L34.0501 28.5974C33.8484 28.6237 33.6451 28.6343 33.4418 28.6291H28.0917C28.0155 28.6258 27.9437 28.5925 27.8913 28.5363C27.8389 28.4801 27.81 28.4054 27.8109 28.328V26.9813C27.8093 26.9022 27.8374 26.8253 27.8896 26.7665C27.9417 26.7076 28.014 26.6711 28.0917 26.6645H33.4106C34.1281 26.6645 34.8456 26.6803 34.8456 27.6785V27.8211H38.6047C38.618 27.6842 38.6232 27.5466 38.6203 27.4091V27.3299C38.6203 25.096 36.9981 23.274 35.0172 23.274H24.395C24.356 23.276 24.3179 23.2858 24.2827 23.3029C24.2475 23.3199 24.2159 23.3438 24.1898 23.3732C24.1638 23.4027 24.1437 23.4371 24.1307 23.4744C24.1177 23.5117 24.1121 23.5513 24.1142 23.5909V37.0895C24.1126 37.1302 24.119 37.1708 24.1332 37.209C24.1473 37.2471 24.1688 37.282 24.1964 37.3115C24.2241 37.3411 24.2573 37.3647 24.294 37.381C24.3308 37.3972 24.3704 37.4059 24.4106 37.4063H36.1558C37.2134 37.4016 38.2263 36.9727 38.9742 36.2131C39.722 35.4535 40.1442 34.4246 40.1489 33.3504V33.2712C40.1461 32.5337 39.9439 31.8112 39.5643 31.1825C39.1847 30.5538 38.6423 30.0432 37.9964 29.7064ZM34.9548 33.9841H34.3933L28.1229 34C28.0828 34.0016 28.0428 33.9951 28.0052 33.9807C27.9677 33.9664 27.9333 33.9445 27.9043 33.9165C27.8752 33.8884 27.8519 33.8547 27.8359 33.8173C27.8199 33.78 27.8114 33.7397 27.8109 33.699V32.3206C27.8143 32.2391 27.8488 32.1622 27.907 32.106C27.9652 32.0499 28.0426 32.0189 28.1229 32.0196C28.2789 32.0196 35.2355 32.0196 35.4071 32.0354C35.8283 32.0512 36.2026 32.178 36.3274 32.6058C36.3721 32.7382 36.3932 32.8777 36.3898 33.0177C36.3898 33.9683 35.6723 33.9841 34.9548 33.9841Z" fill="#6E6E6E"/>
<path d="M57.4003 23.2898H42.9722C42.8946 23.2968 42.8225 23.3333 42.7704 23.3921C42.7183 23.4509 42.6901 23.5276 42.6915 23.6067V27.8211H46.435V27.0289C46.4376 26.9499 46.4696 26.8749 46.5247 26.819C46.5797 26.7631 46.6536 26.7305 46.7313 26.7279H57.3847C57.4674 26.7276 57.5466 26.6941 57.605 26.6348C57.6635 26.5754 57.6964 26.495 57.6967 26.411V23.6067C57.6997 23.5657 57.6941 23.5244 57.6805 23.4857C57.6669 23.4469 57.6454 23.4115 57.6175 23.3817C57.5896 23.3518 57.5559 23.3283 57.5185 23.3124C57.4811 23.2966 57.4408 23.2889 57.4003 23.2898ZM55.3258 28.6449H46.7469C46.6691 28.6423 46.5953 28.6097 46.5403 28.5538C46.4852 28.4979 46.4532 28.4229 46.4506 28.3439V28.3122H42.7071V28.5499L55.6378 29.1836V28.9459C55.6316 28.8655 55.5963 28.7902 55.5387 28.7346C55.4811 28.679 55.4052 28.647 55.3258 28.6449ZM42.6915 29.041V37.1053C42.6917 37.1893 42.7246 37.2697 42.7831 37.3291C42.8416 37.3885 42.9208 37.4219 43.0034 37.4222H46.1386C46.2188 37.4187 46.2945 37.3837 46.3498 37.3246C46.4051 37.2655 46.4356 37.1868 46.435 37.1053V32.4156C46.4384 32.3342 46.4728 32.2573 46.531 32.2011C46.5892 32.1449 46.6666 32.1139 46.7469 32.1146H55.3102C55.3904 32.1111 55.4661 32.0761 55.5214 32.017C55.5767 31.9579 55.6072 31.8793 55.6066 31.7978V29.6747L42.6915 29.041Z" fill="#6E6E6E"/>
<path d="M73.092 29.7856L71.3295 30.0075L67.9915 30.4511L65.8234 34.8555L64.4508 28.534L59.319 39.4977L59.3034 29.3737L55.6379 29.1836L42.7072 28.5499L38.5426 28.3439L37.7471 28.3122H60.5045L60.5825 34.8397L65.3242 22.7512L66.1821 32.3206L67.7419 29.6906L71.3295 29.754L73.092 29.7856Z" fill="#6E6E6E"/>
</g>
<defs>
<clipPath id="clip0_457_334">
<rect width="143" height="51" fill="white"/>
</clipPath>
</defs>
</svg>
