<?xml version="1.0" encoding="UTF-8"?>
<svg id="Layer_1" xmlns="http://www.w3.org/2000/svg" viewBox="0 0 1080 411.11">
  <defs>
    <style>
      .cls-1 {
        fill: #6e6e6e;
      }
    </style>
  </defs>
  <path class="cls-1" d="M158.61,4.27c-4.46,4.94-9.28,9.64-13.26,14.94-6.61,8.64-6.61,20.64,0,29.29,14.19,19.89,33.24,35.82,55.32,46.28v-16.27l1.57-.96,77.38,84.37,77.62-85.33v215.37h-16.63V120.21l-61.47,67.01-30.85-33.75v3.25c13.98,39.89,3.5,75.45-20.85,107.39-14.94,19.65-32.78,37.12-49.05,55.92-12.18,12.42-21.19,27.59-26.27,44.23-2.47,6.79-.16,14.4,5.66,18.68,8.92,6.15,18.92,10.97,27.96,16.15-12.96,2.68-26.42-1.04-36.16-10-9.59-8.05-13.6-20.96-10.24-33.02,4.22-18.11,12.45-35.04,24.1-49.53,17.11-23.02,35.19-45.44,51.34-69.18,27.96-40.98,17.48-83.52-17.6-114.98-9.91-8.55-20.25-16.6-30.97-24.1-14.21-10.05-25.75-23.41-33.63-38.93-10.25-17.68-4.23-40.32,13.44-50.57,3.89-2.26,8.15-3.78,12.59-4.51"/>
  <path class="cls-1" d="M645.4,275.8c-25.77,26.94-68.49,27.88-95.43,2.12-.96-.92-1.9-1.87-2.8-2.84-25.09-26.09-24.66-67.48.96-93.04,27.12-27.36,66.17-27.36,96.42,0l18.32-15.55v125.34l-17.48-16.03M595.74,279.3c27.76.07,50.31-22.38,50.38-50.14.07-27.76-22.38-50.31-50.14-50.38-27.76-.07-50.31,22.38-50.38,50.14,0,.04,0,.08,0,.12-.2,27.56,21.98,50.06,49.53,50.26.2,0,.4,0,.6,0"/>
  <path class="cls-1" d="M831.6,229.52c-.19-37.34,29.92-67.77,67.26-67.96,37.34-.19,67.77,29.92,67.96,67.26.19,37.01-29.4,67.29-66.41,67.95-37.48.2-68.16-29.77-68.82-67.25M899.1,279.3c26.33.23,48.42-19.81,50.74-46.04,2-28.15-19.19-52.6-47.34-54.6-.81-.06-1.62-.1-2.43-.12-27.82-.53-50.8,21.59-51.33,49.4,0,.24,0,.49,0,.73-.74,27.15,20.66,49.76,47.81,50.5.94.03,1.88.02,2.81,0"/>
  <path class="cls-1" d="M513.55,292.19h-15.79v-77.25c.67-18.84-14.07-34.65-32.9-35.31-18.84-.67-34.65,14.07-35.31,32.9v79.42h-16.75v-126.07l14.46,10.73c10.79-10.71,25.71-16.16,40.86-14.94,24.46,1.81,43.97,21.12,46.04,45.56.72,27.48,0,55.08,0,82.56-.15.83-.39,1.64-.72,2.41"/>
  <path class="cls-1" d="M983.58,164.92c5.38-.38,10.77-.38,16.15,0,2.05,0,4.34,2.89,5.54,5.06,6.03,10.12,12.05,20.61,18.2,31.94,5.54-9.88,11.21-18.56,15.67-27.84,2.2-7.03,9.45-11.18,16.63-9.52,2.73.2,5.47.2,8.2,0l-17.72,31.58c-3.01,5.42-5.66,11.09-9.16,16.03-3.1,3.97-3.1,9.53,0,13.5,12.05,20.49,24.1,41.22,35.55,61.83.71,1.52,1.32,3.09,1.81,4.7-5.09.4-10.21.4-15.31,0-2.67-.81-4.92-2.62-6.27-5.06-8.56-14.7-16.87-29.65-25.31-44.59-1.08-1.93-2.29-3.62-4.1-6.51l-22.06,38.57-2.89,5.18q-8.2,13.98-25.79,12.05c2.29-4.1,4.22-7.95,6.39-12.05,10.49-18.56,20.85-37.12,31.82-55.44,2.61-3.59,2.61-8.46,0-12.05-7.95-13.38-15.55-27-23.26-40.62-1.21-2.05-2.17-4.34-3.74-7.35"/>
  <path class="cls-1" d="M718.55,292.19h-17.48v-109.8h-22.06v-17.36h21.81c0-9.64.6-18.56,0-27.36-.9-5.56,2.7-10.85,8.2-12.05,2.89-.96,5.66-2.53,9.4-4.22v43.87h22.06v17.11h-21.94v109.8Z"/>
  <path class="cls-1" d="M821.96,164.44c-1.78,4.17-3.88,8.2-6.27,12.05-1.63,1.6-3.88,2.39-6.15,2.17-18.13-2.49-34.85,10.2-37.34,28.33-.36,2.59-.4,5.22-.14,7.83v76.53h-15.79v-124.98l13.5,10c13.66-13.67,33.92-18.35,52.19-12.05"/>
  <rect class="cls-1" x="376.99" y="165.52" width="16.39" height="126.55"/>
  <path class="cls-1" d="M101,154.08l26.76,6.87,1.21-1.93c-3.98-4.94-7.71-10-12.05-14.58-1.93-.99-4.22-.99-6.15,0-3.25,2.37-6.31,4.99-9.16,7.83-1.73-10.64,5.49-20.68,16.13-22.41,2.65-.43,5.37-.31,7.97.35,15.43,3.01,30.61,6.87,46.4,10.49-15.73,21.6-44.03,29.91-68.94,20.25-1.69-.84-2.53-3.62-3.74-5.42l1.45-1.21"/>
  <path class="cls-1" d="M865.47,328.59c9.4,0,20.01,0,30.49,1.57,10.49,1.57,15.91,7.47,14.22,16.03-1.48,3.96-3.64,7.63-6.39,10.85,2.89,3.74,7.83,7.47,9.16,12.05,2.77,9.64-5.42,18.08-16.99,18.32-11.57.24-22.06,0-31.09,0,1.95-2.89,3.34-6.12,4.1-9.52v-38.57c-.7-3.8-1.92-7.49-3.62-10.97M885.48,384.88h5.79c6.66.07,12.1-5.28,12.17-11.93,0-.6-.03-1.21-.12-1.81-.72-8.56-7.83-12.78-20.13-12.78-9.4,0-6.27,6.63-6.75,11.45v5.91c-.84,7.35,1.81,10.97,8.92,9.28M876.32,344.02q0,12.05,9.04,12.05c11.09,0,16.51-4.34,16.39-12.05-.12-7.71-7.71-12.05-17.23-12.05-7.23-.6-8.32,1.57-8.2,12.78"/>
  <path class="cls-1" d="M306.97,356.91c3.63,2.93,6.8,6.38,9.4,10.24,4.46,9.64-4.22,20.25-16.51,20.49s-21.81,0-30.97,0c1.33-2.65,4.22-5.79,4.34-9.04v-40.86c-.51-2.94-1.36-5.81-2.53-8.56,13.14.72,26.15-3.25,38.09,4.58,5.88,3.12,8.11,10.42,4.98,16.3-.76,1.43-1.8,2.69-3.06,3.71l-3.74,3.5M280.7,358.24v22.9c0,1.45,1.93,4.1,3.01,4.1,5.08.31,10.18-.02,15.19-.96,5.05-.99,8.65-5.46,8.56-10.61.76-5.37-2.51-10.5-7.71-12.05-6.34-1.55-12.79-2.63-19.28-3.25M280.46,344.74c.72,4.82-3.01,12.05,7.95,12.05s17.96-4.94,17.84-12.05c-.12-7.11-8.08-12.05-17.48-12.78-9.4-.72-8.32,1.08-8.32,13.02"/>
  <path class="cls-1" d="M138.36,107.07c-14.82,6.99-29.89,14.22-44.35,21.21-4.99,2.61-10.3,4.55-15.79,5.79-3.36.16-6.58-1.38-8.56-4.1-1.77-3.8-.13-8.32,3.67-10.09.22-.1.44-.19.67-.27,14.32-7.26,29.92-11.68,45.92-13.02,6.03,0,12.05-.6,18.08-.96v1.45"/>
  <path class="cls-1" d="M48.21,167.33c-12.05-8.32-28.44-10-25.91-29.41l-15.07,1.69v-1.33l8.32-6.75L0,114.18l1.93-1.45,10.12,7.47,30.13,25.31c6.21,5.4,8.58,13.99,6.03,21.81"/>
  <path class="cls-1" d="M569.47,348.48h6.27c3.86,12.05-2.89,24.83,4.94,36.88l-9.88,3.98-1.69-7.11c-1.32,1.11-2.78,2.04-4.34,2.77-3.98,1.21-9.28,4.1-12.05,2.65-3.67-3.04-6.08-7.34-6.75-12.05-.38-5.94-.38-11.9,0-17.84-.47-3.28-1.24-6.5-2.29-9.64h9.28v24.1c0,5.18,0,10.36,7.23,10.49s9.76-3.25,9.76-10.97v-24.1"/>
  <path class="cls-1" d="M490.04,385.48c-5.54,5.18-6.27,5.06-12.05-2.17l-6.63,4.34c-3.87,2.59-9.11,1.55-11.7-2.32-.12-.19-.24-.38-.35-.57-3.14-3.26-3.06-8.44.2-11.59.17-.16.34-.32.52-.46,4.42-3.42,9.28-6.22,14.46-8.32,3.74-1.57,6.63-3.5,4.82-7.35-1.3-2.88-3.68-5.13-6.63-6.27-3.98-.96-6.99,1.33-6.99,6.27-.15,1.59-.99,3.04-2.29,3.98-1.33.26-2.71-.19-3.62-1.21-.62-1.55-.62-3.27,0-4.82,2.29-5.79,9.16-8.44,17.84-6.87,5.51.41,9.64,5.21,9.23,10.72-.03.45-.1.89-.19,1.33v18.56c0,2.29,2.17,4.34,3.74,7.47M479.68,364.87c-4.27,1.91-8.31,4.3-12.05,7.11-2,2.23-2.76,5.29-2.05,8.2,1.8,2.41,4.71,3.73,7.71,3.5,3.04-.97,5.5-3.21,6.75-6.15.61-4.2.61-8.46,0-12.65"/>
  <path class="cls-1" d="M1001.06,385.36q-6.63,5.66-12.05-2.05l-6.75,4.1c-3.96,2.69-9.36,1.67-12.05-2.29-3.13-3.08-3.16-8.12-.08-11.25.29-.29.6-.56.92-.8,4.12-3.37,8.76-6.06,13.74-7.95,5.06-1.81,6.27-4.94,4.7-8.8-1.57-3.86-4.58-5.18-6.51-4.94s-4.7,3.62-6.87,5.79-1.69,3.13-2.77,4.34-2.77-.72-2.89-1.45c-.55-1.72-.55-3.58,0-5.3,4.27-6.07,12.03-8.57,19.04-6.15,6.39,1.81,6.99,6.63,6.87,12.05-.4,5.66-.4,11.34,0,16.99,0,2.41,2.41,4.58,4.22,7.71M989.61,364.51c-3.86,1.33-7.51,3.2-10.85,5.54-2.56,2.31-4,5.6-3.98,9.04,0,1.81,5.18,4.22,7.95,4.22,3.59.25,6.7-2.45,6.95-6.04.04-.52.01-1.04-.08-1.56v-11.09"/>
  <path class="cls-1" d="M703.37,348.24h10.12l11.33,28.2h2.53l10.36-27.84h4.22c-6.51,15.19-12.78,30.97-19.77,46.28-2.36,4.46-5.65,8.36-9.64,11.45-1.45,1.21-5.06,0-7.47-.72s-1.33-4.1-.84-4.34c2.08-1.4,4.49-2.23,6.99-2.41,6.63-.64,11.48-6.52,10.84-13.15-.08-.81-.24-1.62-.48-2.4-2.63-6.13-5.57-12.12-8.8-17.96-2.89-5.54-6.03-10.97-9.28-16.99"/>
  <path class="cls-1" d="M403.63,376.92c-1.13,7.84-8.41,13.28-16.25,12.14-2.95-.43-5.7-1.76-7.86-3.83-6.91-6.31-9.25-16.21-5.91-24.95,2.43-7.46,9.52-12.38,17.36-12.05,8.8,0,13.98,5.42,14.7,15.67h-27.84c-1.16,7.02,2.42,13.97,8.8,17.11,5.57,3.65,13.04,2.09,16.69-3.48.11-.16.21-.33.31-.5M396.4,361.13c.84-6.99-2.41-10.36-8.56-10.36s-9.16,4.1-9.64,10.36h18.2Z"/>
  <path class="cls-1" d="M77.62,287.37c18.8-11.45,38.93-4.58,58.21-6.27-7.83,11.21-46.16,15.67-58.21,6.27"/>
  <path class="cls-1" d="M643.47,338.11l1.21,9.16,7.83,1.45c-11.09,0-8.32,8.8-8.44,15.19v12.05c0,3.62,2.53,8.32,8.56,6.51v1.81c-3.13,1.33-6.51,3.98-9.28,3.5-2.96-1.33-5.08-4.04-5.66-7.23-.96-8.32,0-16.75-.96-25.19-.67-2.59-1.72-5.07-3.13-7.35l9.28-10.49"/>
  <rect class="cls-1" x="377.11" y="115.75" width="16.39" height="16.75"/>
  <path class="cls-1" d="M1053.37,351.25l10.61-3.74c0,13.74.84,26.64,1.33,39.89h-8.8c0-5.66,1.45-12.05,1.45-17.6s2.29-13.02-4.58-18.44"/>
  <path class="cls-1" d="M109.68,305.57c-3.76,5.49-11.26,6.89-16.75,3.13-1.23-.84-2.29-1.9-3.13-3.13h19.89Z"/>
  <path class="cls-1" d="M1067.83,350.89c3.5-.72,8.32-3.13,10.36-1.81s3.62,7.11-2.65,7.11c-2.29,0-4.58-2.17-6.87-3.37l-.84-2.05"/>
</svg>