<?xml version="1.0" encoding="UTF-8"?>
<svg id="Layer_1" xmlns="http://www.w3.org/2000/svg" viewBox="0 0 412.63 379.27">
  <defs>
    <style>
      .cls-1 {
        font-family: Poppins-Bold, Poppins;
        font-size: 60.83px;
        font-weight: 700;
      }

      .cls-1, .cls-2 {
        fill: #6e6e6e;
      }
    </style>
  </defs>
  <g>
    <path class="cls-2" d="M260.22,11.04h-107.82c-6.96,0-12.62,5.66-12.62,12.62v160.93c0,6.96,5.66,12.62,12.62,12.62h107.82c6.96,0,12.62-5.66,12.62-12.62V23.66c0-6.96-5.66-12.62-12.62-12.62ZM212.44,193.62c-.16.1-.32.2-.48.3-1.23.71-2.66,1.11-4.17,1.11s-2.94-.4-4.17-1.11c-.16-.09-.32-.19-.48-.3-2.27-1.51-3.76-4.09-3.76-7.01,0-4.64,3.78-8.42,8.42-8.42s8.42,3.78,8.42,8.42c0,2.92-1.5,5.5-3.76,7.01ZM262.5,177.55h-112.37V30.7h112.37v146.86Z"/>
    <path class="cls-2" d="M214.03,186.61c0,3.45-2.8,6.25-6.25,6.25s-6.25-2.8-6.25-6.25,2.8-6.25,6.25-6.25,6.25,2.8,6.25,6.25Z"/>
    <path class="cls-2" d="M255.23,250.09c0,3.52-4.7,6.85-13.23,9.38-7.49,2.22-17.14,3.56-27.55,3.87-.11,0-.23,0-.34,0-1.41.04-2.83.06-4.26.06-2.88,0-5.72-.08-8.49-.23-.12,0-.23-.01-.35-.02-8.78-.51-16.84-1.77-23.31-3.68-8.53-2.52-13.23-5.85-13.23-9.38s4.7-6.85,13.23-9.38c2.9-.86,6.13-1.59,9.6-2.17l2.06,3.7c-1.03.24-2.02.5-2.97.78-6.33,1.87-9.81,4.38-9.81,7.07s3.48,5.2,9.81,7.07c3.61,1.07,7.9,1.86,12.58,2.34.12.01.24.02.36.04,3.35.33,6.89.5,10.52.5,2.1,0,4.18-.06,6.2-.17.12,0,.23-.01.35-.02,6.36-.38,12.22-1.3,16.91-2.68,6.33-1.87,9.81-4.38,9.81-7.07s-3.48-5.2-9.81-7.07c-2.03-.6-4.28-1.11-6.69-1.53l1.96-3.52c4.93.66,9.47,1.58,13.41,2.75,8.53,2.52,13.23,5.85,13.23,9.38Z"/>
    <polygon class="cls-2" points="232.3 208.51 216.64 236.63 216.48 236.92 214.62 240.25 214.46 240.54 207.78 252.52 201.24 240.78 201.08 240.49 199.22 237.14 199.06 236.86 183.7 209.29 195.4 209.1 195.73 209.09 195.58 208.8 193.57 205.01 222.03 205.01 220.23 208.41 220.07 208.71 220.41 208.7 232.3 208.51"/>
  </g>
  <text class="cls-1" transform="translate(-.1 318.13)"><tspan x="0" y="0">PHONE PLACE</tspan><tspan x="71.99" y="57">UGANDA</tspan></text>
</svg>