<?xml version="1.0" encoding="UTF-8"?>
<svg id="Layer_1" xmlns="http://www.w3.org/2000/svg" viewBox="0 0 408.77 379.27">
  <defs>
    <style>
      .cls-1 {
        fill: #6e6e6e;
      }
    </style>
  </defs>
  <g>
    <path class="cls-1" d="M263.93,271.9c-2.37-1.09-4.7-.31-6.96.53-1.65.61-3.24,1.38-4.98,1.69-.31.06-.69.34-.95.04-.34-.38.2-.55.31-.83.16-.37.33-.74.24-1.24-2.31.38-4.63.24-6.93.03-.61-.06-1.6.35-1.74-.46-.12-.76.87-.86,1.49-1.07.6-.21.88-.48.48-1.15-.36-.61-.26-1.25.16-2.01.61.78,1.15,1.44,1.66,2.11.42.55.89.8,1.63.67,1.07-.18,2.16-.23,3.24-.32.46-.04,1.01-.08,1.2-.49.77-1.63,2.08-1.33,3.45-1.14,1.22.17,2.49-.3,3.01-1.31,1.25-2.42,2.24-4.97,2.87-7.64.13-.56-.05-1.04-.65-1.08-2.6-.17-3.78-2.03-4.86-4-.81-1.47-1.5-3.01-2.32-4.47-1.01-1.8-2.57-2.9-4.64-3.18-2.24-.3-4.24-1.16-6.07-2.45-.79-.56-1.61-1.11-2.55-1.39-.47-.14-.73-.42-1.04-.76-1.41-1.59-2.44-3.53-4.24-4.75-.93-.63-1.56-1.4-1.76-2.48-.6-3.18-1.83-6.15-2.97-9.15-1.25-3.31-2.18-6.68-1.7-10.29.35-2.65,1.38-5.03,2.69-7.31.67-1.17,1.28-2.36,1.47-3.73.09-.66-.05-1.16-.76-1.24-.9-.1-1.27-.67-1.54-1.42-.56-1.55-.87-1.65-2.38-.87-.28.15-.54.49-.9.23-.37-.26-.27-.64-.22-1.02.2-1.47.94-2.66,1.87-3.76.85-.99,1.22-2.02.44-3.26-.57-.92-.27-1.85.08-2.79.51-1.38,2-2.17,2.14-3.79.05-.54,1.49-.55,2.11-.09.28.21.36.66.79.7.25-.34.34-.79.72-1.01.36-.21.84-.49,1.07,0,.32.67.62.51,1.13.26.82-.41,1.58-.02,1.63.86.04.72.3,1.19.86,1.59.4.28.51.7.11,1.04-1,.86-.28,1.01.45,1.2,2.63.67,4.91,1.98,6.94,3.75,1.56,1.36,2.91,2.91,4.11,4.59,1.65,2.32,3.3,4.63,4.93,6.95,1.3,1.85,3.02,2.96,5.28,3.25,1.6.2,3.21.34,4.82.2,5.3-.47,10.58-1.05,15.72-2.46,2.97-.82,5.96-1.72,8.26-3.99.09-.09.27-.12.43.1-.43.58-1.34.93-1.24,1.83.07.63-.12.8-.72.73-.92-.1-1.37.33-1.18,1.26.16.81-.24.99-.92.98-.84-.02-1.68,0-2.57,0,.07.32.06.42.1.45.57.35,1.16.68,1.73,1.02,1.03.62,1.22,1.66.54,2.56-.28.37-.57.49-.94.23-.3-.2-.74-.38-.59-.84.17-.5.6-.29.96-.23.26.05.66.33.7-.16.03-.36-.41-.35-.7-.39-.56-.08-1.2.17-1.71-.37.51-.32,1.12.29,1.49-.34-.37-.25-.88-.02-1.17-.37-.89-1.09-1.98-1.16-3.16-.61-.27.12-.36.05-.56-.09-.77-.54-1.74-.64-2.46-.24-1.4.78-2.87.74-4.36.85-.07,0-.15.04-.22.05-5.24.88-10.47,1.27-15.69-.15-.9-.25-1.78-.55-2.22-1.38-.82-1.56-2.02-2.82-2.74-4.52-1.61-3.8-4.35-6.88-7.59-9.44-1.39-1.1-2.92-2.01-4.82-2.21-1.62-.16-3.29-.03-4.88-.6-.62-.22-1.28.06-1.68.63-.52.76-1.07,1.5-1.17,2.48-.08.8-.56,1.19-1.39,1.36-1.84.39-3.08,1.52-3.84,3.67,1.76-1.35,3.52-1.31,5.39-1.43-.34.63-.91.26-1.31.66,1.74.38,3.41.51,5.08.7.89.1,1.13-.33,1.07-1.11-.06-.82-.28-1.63-.07-2.5-1.3.68-2.56.87-3.12.34-.32-.31-.38-.65-.68-.03-.03.07-.28.08-.41.04-.13-.05-.18-.17-.1-.36.32-.8,1.9-1.81,2.73-1.66,1.06.19,2.06.6,3.09,1.02-.11.16-.15.28-.24.32-.49.23-1.26.38-.92,1.11.31.68.97.2,1.48.08.04,0,.07-.03.1-.04.95-.49,1.53-.09,1.77.83.42,1.58.2,3.19-.96,4.29-1.13,1.08-2.26,2.17-3.48,3.15-1.39,1.11-2.02,1.06-3.42-.02-.3,1.17-.57,2.41-1.34,3.31-1.63,1.9-1.4,4.44-2.48,6.51-.07.13-.04.4.05.52.53.71.28,1.41.03,2.13-.63,1.81-.24,3.56.46,5.24.63,1.51,1.64,2.86,2.03,4.49.16.66.54,1.21.97,1.75.34-.27.61-.53.5-.95-.31-1.21.31-2.27.55-3.39.03-.12-.02-.38.18-.31.96.33.46-.3.27-.47-.4-.36-.47-.78-.59-1.26-.13-.51-.43-1.24-1.19-.5-.17.16-.34.16-.49.03-.22-.18-.33-.45-.17-.7.34-.51.43-1.09.57-1.77.17,1.43,1.31,1.94,2.21,2.67.44.36.52.95.36,1.46-.29.93.18,1.58.65,2.26.17.25.55.41.41.85-.49.05-.4-.61-.86-.63-.17.64-.76,1.25.02,1.91.12.1.11.36-.04.51-.2.19-.4.12-.6-.03-.17-.13-.28-.37-.59-.35-.18.4-.61.86-.3,1.28.52.7,1.68,1.13.63,2.25.63,1.08,1.21,2.21,1.92,3.23.31.44.91.67,1.45,1.04.08-.6-.68-.92-.34-1.49.92.59,1.16,2.15,2.69,1.85.07-.01.27.21.27.32-.03,1.01,1.02,1.63.85,2.69.63-.08,1.17-.44,1.72-.18.74.35,1.19-.06,1.67-.5.23-.21.32-.62.74-.59.33.83.87,1.61.42,2.55-.03.07.03.25.1.28.95.41,1.3,1.51,2.25,1.96.46.22,1.32.33,1.24.93-.08.6-.94.18-1.37.46-.06.04-.12.09-.19.14.39.37.85.66,1.36.75,1.6.3,2.64,1.3,3.53,2.56,1.23,1.75,2.25,3.63,3,5.62.59,1.56,2.04,2.21,3.1,3.26.12.12.35.13.52,0-.02-.22-.41-.31-.27-.6.59-.09,1.04.14,1.48.41.17-.47-.31-.87.05-1.25.59.19.15.93.62,1.17.9-.29,1.64-1.01,2.69-.95-.1.57-.52.67-.9.8-.25.09-.57.12-.43.49.11.29.4.32.67.28.77-.13,1.81-1.56,1.71-2.34-.03-.22-.07-.44-.1-.67-.03-.32.04-.61.37-.74.36-.14.54.14.73.37.3.36.45.85.95,1.05.14-.28-.11-.42-.19-.61-.25-.61-.77-1.25-.08-1.83.72-.6,1.48-.3,2.17.16.24.16.42.42.64.62.45.42.46.81-.01,1.22-.31.27-.73.57-.21.98.43.34.78-.02,1.07-.31.6-.6.21-1.24.04-1.89-.21-.79.09-1.46.8-1.77.85-.38.77.56,1.08.94.11.14.17.33.23.51.2.66.89.68,1.36.87.3.12.39-.62.78-.85.31-.18-.3-.58,0-.85.49-.08.15.66.67.58-.34-.72-.89-1.4-.94-2.12-.09-1.27-.61-1.08-1.42-.71-.54.25-1.05.79-1.84.53.3-.66,1.4-.41,1.16-1.41-.18-.77-.54-1.53-.18-2.41.14-.34-.41-.65-.84-.71-.22-.03-.45.03-.67.01-.19-.02-.36-.13-.34-.36.01-.19.18-.22.33-.19,1.25.26.88-.49.57-1.15.51.1.76.37.76.71-.03,1.21.76,1.69,1.72,2.02,1.18.41,2.28,1.5,3.65.49.05-.04.28.03.28.06.09,1.44,1,.91,1.79.78.2-.03.51.17.67.35.53.58,1.11.73,1.8.34.19-.11.63-2.33.48-2.37-.97-.29-.9-1.31-1.38-1.94-.41-.54-.75-.69-1.41-.48.56-.57-.18-1.24.27-1.9.34,1.02,1.24,1.47,1.64,2.34.44.94,1.44,1.2,2.13.73.74-.51.91-1.94.17-2.56-.68-.57-1.21-1.23-1.7-1.94-.14-.21-.66-.33-.32-.68.37-.38.59.07.8.29.92.98,1.69,2.1,2.79,2.9.21.15.34.6.7.22.28-.29.12-.54-.09-.78-.22-.25-.5-.48-.05-.81.99-.72.99-1.62-.03-2.51-.44-.39-.95-.71-1.53-1.15.75-.13,1.06.31,1.47.54.22.12.48.53.73.12.48-.77,1.13-.68,1.83-.35.11-1.05-.84-.79-1.36-1.26.77-.07.72-.75,1.15-1.12-1.75.12-2.59-2.11-4.72-1.66.71.29,1.29.16,1.66.73-.47.15-.86-.03-1.14-.18-.68-.37-1.06-.25-1.38.46-.39.85-1.22,1.11-2.07,1.1-4.08-.06-8.15.43-12.23.1-1.08-.09-2.09.04-3.06.49-1.31.62-2.65.73-4.05.36-2-.53-3.91-1.28-5.69-2.34-.53-.32-1.7-.47-1.4-1.06.26-.52,1.08.43,1.72.56.42.08.73.76,1.18.43.67-.49.86-.11,1.18.37.34.52,2.65,1.08,2.83.69.31-.68.66-.34,1.08-.26,1.02.19,1.99.74,3.07.46,1.77-.46,3.55-.44,5.35-.25.93.1,1.89.21,2.79-.18-.12-.55-.82-.29-.89-.98.96.6,1.91.49,2.87.35.43-.06.8.14,1.18.3,1.11.48,2.25.46,3.41.22.68-.14.91-.68,1-1.21.1-.6-.54-.51-.88-.62-2.25-.74-3.72-2.73-5.92-3.55,1.07-.21,1.83.36,2.61.86.88.56,1.71,1.21,2.61,1.75.99.59,2.05.68,3.12.19.44-.2.95-.41.84-1.03-.1-.59-.59-.71-1.1-.77-.48-.06-.98-.05-1.4-.33-.19-.12-.4-.27-.25-.54.13-.23.33-.09.49-.01.44.2.89.21,1.29-.04,1.36-.87,3.01-1.33,3.92-2.86-.11-.42-.9-.12-.95-.77,1.06,0,.95-.9,1.09-1.89.4.9.56,1.49.46,2.17-.23,1.55-.84,2.79-2.19,3.73-1.34.94-1.18,1.96.26,2.76,1.04.58,2.13.64,3.26.26.33-.11.65-.26.63-.68-.04-.72.39-.47.72-.35.5.18.98.43,1.41-.11-.2-.45-.8-.19-1.01-.58.1-.31.64.08.57-.31-.23-1.28-1.48-1.35-2.45-1.81.55-.55,1.15-.24,1.56-.17,1.03.18,2-.84,3.03-.1.15.11.51-.12.27-.37-.86-.87.31-.63.57-.85-1.05-.96-2.17-1.34-3.48-1.15-.36.05-.96.24-.98-.38-.02-.65.67.14.86-.37-1.04-.81.2-1.03.54-1.58-.36-.14-.65-.26-.95-.38-.21-.08-.53-.23-.34-.44.79-.89-.16-1.06-.55-1.47-.2-.21-.39-.45-.37-.8.4-.23,1.05.43,1.34-.5.26-.85-.09-1.13-.66-1.5-.27-.17-.49-.46-.49-.85.69-.34.88.29,1.25.6.2.17.46.26.73.13.19-.1.25-.27.24-.47-.02-.3-.19-.48-.48-.53-.55-.09-1.1-.19-1.66-.24-.53-.05-1.03-.02-.64-.81.18-.36-.08-.65-.41-.81-.54-.26-1.1-.47-1.63-.74-.35-.18-1.02-.06-.85-.77.15-.64.69-.47,1.11-.38,1,.2,1.39-.29,1.45-1.19.02-.33.02-.67,0-1-.02-.27-.08-.57.26-.65.38-.08.51.24.59.53.15.6.09,1.19-.13,1.76-.34.88.03,1.33.88,1.55,1.03.26,2.07.32,3.12.22.99-.1,1.54-.64,1.74-1.61.19-.94.28-1.81-.9-2.17-.11-.03-.18-.19-.27-.29.79.56,1.61.33,2.45.11-.52.52-.87,1.03-.81,1.73.13,1.7-1.03,2.54-2.31,3.08-.78.33-.92.71-.83,1.41.15,1.15.09,2.23-.92,3.06-.61.51-.23.8.33,1,1.31.47,1.92,1.62,1.58,2.98-.15.6-.3,1.22.3,1.64.61.43,1.37.52,2.04.27.72-.28.45-1.01.46-1.59,0-.18-.01-.38-.08-.55-.28-.73-.04-1.04.74-1.05.83,0,1.5-.41,2.05-1.01.21-.23.21-.46.03-.71-.13-.18-.3-.28-.46-.14-1.22,1.01-2.5.05-3.81.26.09-.17.11-.28.15-.29,2.83-.73,5.44-2.09,8.3-2.74,1.37-.31,2.59-.95,3.62-1.93.37-.35.72-.75.4-1.27-.37-.59-.86-.24-1.27-.02-1.09.59-2.17,1.22-3.49.74-.15-.05-.41,0-.52.11-1.18,1.14-2.8,1.35-4.22,1.97-.54.24-1.03.24-1.33-.37-.3-.61.14-.95.53-1.19,1.15-.72,2.45-1.09,3.77-1.36,3.95-.83,7.5-2.28,9.66-6,.12-.21.18-.56.54-.43.33.13.2.43.16.68-.26,1.69-.99,3.03-2.67,3.71-.82.33-1.24.67-.27,1.55,1.61,1.45,1.43,2.58-.33,3.87-.66.49-1.33.98-1.97,1.49-1.07.85-1.53,1.92-1.07,3.27.23.67.06,1.16-.52,1.55-.76.51-1.23,1.18-1.17,2.15.03.5-.32.82-.66,1.12-.65.59-1.4.99-2.25,1.22-.67.18-1.1.61-1.31,1.27-.79,2.58-2.4,4.27-5.14,4.71-.35.06-.55.11-.42.55.42,1.35.1,2.36-1.43,2.72,1.22,1.42,1.22,1.79.03,3.22-1.07,1.28-1.89,2.7-2.32,4.31-.42,1.6-1.35,2.8-2.67,3.75-.58.42-1.23.8-1.65,1.34-1.56,2.03-3.96,2.71-6.12,3.48-2.27.81-4.38,1.88-6.55,2.88-.44.2-.72.49-.86.96-.63,2.11-1.3,4.21-1.9,6.33-.34,1.21-.07,1.68,1.12,2.17.48.2.99.34,1.49.5.54.18,1.07.36,1.49.76.26.25.74.46.62.84-.14.44-.65.23-1,.22-1.21-.03-2.36-.35-3.51-.69-1.17-.35-2.35-.42-3.56-.25-.39.05-.78.15-.88.57-.09.37.23.61.5.81.62.47,1.21.97,1.48,1.86-1.3-.17-2.48-.24-3.64-.78ZM263.65,268.05c.96-.29,1.75-.85,2.32-1.67,1.58-2.27,1.68-4.98,2.16-7.57.06-.34-.18-.49-.5-.34-.51.23-1.13.37-1.37.91-1.12,2.47-2.55,4.82-3.21,7.49-.06.25-.1.51-.17.91-.02.5.41.38.76.28ZM278.56,251.45c.35.33.78.76,1.25.54.45-.22.62-.83.69-1.31.08-.51-.42-.76-.83-.93-.46-.19-1.03-.24-.53-.95.15-.21.01-.36-.14-.46-.53-.32-.83.34-1.33.33-.34,0-.25.38-.24.63.15.83.5,1.56,1.12,2.14ZM237.29,189.32c.07.41.63.89,1.12.92.41.02,1.07-.11,1.09-.72.03-.84-.71-.68-1.29-.77-.38.03-1.02.03-.92.58ZM246.34,240.35c.46.09.62-.23.66-.57.05-.4-.23-.66-.6-.64-.4.02-.63.35-.82.68.1.42.44.46.77.53ZM292.62,223.91c.19-.12.13-.43-.02-.59-.53-.56-.99-.03-1.76.15.72.37,1.17.82,1.78.44ZM240.73,237.76c.16.26.34.5.7.43.17-.03.29-.14.24-.3-.11-.3-.14-.66-.58-.73-.24-.04-.46-.18-.96-.39.29.48.44.73.59.98Z"/>
    <path class="cls-1" d="M240.64,270.01c.04-.18.15-.38.36-.37.31,0,.34.29.3.49-.18.96-.36,1.92-1.55,2.2-.77.18-.66.82-.54,1.37.15.73.61.29.95.18.38-.12.73-.14,1.03.17.36.36.3.59-.15.84-.18.1.02.32.22.36.76.15,1.04-.14.9-.92-.05-.28-.38-.76.09-.87.55-.14.43.48.56.77.2.48.32.99.47,1.49.08.26.14.55.49.49.27-.05.26-.33.28-.55.04-.48.08-.97.11-1.46.02-.21.1-.38.32-.39.29-.01.37.2.36.45-.02.52-.04,1.05-.08,1.57-.06.78-.23,1.47-1.28,1.15-.36-.11-.45.1-.52.39-.06.26-.23.36-.5.24-.71-.32-1.56.19-1.85.42-.85.69-1.26.27-1.8-.23-.61-.56-1.18-1.15-1.55-1.9-.16-.31-.37-.56-.71-.68-.31-.11-.63-.31-.93.01-.31.34-.06.63.11.91.1.16.27.27.37.42.2.31.85.48.53.95-.29.43-.75-.06-1.13-.09-.24-.02-.57-.16-.67-.34-.43-.81-1.03-.51-1.71-.45-.89.07-2.09,1.36-2.68-.46-.01-.04-.14-.07-.21-.06-.74.09-1.35-.33-2.01-.6-.24,1.61-.28,1.64-1.94,1.29-1.29-.27-2.2-1.92-1.69-3.11.31-.74.71-1.42.74-2.3.01-.48.22-1.18,1.33-.85,1.02.31,1.53.93,2.07,1.63,1.14,1.48,1.12,1.49,2.35.14.16-.17.27-.55.59-.29.3.24-.01.49-.12.68-.64,1.21-.6,1.29.78,1.32.37,0,.76,0,1.11-.1.83-.24.97-.87.71-1.59-.11-.32-.34-.68-.64-.09-.08.16-.16.37-.41.26-.21-.09-.19-.3-.21-.48-.04-.37.07-.68.45-.8.38-.13.74-.06,1.03.25.5.54.58,1.19.46,1.88-.06.35-.29.82.26.92.5.09.51-.42.65-.76.14-.33.23-.65.03-.96-1.21-1.9-1.87-4.22-4.14-5.29-.37-.17-.61-.49-.38-.91.25-.46.67-.42,1.08-.23.46.21.73.63.99,1.04.96,1.56,1.92,3.12,2.89,4.67.15.24.26.62.65.47.32-.13.21-.45.11-.68-.16-.39-.18-.63.37-.63.32,0,.27-.25.21-.49-.38-1.44-.08-3-.73-4.41-.12-.25-.16-.62.23-.75.33-.11.44.19.61.38.21.24.32.52.2.83-.28.71-.01,1.27.46,1.95.06-.54.11-.96.35-1.3.15-.21.59-.42.54-.07-.16,1.05,0,1.94.68,2.76.07.08-.04.29-.03.44.03.35.08.7.13,1.16.58-.45.56-.99.67-1.47ZM238.34,274.35c.28-.05.48-.22.39-.55-.1-.36-1.79-.97-2.07-.73-.29.25-.46.61-.44.99.02.27.28.32,1.33.3.26,0,.53.03.78,0ZM227.23,273.94c0-.05.02-.17,0-.18-.57-.29-.98-1.47-1.69-.76-.51.51.35,1.2.7,1.77.13.21.34.39.46.52,1.09-.21-1.41-1.36.53-1.35ZM230.04,273.85c-.32.06-.94-.17-.83.39.11.61.59,1.25,1.18,1.38.57.13.18-.56.33-.82-.06-.46.17-1.11-.68-.95ZM228.66,273.06c-.25-.53-.46-1.14-1.18-1.16-.22,0-.46.25-.36.46.3.64.69,1.22,1.58,1.07-.01-.16,0-.28-.03-.37Z"/>
    <path class="cls-1" d="M305.95,192.7c.37.65.81.86,1.45,1.03,2.08.55,2.92,2.26,2.13,4.25-.11.27-.35.5-.21.89,1.06,0,2.14,0,3.22,0,.22,0,.75.05.53.26-.59.54.12,1.15-.22,1.6-.37.49-.96.67-1.53.88-.36.13-1.02.02-1.03.46-.02.56.6.79,1.09.99.2.08.43.11.66.13.46.04.47.21.26.57-.48.81-1.16,1.33-2.05,1.65-.84.3-1.7.63-2.26,1.53.8.1,1.48.05,2.12.3.29.11.52.3.59.62.07.34-.17.46-.41.57-1.65.7-3.3,1.41-4.95,2.1-.19.08-.49.29-.61.06-.75-1.44-.87-.09-1.31.23-.63.45-1.26.79-.94,1.75.07.2-.29.38-.52.52-.97.61-1.78,1.51-3.05,1.53-.14,0-.38.11-.39.19-.1,1.35-1.28.58-1.81,1.04,1.27-1.34,2.54-2.64,4.01-3.73.73-.54,1.22-1.3,1.47-2.2.19-.68.02-1.09-.73-1.18-.33-.04-.88.09-.85-.47.03-.5.55-.48.89-.42,1.32.22,1.87-.98,2.83-1.4q-1.43.36-2.23.18c.68-.5,1.76-.16,2.43-1.11-.88-.26-1.51.65-2.33.19.56-.22,1.1-.32,1.5-.6.7-.5,1.15-.32,1.58.32.31.47.75.71,1.34.65.64-.07,1.06-.27.51-.99.64-.08,1.18.67,1.72,0-.21-.65-1.08-.62-1.4-1.38.74.14,1.13.63,1.63.9.39.21.85.27,1.1-.13.27-.43-.26-.52-.48-.73-.68-.64-1.67-.63-2.41-1.14-.28-.19-.65-.33-.95-.12-.51.37.51.47.17.89-.45-.1-.9-.25-.88-.81.03-.61.57-.54,1.02-.61,1.03-.17,2.05-.35,3.06-.62.7-.18.87-.79.76-1.43-.12-.68-.66-.38-1.07-.43-1.53-.19-2.59.75-3.74,1.5-.67.44-1.33.88-2,1.32-.06-.09-.11-.18-.17-.27,1.27-.87,2.41-1.92,3.83-2.58,1.24-.58,1.96-1.79,1.82-3.05-.19-1.65-2.15-2.76-3.4-1.76-1.01.8-2.33,1.39-2.73,2.83-.06.22-.19.55-.63.59.29-.9.54-1.78,1.28-2.32.97-.71,1.23-1.63,1.02-2.74-.21-1.1-1.04-1.21-2.07-1.06,1.3-.88,2.59-.61,3.38.78ZM310.48,203.46q-.79-1.62-2.72-1.15c1.01.43,1.8.76,2.72,1.15Z"/>
    <path class="cls-1" d="M284.35,268.62c-.03.46-.8,1.02-.29,1.25.56.26.61-.62.84-1.04.11-.2.25-.42.52-.29.28.14.16.38.05.58-.37.69-.74,1.38-1.14,2.05-.2.33-.44.63-.9.35-.56-.34-.74.05-.84.48-.11.44-.09.91-.24,1.32-.38,1-.2,1.61.97,1.69.18.01.4.07.36.32-.04.23-.26.3-.43.25-1.48-.51-3.17-.1-4.55-1.01-.63-.42-1.1-.35-1.52.26-.24.35-.57.76-.98.62-1.31-.45-2.33-.3-3.54.56-.88.63-2.28.54-3.55.79.14-.55.09-1.05-.47-1.33-.67-.34-1.21.09-1.63.43-.68.56-1.45.91-2.23,1.26-.58.25-1.2.2-1.4-.47-.22-.76-.06-1.54.36-2.38.35.49.26.87.3,1.23.12,1.24.25,1.32,1.35.76.97-.49,1.79-1.23,2.75-1.71.94-.48.97-.82.26-1.52-.69-.69-.58-1.29.19-1.56.3-.11.61-.15.91-.23.24.43-.17.72-.18,1.08,0,.14.04.3.12.41.1.14.3.11.39-.02.35-.51.89-.47,1.38-.64,1.04-.37,1.87-.32,2.77.15.23.12.43.09.63-.04.64-.44,1.4-.49,2.12-.67.52-.13,1.13-.15,1.16-.96.02-.42.55-.43.64-.19.57,1.42,1.44,1.22,2.45.57.06-.04.11-.08.2-.15-.38-.5-.19-1.51-1.02-1.54-.88-.04-.72-.6-.94-1.06.42-.15.51.42.86.23.18-.41-.43-.81,0-1.31.62,1.07.68,2.37,1.45,3.36.63-.54-.1-.94.02-1.46,1.19.27,1.41-.75,1.84-1.49.37.46-.33.87.04,1.28.38.02.46-.54.87-.42.03.07.07.14.07.2ZM275.54,273.63c-.24.17-.51.4-.27.74.2.28.5.47.87.38.36-.09.47-.32.27-.67-.22-.37.12-.44.33-.55.37-.2.62-.47.66-1.2-.74.52-1.31.9-1.85,1.3Z"/>
    <path class="cls-1" d="M292.11,272.05c-.11,1.59.4,1.39,1.12.95.79-.48,1.61-.93,2.52-1.2.31-.09.62-.29.86-.52.33-.31.96-.64.57-1.16-.49-.64-.8.12-1.15.35-.78.5-1.26,1.37-2.18,1.72-.52.2-1.02.78-1.3-.23-.02-.07-.24-.17-.27-.15-.79.69-1.9-.36-2.64.62-.21-.53.52-.48.33-.94-1.08.08-1.89.88-2.98,1.23.02-.89.45-1.42,1.23-1.5,1.49-.14,1.93-1.52,2.88-2.28-.63-.7.03-1.38.02-2.06,0-.05-.21-.16-.26-.13-.11.07-.26.2-.27.32-.27,2-1.6,3-3.24,3.98-1.17.7-1.89,2.09-2.48,3.38-.26.56.03,1.02.61,1.25,1.04.39,2.07.16,3.09-.08.12-.03.3-.16.32-.27.37-1.68,2.18-1.78,3.23-3.27Z"/>
    <path class="cls-1" d="M254.98,275.09c-.76.18-1.4.59-2,1.08-.52.43-1.02.88-1.57,1.26-.98.68-1.33.51-1.51-.64-.09-.58-.45-1.04-.82-1.44-.35-.38-.84-.34-1.1.18-.22.43-.36.9-.51,1.36-.21.62-.39,1.35.13,1.79.45.39,1.11-.01,1.68-.05,2.57-.16,4.04-1.99,5.71-3.54Z"/>
    <path class="cls-1" d="M262.1,275.15c-.05-.51-.09-.99-.14-1.48-.04-.39.26-.99-.55-.9-.61.07-1.28.1-1.1,1,.11.57.04.78-.6.54-.63-.24-.73.1-.48.62.11.24.28.45.37.69.31.84.89,1.36,1.78,1.17.9-.19.6-1.06.73-1.65Z"/>
    <path class="cls-1" d="M278.1,239.58c.11.76-.47.94-1.05,1.12-.74.24-1.46.38-1.49,1.48-.02.74-.65.43-1.12.26-.32-.11-.62-.58-.97-.25-.22.2-.39.6-.24.92.2.42.67.47,1.07.46.86-.03,1.63-.27,1.78-1.28.12-.76.68-.96,1.3-1.2.76-.29,1.62-.6,1.26-1.73-.08-.24-.19-.55-.53-.41-.33.13-.08.36,0,.61Z"/>
    <path class="cls-1" d="M247.39,264.32c.4.99.81,1.99,1.21,2.98-1.75-.88-1.9-2.94-3.27-4.22-.16.86.49,1.35.76,1.89.67,1.33,1.26,2.82,2.85,3.42.26.1.76.29.61-.16-.47-1.4-1.17-2.72-2.16-3.9Z"/>
    <path class="cls-1" d="M287.51,218.36c-.45,1.74-1.35,2.93-3.29,2.95.08.55,1.1.26.75.94-.34.65-.77,1.29-1.66,1.33-.32.02-.68-.16-.95.15-.04.04,0,.24.06.27.36.19.74.1,1.09,0,.94-.26,1.72-.76,1.92-1.81.11-.56.46-.89.88-1.23.83-.65,1.38-1.47,1.2-2.61Z"/>
    <path class="cls-1" d="M264.85,231.17c.4-.6.88-.85,1.51-1.08.98-.35,1.01-1.41,1.14-2.27.09-.61-.24-1.12-.9-1.34-.28.39.05.58.18.82.23.42-.04,2.07-.42,2.32-.44.29-.78.12-.98-.34-.15-.35-.04-.82-.63-1.18.05,1.08.28,2.06.1,3.06Z"/>
    <path class="cls-1" d="M296.17,206.18c-.7,0-.67.06-1.33.43-.53.29-1.08,1.15-1.77.16-.05-.08-.28-.09-.4-.04-.21.08-.22.3-.13.47.41.85.07,1.34-.74,1.63-.16.06-.36.16-.28.4.08.22.28.21.47.21.31,0,.66-.09.79-.35.7-1.4,2.05-2.07,3.4-2.92Z"/>
    <path class="cls-1" d="M259.85,252.78c1.22-.44,1.57-1.1,1.34-2.15-.35-1.63-1.5-2.86-2.68-2.78,1.56,1.29,3.04,2.58,1.33,4.93Z"/>
    <path class="cls-1" d="M296.22,208.93c.4-.09.87-.2,1.34-.31.57-.13.4-.54.29-.87-.13-.39-.4-.38-.68-.13-.27.23-.54.34-.89.1-.44-.3-.76.08-1.1.26-.21.11-.2.28-.05.45.28.31.59.56,1.11.5Z"/>
    <path class="cls-1" d="M279.33,224.92c0,.69.02,1.05,0,1.41-.04.64-.33,1.07-1.04,1.03-.35-.02-.68-.08-.81.37-.05.18-.13.39.06.51.34.21.64-.04.94-.16,1.45-.62,1.74-1.48.86-3.16Z"/>
    <path class="cls-1" d="M267.4,249.58c-.5.72-1.15.91-1.83,1.07-.63.15-1.26.38-1.54,1.14,3.25-1.07,3.34-1.12,3.36-2.21Z"/>
    <path class="cls-1" d="M241.66,234.99c.02.3,1.47,1.97,1.72,1.99.39.03.48-.25.33-.49-.41-.66-.88-1.28-1.57-1.68-.2-.11-.44-.1-.47.18Z"/>
    <path class="cls-1" d="M277.9,219.39c-.04.46,1.48,1.63,1.89,1.48.3-.11.44-.39.19-.6-.54-.43-1.14-.81-1.74-1.16-.19-.11-.3.12-.35.28Z"/>
    <path class="cls-1" d="M279.93,239.2c.35.39,1.31.45.54,1.27-.11.12.18.28.35.34.26.09.43-.08.55-.27.36-.58.08-1.04-.27-1.51-.57-.78-.72.35-1.17.18Z"/>
    <path class="cls-1" d="M259.41,213.01c1.4.47,2.81.94,4.21,1.41.03-.1.06-.19.1-.29-1.35-.63-2.74-1.16-4.31-1.12Z"/>
    <path class="cls-1" d="M299.19,198.73c.45-.53.88-1.03,1.28-1.54.16-.21.27-.53-.17-.54-.82-.01-1.53,1.24-1.11,2.08Z"/>
    <path class="cls-1" d="M269.87,232.25c-.15.55-.08,1.27-.92,1.25-.23,0-.47.04-.38.38.09.31.29.52.6.61.24.07.52.03.58-.19.19-.64.31-1.31.45-1.96-.11-.03-.22-.06-.33-.09Z"/>
    <path class="cls-1" d="M298.72,199.01c-1.58-.39-1.73,1.02-1.64,2.91.97-.79-.13-2.63,1.64-2.91Z"/>
    <path class="cls-1" d="M262.37,227.11c.88-1.1.92-2.37.13-3.65.14,1.23.38,2.46-.13,3.65Z"/>
    <path class="cls-1" d="M233.41,216.79c-.03-.47-.19-.84-.68-.89-.42-.04-.49.28-.4.6.12.42.22.95.77.96.45.01.27-.43.31-.67Z"/>
    <path class="cls-1" d="M281.32,265.15c-.54.47-.11.88-.34,1.2-.28.01-.26-.45-.63-.35.06.5.13,1.01.57,1.34.18.14.36-.04.44-.2.32-.63.19-1.25-.04-1.99Z"/>
    <path class="cls-1" d="M234.92,219.26c-.07-.76-.62-1.47.12-2.17.19-.18.01-.34-.15-.43-.27-.14-.43.05-.51.26-.35.9-.14,1.69.53,2.34Z"/>
    <path class="cls-1" d="M286.25,271.26c-.81-.09-1.3.19-1.66.72-.1.15-.24.32-.04.49.19.16.35.03.48-.09.38-.34.75-.69,1.21-1.12Z"/>
    <path class="cls-1" d="M277.69,214.59c-.23-.82-.96-1.03-1.55-1.41-.15-.1-.3-.04-.34.13-.05.21.09.35.26.44.54.29,1.09.56,1.63.84Z"/>
    <path class="cls-1" d="M274.96,239.02c.11.4.51.39.77.57.23.16.51.61.76.06.18-.38-.11-.64-.44-.77-.37-.14-.77-.29-1.1.13Z"/>
    <path class="cls-1" d="M299.76,204.98c.68-.48,1.37-.96,2.05-1.44-.95.06-1.58.62-2.23,1.16.06.1.12.19.18.29Z"/>
    <path class="cls-1" d="M266.26,215.52c.71.59,1.52,1.01,2.43,1.22-.7-.62-1.45-1.15-2.43-1.22Z"/>
    <path class="cls-1" d="M237.43,218.02c-.25.93-.07,1.75.68,2.42-.23-.81-.45-1.61-.68-2.42Z"/>
  </g>
  <path class="cls-1" d="M211.17,376.22c-49.84,0-96.69-19.41-131.93-54.65-35.24-35.24-54.65-82.1-54.65-131.93s19.41-96.69,54.65-131.93S161.33,3.05,211.17,3.05s96.69,19.41,131.93,54.65c35.24,35.24,54.65,82.1,54.65,131.93s-19.41,96.69-54.65,131.93c-35.24,35.24-82.1,54.65-131.93,54.65ZM211.17,4.33C108.99,4.33,25.86,87.46,25.86,189.64s83.13,185.3,185.3,185.3,185.3-83.13,185.3-185.3S313.34,4.33,211.17,4.33Z"/>
  <path class="cls-1" d="M211.17,315.06c-69.16,0-125.43-56.27-125.43-125.43s56.27-125.43,125.43-125.43,125.43,56.27,125.43,125.43-56.27,125.43-125.43,125.43ZM211.17,65.49c-68.46,0-124.15,55.69-124.15,124.15s55.69,124.15,124.15,124.15,124.15-55.69,124.15-124.15-55.69-124.15-124.15-124.15Z"/>
  <g>
    <path class="cls-1" d="M51.65,152.34l3.77.67-1.1,6.21,19.52,3.47-.83,4.67-19.52-3.47-1.1,6.21-3.77-.67,3.03-17.08Z"/>
    <path class="cls-1" d="M66.37,123.13l15.84,11.47-1.72,4.82-13.5-1.18,11.21,7.63-1.73,4.85-19.54-1.1,1.61-4.53,14.59,1.67-12.27-8.18,1.68-4.72,14.62,1.47-12.33-7.92,1.52-4.28Z"/>
    <path class="cls-1" d="M86.76,109.15l-6.74,11.96c1.24.57,2.4.68,3.47.32,1.08-.35,1.92-1.06,2.52-2.12.86-1.54.82-3-.13-4.39l2.51-4.46c1.31,1.36,2.09,2.99,2.35,4.9.26,1.91-.16,3.84-1.26,5.79-.89,1.58-2.03,2.79-3.44,3.65-1.4.86-2.94,1.27-4.61,1.25-1.67-.02-3.35-.5-5.02-1.45-1.69-.95-2.99-2.13-3.88-3.54-.89-1.41-1.33-2.93-1.32-4.56,0-1.63.47-3.25,1.38-4.86.88-1.55,2-2.76,3.36-3.61,1.36-.85,2.85-1.27,4.46-1.26,1.61.01,3.22.47,4.81,1.37.59.33,1.1.67,1.53,1.02ZM81.64,111.75c-1.07-.58-2.14-.67-3.2-.29-1.06.39-1.9,1.12-2.51,2.21-.58,1.02-.75,2.06-.53,3.11.23,1.05.85,1.96,1.86,2.74l4.37-7.77Z"/>
    <path class="cls-1" d="M96.87,78.68l11.1,16.1-3.23,3.97-12.34-5.62,8.02,10.93-3.25,4-18.05-7.56,3.04-3.73,13.19,6.45-8.83-11.81,3.16-3.89,13.29,6.27-8.97-11.58,2.86-3.52Z"/>
    <path class="cls-1" d="M103.32,78.75c-.39-1.61-.35-3.13.12-4.58.47-1.45,1.31-2.7,2.52-3.74,1.06-.92,2.17-1.5,3.34-1.76,1.16-.26,2.27-.27,3.31-.03l-1.75-2.03,3.62-3.12,12.27,14.21-3.62,3.12-1.79-2.08c.11,1.07-.05,2.17-.48,3.3-.44,1.14-1.18,2.16-2.24,3.08-1.2,1.03-2.55,1.67-4.07,1.9-1.51.23-3.04.04-4.58-.59-1.54-.63-2.94-1.67-4.19-3.12-1.24-1.44-2.05-2.96-2.44-4.56ZM114.54,71.91c-.88-.33-1.76-.41-2.63-.24-.87.17-1.64.54-2.3,1.12s-1.14,1.27-1.43,2.08c-.28.81-.33,1.68-.14,2.61.19.93.65,1.82,1.39,2.67.74.86,1.56,1.45,2.46,1.79.9.34,1.79.43,2.66.28.87-.15,1.63-.51,2.28-1.07.67-.58,1.15-1.28,1.44-2.12.29-.84.34-1.71.15-2.63-.2-.92-.67-1.82-1.42-2.69-.75-.87-1.57-1.47-2.45-1.8Z"/>
    <path class="cls-1" d="M122.07,63.17c-.13-1.65.15-3.15.84-4.51.69-1.36,1.71-2.46,3.08-3.3,1.19-.74,2.38-1.14,3.57-1.22,1.19-.07,2.28.09,3.27.48l-1.41-2.28,4.06-2.52,9.89,15.96-4.06,2.52-1.45-2.33c-.05,1.07-.39,2.13-.99,3.19-.61,1.05-1.51,1.95-2.7,2.69-1.34.83-2.78,1.25-4.32,1.24-1.53,0-3.01-.44-4.43-1.3-1.42-.86-2.64-2.1-3.65-3.74-1-1.61-1.56-3.24-1.7-4.89ZM134.23,58.17c-.82-.46-1.67-.68-2.56-.65-.89.03-1.7.28-2.45.74-.75.46-1.33,1.08-1.73,1.83-.41.76-.59,1.61-.55,2.55.04.95.36,1.9.95,2.86.6.96,1.31,1.68,2.15,2.15s1.7.71,2.58.69c.88-.01,1.69-.25,2.42-.7.75-.46,1.33-1.09,1.75-1.86.42-.78.61-1.64.56-2.58-.05-.94-.38-1.9-.99-2.88s-1.32-1.7-2.14-2.16Z"/>
    <path class="cls-1" d="M157.89,39.79l.22,30-4.64,1.99.05-10.2-14.13-13.85,4.89-2.1,9.62,10.14-.65-13.99,4.64-1.99Z"/>
    <path class="cls-1" d="M170.08,54.83c-1.6-.4-2.99-1.21-4.17-2.42-1.17-1.21-2.01-2.74-2.5-4.6-.49-1.86-.52-3.6-.08-5.24.44-1.64,1.27-3.03,2.48-4.18,1.21-1.15,2.69-1.96,4.44-2.42,1.75-.46,3.43-.5,5.06-.1,1.63.4,3.04,1.2,4.23,2.4,1.2,1.2,2.04,2.73,2.53,4.59.49,1.86.51,3.61.04,5.25-.46,1.64-1.31,3.04-2.53,4.2-1.22,1.16-2.72,1.97-4.49,2.44-1.75.46-3.42.49-5.03.09ZM176.22,49.51c.62-.6,1.05-1.36,1.27-2.28.22-.92.18-1.96-.13-3.12-.46-1.72-1.26-2.93-2.42-3.62-1.15-.69-2.38-.86-3.69-.51-1.31.35-2.28,1.1-2.92,2.27-.64,1.16-.73,2.61-.27,4.33.46,1.72,1.24,2.94,2.35,3.64,1.11.7,2.32.87,3.63.53.83-.22,1.56-.63,2.18-1.23Z"/>
    <path class="cls-1" d="M209.04,45.16l-9.41.44-1.35,4.57-4.98.23,7.39-24.06,5.52-.26,9.6,23.27-5.01.23-1.77-4.43ZM207.57,41.43l-3.88-9.73-2.96,10.04,6.84-.32Z"/>
    <path class="cls-1" d="M231.16,32.72c.99.67,1.74,1.48,2.25,2.42l.3-2.66,4.75.54-2.14,18.79c-.2,1.73-.72,3.23-1.57,4.51-.85,1.28-2.02,2.24-3.5,2.88-1.48.64-3.21.84-5.19.62-2.65-.3-4.75-1.17-6.3-2.6-1.55-1.43-2.32-3.22-2.3-5.38l4.68.53c.15.88.61,1.62,1.37,2.22.76.6,1.73.96,2.89,1.1,1.37.16,2.53-.13,3.47-.85.95-.72,1.51-1.91,1.7-3.57l.33-2.9c-.71.81-1.63,1.44-2.76,1.9-1.13.46-2.38.61-3.75.46-1.57-.18-2.96-.75-4.17-1.7-1.21-.96-2.11-2.21-2.69-3.77-.58-1.56-.77-3.29-.55-5.2.22-1.89.78-3.51,1.7-4.89.92-1.37,2.07-2.38,3.45-3.02,1.38-.64,2.87-.87,4.46-.68,1.39.16,2.58.57,3.58,1.24ZM232.31,38.79c-.36-.87-.89-1.57-1.6-2.09-.71-.52-1.51-.84-2.38-.94s-1.71.02-2.5.36c-.79.34-1.46.9-2.01,1.66-.55.77-.89,1.71-1.02,2.83-.13,1.12,0,2.13.35,3.02.36.89.9,1.61,1.6,2.14.7.54,1.48.85,2.33.95.88.1,1.72-.03,2.53-.38.81-.35,1.49-.91,2.03-1.68.54-.77.88-1.72,1.01-2.87.13-1.14.02-2.15-.34-3.02Z"/>
    <path class="cls-1" d="M251.41,36.68c1.09-.31,2.25-.32,3.48-.02l-1.18,4.84-1.22-.3c-1.45-.35-2.62-.28-3.52.22-.9.5-1.56,1.6-1.97,3.29l-2.22,9.09-4.61-1.13,4.46-18.24,4.61,1.13-.69,2.83c.83-.82,1.79-1.39,2.88-1.7Z"/>
    <path class="cls-1" d="M263.34,39.72l-5.9,17.82-4.5-1.49,5.9-17.82,4.5,1.49ZM260.1,35.45c-.36-.68-.41-1.39-.16-2.14.25-.75.72-1.29,1.41-1.62.69-.33,1.44-.36,2.23-.1.79.26,1.37.73,1.73,1.41.36.68.41,1.39.16,2.14-.25.75-.72,1.29-1.41,1.62-.69.33-1.44.36-2.23.1-.79-.26-1.37-.73-1.73-1.41Z"/>
    <path class="cls-1" d="M275.57,45.16c1.21-.06,2.44.19,3.69.77,1.46.67,2.61,1.64,3.46,2.9.85,1.26,1.31,2.71,1.39,4.35.08,1.64-.29,3.33-1.09,5.08-.8,1.74-1.86,3.13-3.17,4.16-1.31,1.03-2.72,1.64-4.24,1.83-1.52.19-3.01-.04-4.47-.71-1.27-.59-2.27-1.35-2.99-2.29s-1.19-1.95-1.39-3.01l-1.12,2.43-4.31-1.99,10.49-22.78,4.31,1.99-3.79,8.22c.93-.57,2-.88,3.21-.94ZM279.22,53.27c-.08-.94-.37-1.77-.88-2.47-.51-.71-1.16-1.24-1.96-1.61-.78-.36-1.61-.5-2.48-.41-.87.08-1.69.41-2.46.97-.77.57-1.39,1.36-1.86,2.39-.47,1.03-.67,2.02-.6,2.97.07.95.36,1.79.86,2.5.5.72,1.14,1.25,1.92,1.61.8.37,1.64.51,2.52.41.88-.09,1.7-.42,2.47-.99.77-.57,1.4-1.37,1.88-2.42.47-1.03.67-2.01.6-2.95Z"/>
    <path class="cls-1" d="M306.43,62.42l-10.41,15.62-3.98-2.65,1.32-1.97c-.96.34-1.98.43-3.05.27-1.07-.16-2.09-.56-3.05-1.2-1.22-.81-2.13-1.79-2.73-2.94-.6-1.14-.83-2.4-.69-3.76.13-1.36.67-2.74,1.59-4.13l6.11-9.17,3.95,2.63-5.73,8.6c-.83,1.24-1.15,2.4-.98,3.48.18,1.08.8,1.98,1.87,2.69,1.09.73,2.17.96,3.23.71,1.06-.25,2.01-1,2.84-2.24l5.73-8.6,3.98,2.65Z"/>
    <path class="cls-1" d="M301.65,82.17c-.54-1.22-.76-2.43-.67-3.61.1-1.18.51-2.23,1.22-3.13l3.57,3.18c-.41.6-.55,1.28-.4,2.05.15.77.57,1.46,1.26,2.08.67.6,1.32.94,1.94,1,.62.07,1.12-.11,1.49-.53.41-.46.48-1,.22-1.64-.26-.64-.78-1.55-1.55-2.72-.82-1.18-1.44-2.21-1.87-3.07-.43-.86-.63-1.79-.62-2.77s.44-1.95,1.28-2.89c.69-.78,1.55-1.29,2.56-1.53,1.02-.24,2.11-.18,3.28.19,1.17.37,2.31,1.06,3.44,2.07,1.67,1.49,2.63,3.09,2.88,4.81.25,1.72-.2,3.34-1.36,4.84l-3.39-3.02c.45-.6.61-1.25.49-1.95s-.53-1.35-1.22-1.97c-.64-.57-1.24-.89-1.8-.96-.56-.07-1.02.1-1.4.52-.42.47-.5,1.04-.25,1.71.25.67.77,1.57,1.54,2.71.79,1.15,1.39,2.16,1.81,3.02.42.86.62,1.78.59,2.77-.02.99-.44,1.96-1.25,2.9-.72.81-1.59,1.34-2.61,1.58-1.02.24-2.11.17-3.26-.21-1.16-.38-2.29-1.07-3.41-2.06-1.15-1.02-1.99-2.15-2.54-3.37Z"/>
    <path class="cls-1" d="M329.11,83.45l-13.76,12.77-3.23-3.48,13.76-12.77,3.23,3.48ZM328.32,78.15c.01-.77.31-1.42.89-1.96.58-.54,1.25-.78,2.02-.74.77.04,1.43.37,2,.99.57.61.85,1.3.83,2.07-.01.77-.31,1.42-.89,1.96-.58.54-1.25.78-2.02.74-.77-.04-1.43-.37-2-.99-.57-.61-.85-1.3-.83-2.07Z"/>
    <path class="cls-1" d="M341.25,101.73c-.31,1.95-1.48,3.68-3.51,5.19l-8.84,6.57-2.83-3.81,8.32-6.19c1.2-.89,1.89-1.87,2.09-2.95.2-1.08-.09-2.13-.85-3.17-.78-1.05-1.72-1.64-2.82-1.77-1.1-.13-2.24.25-3.44,1.14l-8.32,6.19-2.83-3.81,15.07-11.2,2.83,3.81-1.88,1.39c1.03.02,2.02.29,2.98.8.96.51,1.79,1.24,2.49,2.18,1.33,1.8,1.85,3.67,1.54,5.62Z"/>
    <path class="cls-1" d="M346,128.15l-6.47-12.1c-1.14.74-1.86,1.66-2.14,2.76-.28,1.1-.14,2.19.44,3.26.83,1.55,2.09,2.3,3.78,2.25l2.41,4.51c-1.85.37-3.65.16-5.4-.65-1.75-.81-3.15-2.2-4.21-4.17-.85-1.59-1.26-3.21-1.23-4.86.03-1.64.5-3.16,1.42-4.56.92-1.4,2.22-2.55,3.92-3.46,1.71-.92,3.4-1.37,5.07-1.37,1.67,0,3.19.45,4.55,1.33,1.37.88,2.49,2.14,3.36,3.77.84,1.57,1.26,3.16,1.24,4.77-.01,1.61-.46,3.09-1.33,4.44-.88,1.35-2.12,2.46-3.74,3.32-.6.32-1.16.57-1.68.74ZM346.56,122.43c1.07-.6,1.72-1.44,1.96-2.55.24-1.1.07-2.2-.51-3.3-.55-1.04-1.33-1.74-2.34-2.11-1.01-.37-2.11-.34-3.31.1l4.2,7.86Z"/>
    <path class="cls-1" d="M341.55,137.23c.09-1.34.46-2.5,1.11-3.5.64-1,1.49-1.73,2.55-2.19l1.66,4.48c-.65.34-1.08.88-1.31,1.63-.23.75-.18,1.56.14,2.42.31.85.73,1.45,1.24,1.8.52.35,1.04.43,1.57.23.57-.21.89-.66.96-1.35.07-.69.04-1.73-.09-3.13-.17-1.43-.24-2.63-.21-3.59.03-.96.28-1.88.76-2.74.48-.86,1.31-1.51,2.49-1.95.97-.36,1.97-.41,2.98-.15,1.01.26,1.95.83,2.8,1.71.85.88,1.55,2.02,2.07,3.44.78,2.1.87,3.96.29,5.6-.59,1.64-1.74,2.85-3.48,3.64l-1.58-4.26c.68-.32,1.12-.82,1.34-1.49.22-.67.17-1.44-.15-2.31-.3-.81-.68-1.37-1.13-1.69-.46-.32-.95-.39-1.48-.19-.59.22-.93.68-1.02,1.39-.09.71-.06,1.74.09,3.11.15,1.39.21,2.56.18,3.51-.03.95-.29,1.86-.78,2.73-.49.87-1.31,1.53-2.46,1.98-1.02.38-2.03.43-3.04.17-1.01-.26-1.94-.83-2.79-1.71-.84-.88-1.53-2.02-2.04-3.42-.53-1.44-.75-2.83-.66-4.17Z"/>
    <path class="cls-1" d="M347.12,154.12c.26-1.31.78-2.42,1.54-3.33.76-.91,1.7-1.52,2.81-1.85l1.08,4.66c-.68.25-1.19.73-1.51,1.44-.32.71-.38,1.52-.17,2.42.2.88.54,1.53,1.01,1.94.47.41.98.56,1.53.43.59-.14.97-.54,1.13-1.22.16-.67.26-1.71.31-3.11.01-1.44.1-2.64.25-3.59.15-.95.52-1.82,1.1-2.62.58-.8,1.49-1.34,2.72-1.62,1.01-.23,2-.16,2.98.23.97.39,1.82,1.07,2.56,2.05.74.98,1.27,2.2,1.62,3.68.5,2.18.36,4.04-.43,5.59-.79,1.55-2.09,2.61-3.91,3.17l-1.02-4.42c.71-.23,1.22-.67,1.52-1.31.3-.64.35-1.41.14-2.31-.19-.84-.5-1.44-.91-1.82-.41-.38-.89-.51-1.44-.38-.62.14-1.01.56-1.19,1.25-.18.69-.28,1.72-.31,3.1-.02,1.4-.11,2.57-.27,3.51-.15.94-.53,1.81-1.12,2.61-.59.8-1.49,1.35-2.7,1.65-1.06.24-2.07.17-3.04-.22-.97-.39-1.82-1.07-2.54-2.06-.73-.98-1.26-2.2-1.59-3.65-.35-1.5-.39-2.9-.12-4.22Z"/>
  </g>
  <g>
    <path class="cls-1" d="M83.36,268.95c1.95-.2,3.8.11,5.55.93,1.75.82,3.23,2.08,4.44,3.78,1.42,1.99,2.15,4.1,2.2,6.32.05,2.22-.62,4.28-2,6.16l-2.93-4.11c.56-1.01.79-2.04.69-3.09-.1-1.04-.5-2.05-1.19-3.02-.74-1.04-1.64-1.79-2.7-2.25-1.06-.46-2.19-.6-3.4-.42-1.21.18-2.4.69-3.59,1.54-1.17.84-2.05,1.8-2.62,2.89-.57,1.09-.81,2.21-.72,3.36.09,1.15.51,2.25,1.25,3.29.69.97,1.52,1.67,2.48,2.1.96.43,2.01.55,3.15.35l2.93,4.11c-2.24.7-4.4.67-6.48-.1-2.07-.77-3.82-2.15-5.26-4.16-1.21-1.7-1.92-3.51-2.12-5.43-.2-1.92.1-3.77.92-5.54s2.1-3.28,3.85-4.53c1.75-1.25,3.6-1.97,5.55-2.17Z"/>
    <path class="cls-1" d="M87.89,300.92c-.39-1.48-.35-2.96.1-4.45.45-1.49,1.32-2.85,2.61-4.07,1.28-1.23,2.69-2.02,4.21-2.4,1.52-.37,3.02-.32,4.5.15,1.47.47,2.79,1.31,3.94,2.52,1.15,1.21,1.93,2.56,2.33,4.05.4,1.49.38,2.99-.06,4.5-.44,1.5-1.3,2.87-2.59,4.1-1.28,1.23-2.7,2.02-4.23,2.37-1.54.36-3.05.3-4.53-.18-1.48-.48-2.81-1.33-3.97-2.55-1.15-1.21-1.93-2.55-2.31-4.03ZM94.93,303.53c.76.24,1.57.24,2.42.01.85-.23,1.67-.73,2.47-1.49,1.19-1.14,1.81-2.33,1.85-3.57.04-1.24-.37-2.31-1.23-3.22-.87-.91-1.91-1.36-3.14-1.36-1.23,0-2.44.57-3.63,1.71-1.19,1.14-1.83,2.31-1.9,3.52-.07,1.21.32,2.27,1.19,3.17.55.57,1.2.98,1.97,1.22Z"/>
    <path class="cls-1" d="M131.34,318.66c.27,1.83-.29,3.68-1.68,5.56l-6.06,8.19-3.53-2.61,5.7-7.71c.81-1.09,1.15-2.13,1.02-3.12-.13-.99-.67-1.84-1.62-2.55-.96-.71-1.93-.98-2.92-.82-.99.16-1.89.79-2.7,1.88l-5.7,7.71-3.53-2.61,5.7-7.71c.81-1.09,1.15-2.13,1.02-3.12-.13-.99-.67-1.84-1.62-2.55-.97-.72-1.96-1-2.95-.84-.99.16-1.89.79-2.7,1.88l-5.7,7.71-3.53-2.61,10.33-13.95,3.53,2.61-1.25,1.69c.89-.25,1.81-.28,2.78-.09.96.19,1.87.61,2.73,1.24,1.09.81,1.89,1.76,2.41,2.85.51,1.1.69,2.25.53,3.45,1.05-.47,2.19-.63,3.41-.48,1.22.15,2.34.6,3.35,1.35,1.71,1.27,2.71,2.81,2.98,4.64Z"/>
    <path class="cls-1" d="M143.03,323.32c1.13-.04,2.26.23,3.4.8,1.33.66,2.37,1.58,3.12,2.77.75,1.19,1.14,2.54,1.17,4.06.03,1.52-.35,3.07-1.14,4.66-.79,1.59-1.8,2.84-3.04,3.76-1.24.91-2.56,1.44-3.97,1.58-1.41.14-2.78-.12-4.11-.78-1.14-.57-2.03-1.3-2.67-2.2-.64-.9-1.05-1.84-1.24-2.82l-4.78,9.63-3.93-1.95,11.39-22.96,3.93,1.95-1.11,2.25c.86-.46,1.85-.71,2.98-.74ZM146.19,330.9c-.04-.87-.29-1.64-.74-2.31-.45-.67-1.04-1.18-1.77-1.54-.71-.35-1.47-.5-2.28-.45-.81.05-1.58.33-2.3.83-.73.5-1.32,1.22-1.79,2.16-.46.94-.68,1.84-.64,2.73.04.88.28,1.66.73,2.34.45.68,1.02,1.19,1.73,1.54.73.36,1.5.51,2.31.45.81-.06,1.58-.35,2.31-.85.73-.5,1.33-1.23,1.8-2.18.46-.94.67-1.84.63-2.71Z"/>
    <path class="cls-1" d="M154.62,332.57c1.09-1.07,2.32-1.76,3.69-2.07,1.37-.31,2.76-.24,4.17.23,1.23.41,2.22,1.01,2.98,1.82.76.8,1.29,1.67,1.59,2.61l.78-2.35,4.19,1.39-5.48,16.47-4.19-1.39.8-2.41c-.79.6-1.74.99-2.85,1.18-1.11.19-2.28.08-3.51-.32-1.39-.46-2.53-1.24-3.44-2.33-.9-1.09-1.47-2.4-1.7-3.92-.23-1.52-.07-3.12.49-4.81.55-1.67,1.38-3.03,2.47-4.1ZM165.36,338.24c-.16-.86-.51-1.59-1.05-2.2-.55-.61-1.2-1.04-1.98-1.3-.77-.26-1.55-.31-2.33-.15-.78.16-1.49.53-2.14,1.12-.65.59-1.13,1.38-1.46,2.37-.33.99-.41,1.93-.26,2.8.16.88.5,1.63,1.04,2.24.53.62,1.17,1.05,1.93,1.3.77.26,1.56.3,2.36.14.8-.16,1.52-.54,2.16-1.13.64-.59,1.12-1.39,1.46-2.4.34-1.01.43-1.94.27-2.8Z"/>
    <path class="cls-1" d="M189.79,339.47c1.02,1.52,1.31,3.42.88,5.72l-1.85,10.01-4.31-.8,1.74-9.43c.25-1.36.1-2.46-.44-3.32-.54-.85-1.4-1.39-2.57-1.61-1.19-.22-2.2-.03-3.02.57-.82.6-1.36,1.58-1.61,2.94l-1.75,9.43-4.31-.8,3.16-17.07,4.31.8-.39,2.13c.71-.63,1.55-1.08,2.53-1.33.97-.26,1.99-.28,3.06-.09,2.03.38,3.56,1.32,4.57,2.84Z"/>
    <path class="cls-1" d="M212.24,339.4l-12.11,24.95-4.66-.25,4.22-8.43-6.03-17.27,4.91.27,3.82,12.35,5.19-11.86,4.66.25Z"/>
    <path class="cls-1" d="M227.25,352.22l7.17-.73.35,3.46-11.53,1.17-2.21-21.76,4.36-.44,1.86,18.3Z"/>
    <path class="cls-1" d="M235.29,334.36c-.59-.39-.95-.95-1.08-1.67-.13-.72.02-1.37.43-1.94.42-.57,1.01-.93,1.77-1.06.76-.14,1.44,0,2.03.39.59.39.95.95,1.08,1.67.13.72-.02,1.37-.43,1.94-.42.57-1.01.93-1.77,1.06-.76.14-1.44,0-2.03-.39ZM239.81,336.4l3.05,17.09-4.32.77-3.05-17.09,4.32-.77Z"/>
    <path class="cls-1" d="M269.65,329.66c1.64.84,2.83,2.37,3.55,4.6l3.14,9.69-4.17,1.35-2.95-9.12c-.42-1.29-1.07-2.17-1.94-2.65-.88-.47-1.88-.53-3.02-.16-1.13.37-1.92,1-2.36,1.9-.44.9-.46,2-.04,3.29l2.95,9.12-4.17,1.35-2.95-9.12c-.42-1.29-1.07-2.17-1.94-2.65-.88-.47-1.88-.53-3.02-.16-1.15.37-1.95,1.01-2.39,1.91-.44.9-.46,2-.04,3.29l2.95,9.12-4.17,1.35-5.35-16.51,4.17-1.35.65,2c.31-.87.82-1.64,1.54-2.31.72-.67,1.58-1.17,2.59-1.5,1.29-.42,2.53-.52,3.72-.3,1.19.22,2.23.74,3.11,1.58.23-1.13.76-2.14,1.6-3.05.84-.91,1.85-1.55,3.04-1.94,2.03-.66,3.86-.56,5.51.27Z"/>
    <path class="cls-1" d="M273.14,322.64c-.67-.22-1.17-.66-1.49-1.32-.32-.66-.35-1.32-.11-1.98.25-.66.72-1.16,1.41-1.5.7-.34,1.38-.39,2.06-.17.67.22,1.17.66,1.49,1.32.32.66.35,1.32.11,1.98-.25.66-.72,1.16-1.42,1.5s-1.38.39-2.06.17ZM278.04,323.39l7.55,15.63-3.95,1.91-7.55-15.63,3.95-1.91Z"/>
    <path class="cls-1" d="M287.9,322.14l4.16,7.29c.29.51.62.81,1,.89.37.09.85-.03,1.43-.37l1.77-1.01,1.83,3.21-2.4,1.37c-3.21,1.83-5.71,1.19-7.49-1.94l-4.14-7.27-1.8,1.02-1.78-3.13,1.8-1.02-2.13-3.73,3.84-2.19,2.13,3.73,3.38-1.92,1.78,3.13-3.38,1.92Z"/>
    <path class="cls-1" d="M310.74,314.5l-10.32,7.38c.81.96,1.74,1.5,2.78,1.63,1.04.13,2.02-.14,2.94-.79,1.33-.95,1.86-2.19,1.61-3.73l3.85-2.75c.56,1.65.58,3.33.05,5.03-.53,1.7-1.64,3.15-3.32,4.36-1.36.97-2.79,1.54-4.3,1.71-1.51.17-2.96-.08-4.35-.76-1.39-.67-2.61-1.73-3.64-3.18-1.04-1.46-1.67-2.96-1.86-4.49-.2-1.53.03-2.97.68-4.33.65-1.36,1.66-2.54,3.06-3.53,1.34-.96,2.75-1.53,4.23-1.71,1.47-.18,2.89.05,4.23.69,1.35.64,2.51,1.65,3.49,3.03.36.51.66.99.88,1.45ZM305.44,314.68c-.67-.91-1.53-1.4-2.57-1.49-1.04-.09-2.03.2-2.96.87-.88.63-1.44,1.43-1.66,2.4-.22.97-.06,1.97.49,3.02l6.7-4.79Z"/>
    <path class="cls-1" d="M309.78,307.5c-.42-1.47-.43-2.88-.05-4.25.38-1.36,1.12-2.55,2.2-3.56.82-.77,1.78-1.33,2.86-1.67,1.08-.34,2.12-.42,3.12-.24l-5.63-6.01,3.25-3.04,15.85,16.92-3.25,3.04-1.76-1.88c.19,1,.1,2.02-.26,3.07-.36,1.05-1.01,2.02-1.96,2.91-1.07,1-2.3,1.64-3.7,1.92-1.4.28-2.82.16-4.27-.36-1.45-.52-2.78-1.43-3.99-2.72-1.2-1.28-2.01-2.66-2.42-4.13ZM319.89,300.76c-.83-.27-1.64-.31-2.43-.12-.8.19-1.49.56-2.09,1.12-.59.56-1.01,1.22-1.24,1.98-.23.76-.24,1.57-.04,2.41.21.85.67,1.66,1.38,2.42.71.76,1.49,1.28,2.34,1.56.85.28,1.67.33,2.47.16.8-.17,1.48-.53,2.06-1.07.59-.56,1.01-1.23,1.25-2.01.24-.78.25-1.59.04-2.44-.22-.84-.69-1.65-1.42-2.43-.73-.78-1.5-1.3-2.33-1.57Z"/>
  </g>
  <circle class="cls-1" cx="53.64" cy="222.24" r="6.61"/>
  <circle class="cls-1" cx="356.87" cy="221.59" r="6.61"/>
  <g>
    <path class="cls-1" d="M115.44,123.95c1.89-.65,3.43-.38,4.92-.59,1.75-.25,3.54-.32,5.18-1.04,1.45-.64,1.62-1.41.44-2.45-.99-.87-2.15-1.56-3.55-2.55,1.64-.29,3.02-.51,4.4-.79,2.33-.46,4.69-.87,6.81-2,1.68-.9,1.69-1.74.06-2.75-1.72-1.07-3.65-1.66-5.58-2.25-.8-.24-1.69-.27-2.49-.99,5.43-2.24,10.95-3.15,16.69-2.52,6.36.69,11.99,3.15,16.8,7.38.94.83,1.64.84,2.74.4,12.32-4.87,24.96-7.86,38.35-6.74,10.95.92,21.49,3.4,31.75,7.37,4.88,1.89,10.19,2.35,15.37,3.13,1.93.29,3.87.44,5.83.47,2.64.04,3.73,1.34,3.48,3.99-.18,1.92-.94,3.66-1.84,5.32-2.05,3.78-3.37,7.83-4.39,11.98-.77,3.14-.19,4.18,2.81,5.59,2.61,1.22,5.09,2.64,7.09,4.76,1.61,1.7,2.65,3.63,2.37,6.08-.3,2.59-2.04,4.03-4.65,3.79-1.28-.12-2.55-.41-3.68-1.01-1.62-.86-3.07-.64-4.67.19-9.69,5-19.39,10-29.15,14.85-4.15,2.06-8.47,3.67-13.26,3.77-1.83.04-3.47.99-4.26,2.94-.62,1.53-1.21,3.06-1.62,4.65-.62,2.37-.51,4.65.42,6.97,2.12,5.32,4.25,10.64,5.92,16.12.82,2.72.64,2.95-2.25,3.23-9.18.9-16.42-3.7-19.92-12.72-.53-1.36-.93-2.77-1.29-4.19-.28-1.1-.65-1.08-1.43-.4-3.32,2.87-6.56,5.84-9.48,9.12-5.19,5.82-10.43,11.6-15.16,17.82-1.03,1.36-1.63,2.8-1.77,4.5-.33,4.07-.73,8.14-.19,12.22.56,4.22,5.46,8.74,9.73,8.98,1.63.09,3.36-1.29,4.25-3.47,1-2.45,1.02-5.01.56-7.56-.38-2.09-.07-3.91,1.66-5.26,1.74-1.37,3.6-1.17,5.51-.29,3.63,1.66,7.08,3.57,9.74,6.64,2.84,3.27,3.57,6.96,2.13,11.07-1.12,3.21-.05,5.03,3.32,5.58,7.44,1.21,14.45,3.47,20.51,8.13,2.24,1.72,4.18,3.73,5.78,6.07.98,1.43,1.06,2.98.26,4.51-.8,1.52-2.13,2.4-3.86,2.33-14.58-.56-28.97-2.31-42.38-8.49-6.17-2.84-12.28-5.89-18.23-9.16-9.13-5.02-15.74-12.78-21.24-21.49-.99-1.58-1.47-1.64-2.79-.31-3.68,3.7-8.19,4.17-12.7,1.61-3.79-2.15-6.59-5.38-9.31-8.67-.78-.94-.79-2.15-.79-3.32-.01-5.34.99-10.54,2.03-15.74,1.52-7.59,3.35-15.11,5.42-22.56.44-1.57-.05-3.02-.01-4.52.23-8.47,1.68-16.72,4.53-24.7.46-1.28.48-2.43.1-3.71-1.01-3.45-1.84-6.94-2.44-10.5-.46-2.74.31-4.64,2.8-6.08,3.67-2.11,3.63-2.23,1.59-5.89-1.58-2.84-3.51-5.39-6.97-6.84ZM238.28,149.41l.05.05c.05-.39-.07-.7-.35-.99-2.7-2.75-3.24-6.08-2.31-9.66,1.36-5.21,4.26-9.52,8.14-13.2,1.56-1.48,3.32-2.31,5.48-1.56,2.09.72,2.98,2.38,3.22,4.47.02.18.12.21.25.1,2-3.4,1.95-3.79-.37-5.86-1.98-1.77-4.32-2.26-6.88-2.03,3.83-1.24,6.83.2,9.35,3.1,1.46-3.29.65-4.6-2.67-4.68-1.22-.03-2.43-.13-3.64-.26-8.64-.96-16.87-3.43-25.13-6.14-25.41-8.34-49.69-5.51-72.83,8.01-22.81,13.32-39.29,46.5-31.28,74.61,3.94,13.84,8.12,27.47,15.91,39.69,5.78,9.07,12.87,16.93,22.65,21.79,4.51,2.24,9.19,4.15,13.48,6.83,1.31.82,1.64.21,1.84-1,.93-5.74-1.1-10.39-5.13-14.36-.53-.53-1.14-.56-1.83-.6-5.7-.39-10.65-5.15-11.2-10.79-.39-3.96-.02-7.91.29-11.86.13-1.7.66-3.2,1.73-4.52,2.03-2.51,4.04-5.04,6.06-7.56,11.43-14.28,24.94-26.17,40.7-35.48,1.1-.65,2.18-1.41,3.53-1.34,2.69.14,5.18-.63,7.66-1.51,4.38-1.55,8.45-3.77,12.56-5.91,7.89-4.1,15.82-8.12,23.74-12.17h-.02c1.87.06,3.46,1.07,5.22,1.52,1.48.38,3.1.82,4.25-.58,1.2-1.46,1.09-3.21.26-4.82-1.76-3.41-4.94-5.05-8.4-6.82.97,4.95-1.84,7.49-6.23,6.09-1.16-.37-2.29-.84-3.46-1.15-1.56-.42-2.94-1.46-4.65-1.39ZM174.08,244.04c-.05,2.22-1.09,4.03-2.46,5.66-.63.75-.42,1.29.05,1.92.57.75,1.09.21,1.58-.07,2.02-1.14,3.61-2.74,4.84-4.72-.73,2.32-2.43,3.82-4.3,5.2-.47.35-1.43.39-1.14,1.37.27.91,1.06.88,1.8.9,1.93.06,3.64-.68,5.33-1.5-1.42,1.47-3.25,1.93-5.18,2.17-.41.05-1.11-.21-1.07.6.03.73.57.84,1.18.8.36-.02.73-.04,1.09-.06,4.32-.26,8.64,0,12.96.11-4.39-.05-8.76.26-13.13.58-.59.04-1.57-.24-1.61.71-.05,1,.95.73,1.54.79,4.88.51,9.76.98,14.65,1.46-4.69-.12-9.37-.43-14.05-.67-.68-.04-1.74-.63-1.99.56-.24,1.13.91,1.08,1.57,1.4.33.16.69.24,1.04.35,4.21,1.32,8.41,2.64,12.62,3.95-4.55-.84-9.01-2.01-13.37-3.55-1.55-.55-2.09-.3-2.38,1.37-.24,1.42.54,1.66,1.45,2.04,12.92,5.34,26.5,7.24,40.34,7.77,1.39.05,2.5-.43,3.21-1.68.76-1.35.43-2.58-.42-3.75-1.81-2.49-3.99-4.59-6.52-6.35-5.73-3.99-12.22-5.96-19.03-7.05-3.61-.57-5.33-3.23-4.07-6.61,1.77-4.77.4-8.58-3.2-11.82-2.2-1.97-4.74-3.4-7.4-4.64-1.61-.75-3.18-1.36-4.8-.12-1.52,1.17-1.47,2.73-1.25,4.47.51,4.09.37,8.04-3.02,11.14-1.42,1.3.55,1.6.93,2.34.49.93,1.06.43,1.54-.13,1.26-1.45,2.11-3.11,2.69-4.93ZM121.31,153.83c.34-.58.52-.81.63-1.08,7.21-17.13,19.41-29.43,36.17-37.29,1.49-.7,1.13-1.15.16-1.93-6.85-5.54-14.65-7.79-23.39-6.77-2.18.26-4.32.75-6.33,1.92,4.6.7,9.21,1.41,13.81,2.11-1.71-.02-3.39-.24-5.08-.43-1.62-.18-3.24-.34-4.85-.5.59.74,1.24,1.08,1.84,1.5,1.81,1.27,1.72,2.71-.26,3.77-1.35.72-2.81,1.16-4.3,1.5-1.5.34-3.01.66-5.04,1.1,2.74,1.2,4.99,2.19,7.24,3.17-.03.07-.07.14-.1.2-1.56-.54-3.12-1.08-4.86-1.69.75,2.22.51,2.89-1.23,3.56-.85.33-1.74.56-2.64.73-1.32.24-2.65.39-4.49.64,1.97.99,3.42,1.73,5.34,2.69-1.65-.08-2.5-1.03-3.66-.89.09.7.62,1.06.97,1.54,1.15,1.58,2.16,3.24,2.9,5.06.6,1.48.25,2.58-1.09,3.44-.69.45-1.53.72-2.02,1.44.26.51.76.38,1.14.54.36.15.83.09,1.14.62-.81-.11-1.52-.22-2.24-.3-1.71-.19-2.46.36-2.44,2.06.06,4.48,1.48,8.68,2.71,13.28ZM116.24,188.27c-.65.7-.69,1.46-.86,2.14-1.32,5.44-2.72,10.87-3.87,16.35-1.15,5.48-2.38,10.96-2.47,16.6-.02,1.33-.29,2.82.58,3.9,2.72,3.37,5.56,6.65,9.46,8.75,4.66,2.52,9.26,1.56,12.58-2.55.3-.37.72-.72.41-1.28-.81-1.47-1.64-2.93-2.62-4.69-.3,1.08-.5,1.79-.7,2.5.87-3.71-1.19-6.49-2.78-9.91-.65,1.94-.5,3.58-1.39,4.94.34-2.45,1.15-4.93.46-7.37-.67-2.33-1.69-4.57-2.55-6.84-.12.03-.24.06-.36.09-.35,2.93-.7,5.86-1.05,8.79-.16,0-.31.02-.47.03,1.29-7.13,1.42-14.13-1.87-20.94-.54,3.58-.62,7.08-1.45,10.48.29-6.99,2.31-14.06-1.05-21ZM187.49,190.43c-3.06,1.73-3.13,1.9-2.31,4.84.13.47.26.94.41,1.4,3.17,9.73,10.48,14.88,19.7,13.9,2.3-.25,2.42-.38,1.74-2.57-1.69-5.41-3.78-10.68-5.88-15.93-1.01-2.52-1.09-4.96-.35-7.49.43-1.46.89-2.92,1.39-4.54-2.53,1-4.15,2.26-4.05,5.11.09,2.59-.26,5.2-.42,7.81-.13-2.32-.1-4.63-.14-6.94-.02-.93.55-2.29-.25-2.69-.77-.39-1.57.89-2.43,1.3-1.78.85-2.28,2.18-2.06,4.13.23,2.05.05,4.14.05,6.21-.31-2.25-.5-4.5-.61-6.74-.07-1.38-.48-1.26-1.51-.64-1.97,1.18-3.03,2.69-2.7,5.05.08.58.01,1.18.01,1.77-.08,0-.17,0-.25,0-.11-1.26-.21-2.51-.34-3.98ZM236.42,141.32c.05,3.09.81,5.61,3.26,6.93,2.61,1.41,5.52,2.25,8.42,2.95,1.39.34,2.51-.35,3.23-1.55.72-1.22.79-2.61-.26-3.55-2.19-1.98-2.24-4.45-2.04-7.05.24-3.11.81-6.15,1.97-9.06.7-1.75.31-3.23-1.18-4.38-1.36-1.06-2.97-1.01-4.51.27-4.08,3.4-6.86,7.7-8.43,12.76-.3.98-.35,2.03-.46,2.68Z"/>
    <path class="cls-1" d="M172.91,178.14c.1.37-.22.52-.42.68-7.8,6.4-16.51,8.83-26.23,5.36-6.11-2.19-9.32-7.03-10.32-13.33-.51-3.22.6-5.2,3.53-6.69,3.15-1.6,6.58-2.17,10.06-2.43,4.91-.36,9.83-.66,14.76-.74-5.79.66-11.58,1.28-17.37,1.99-2.43.3-4.77.96-6.95,2.12-2.51,1.34-3.37,2.85-2.88,5.67,1.16,6.68,4.92,11.27,11.51,13.03,8.25,2.2,15.79.19,22.66-4.66.5-.35.98-.71,1.48-1.06.03-.02.1.03.16.05Z"/>
    <path class="cls-1" d="M205.82,113.16c-.96.78-1.93,1.55-2.87,2.35-7.61,6.5-9.4,14.39-5.08,23.42,3.76,7.86,9.39,13.86,17.81,16.9-2.3-.18-4.34-1.11-6.24-2.27-7.18-4.36-11.99-10.64-14.3-18.68-1.97-6.83.04-12.73,4.93-17.72,1.65-1.68,3.48-3.14,5.76-4.01Z"/>
    <path class="cls-1" d="M182,122.01c-2.25,5.03-4.78,9.93-6.89,15.05-1.48,3.58-1.36,6.65.84,9.96,4.12,6.21,8.6,11.96,15.43,15.43-2.47-.58-4.57-1.88-6.51-3.43-4.99-3.98-8.73-8.96-11.62-14.63-.82-1.61-.59-3.19-.1-4.79,1.95-6.35,5.31-12,8.86-17.58Z"/>
    <path class="cls-1" d="M203.17,174.78c-12.69-3.53-23.72-9.57-31.24-20.88,8.32,10.11,19.37,16.09,31.24,20.88Z"/>
    <path class="cls-1" d="M219.56,117.17c3.98,0,7.06,3.08,7.07,7.06,0,3.94-3.11,7.12-7.02,7.16-3.98.04-7.21-3.2-7.16-7.21.04-3.97,3.14-7.03,7.12-7.02ZM225.97,124.2c-.03-3.51-2.9-6.38-6.4-6.4-3.54-.02-6.53,2.98-6.51,6.5.03,3.46,2.95,6.37,6.43,6.39,3.58.02,6.5-2.9,6.47-6.5Z"/>
    <path class="cls-1" d="M238.28,149.41c-1.93,1.54-4.15,1.46-6.41,1.18-1.7-.21-3.32-.71-4.88-1.43-.9-.42-1.3-1.08-1.13-2.04.8-4.64,2.62-8.92,4.76-13.12-.69,2.41-1.4,4.82-2.07,7.24-.48,1.76-.9,3.53-1.38,5.29-.28,1.02.09,1.58,1.06,1.96,3.28,1.28,6.58,2.21,10.1.97,0,0-.05-.05-.05-.05Z"/>
    <path class="cls-1" d="M237.88,158.57c-3.17.54-6.31.31-9.32-.82-5.03-1.89-7.39-6.7-5.61-11.39.46.29.17.7.15,1.04-.22,4.41,1.67,7.44,5.75,9.2,1.46.63,2.98,1.06,4.55,1.31,1.49.23,2.99.44,4.48.66Z"/>
    <path class="cls-1" d="M146.93,225.77c-3.1,7.47-5.61,14.85,2.53,21.02-.49.32-.82-.02-1.11-.2-3.34-2-5.13-4.96-5.17-8.85-.05-4.37,1.5-8.27,3.76-11.97Z"/>
    <path class="cls-1" d="M251.3,156.56c-6.73.79-12.94-.8-18.81-4.02,6.15,1.87,12.43,3.11,18.79,4.02,0,0,.03,0,.03,0Z"/>
    <path class="cls-1" d="M158.07,166c-4.87.57-9.65,1.35-14.32,2.75-1.51.45-3,.99-4.51,1.47-.37.12-.89.43-1.04-.22-.1-.46.41-.54.73-.65,3.69-1.26,7.47-2.19,11.35-2.66,2.59-.31,5.19-.47,7.78-.69Z"/>
    <path class="cls-1" d="M161.12,173.34c-5.47,1.51-11.06,2.61-16.72,3.36-.34.05-.83.2-.92-.28-.13-.65.47-.57.85-.62,5.61-.66,11.2-1.4,16.79-2.47Z"/>
    <path class="cls-1" d="M156.18,171.51c-4.9,1.49-9.89,2.45-14.97,3.01-.35.04-.81.09-.84-.42-.02-.36.36-.45.66-.47,5.08-.43,10.13-1.12,15.14-2.12Z"/>
    <path class="cls-1" d="M164.8,178.61c-5.09,1.77-10.11,3.89-15.68,3.52,5.35-.6,10.49-2.17,15.68-3.52Z"/>
    <path class="cls-1" d="M164.4,123.89c-1.65,2.93-3.87,5.48-1.43,9.09-1.6-.67-2.16-1.66-2.24-3.01-.14-2.35,1.25-4.79,3.67-6.09Z"/>
    <path class="cls-1" d="M155.86,201.96c-.34.72-.52,1.1-.7,1.48q-1.25,2.64,1.65,2.82c-.98,1-2.04,1.32-3.12.57-1.18-.82-.48-1.85-.01-2.76.42-.8.93-1.56,2.18-2.11Z"/>
    <path class="cls-1" d="M136.85,181.24c-.91,1.31-2.09,1.86-3.24,1.44-1.54-.57-1.56-2.23-1.79-3.74,1.39,1.38,2.13,4,5.03,2.31Z"/>
    <path class="cls-1" d="M156.37,132.29c-2.54-1.04-2.51-3.66.03-5.8-.21,1.99-1.74,3.89-.03,5.8Z"/>
    <path class="cls-1" d="M142.57,186.8c-3.29,1.61-5.01.69-5.1-2.64.93,2.18,2.89,2.41,5.1,2.64Z"/>
    <path class="cls-1" d="M135.73,190.33c-2.33,1.42-3.98.27-4.57-3.29,1.53,1.45,2.25,3.5,4.57,3.29Z"/>
    <path class="cls-1" d="M126.36,181.7c.31,1.73.39,3.5,2.91,3.95-1.3.81-2.18.51-2.84-.21-1.06-1.16-.96-2.46-.07-3.74Z"/>
    <path class="cls-1" d="M127.81,189.4c.99.29,1.38,1.03,1.92,1.58.46.48.87,1.04,1.68.83.4-.1.95-.22.99.37.03.5-.54.6-.93.71-1.52.43-2.81-.77-3.66-3.5Z"/>
    <path class="cls-1" d="M153.3,210.53c-.29,1.53-.65,2.36-1.64,2.33-1.3-.04-2.12-.94-2.92-2.21,1.58.12,2.83,1.87,4.57-.12Z"/>
    <path class="cls-1" d="M147.46,202.97c1.19,1.05,2.34,1.35,3.73-.04-.01,1.47-.7,2.05-1.71,2.13-1.32.11-1.87-.78-2.02-2.09Z"/>
    <path class="cls-1" d="M149.72,206.26c1.54,1.04,2.56,2.21,4.39,1.73-.4,1.12-1.14,1.25-1.89,1.13-1.32-.21-2.04-1.08-2.5-2.86Z"/>
    <path class="cls-1" d="M166.32,139.03c-1.92-1.54-1.8-3.2.15-4.63-.15,1.55-.67,2.94-.15,4.63Z"/>
    <path class="cls-1" d="M144.91,205.85c1,1.48,1.86,2.43,3.48,2.12-.73.92-1.48,1.21-2.42.78-1.05-.48-1.19-1.39-1.06-2.9Z"/>
    <path class="cls-1" d="M153.4,138.06c-1.95-1.25-2.31-2.62-1.26-4.77.44,1.66.82,3.13,1.26,4.77Z"/>
    <path class="cls-1" d="M135.74,187.91c-1.79-.52-2.5-1.88-3.01-3.8,1.78.9,2.31,2.41,3.01,3.8Z"/>
    <path class="cls-1" d="M161.1,136.18c-1.96-.29-2.42-1.07-1.82-3.22.65,1.15,1.21,2.14,1.82,3.22Z"/>
    <path class="cls-1" d="M223.19,123.43c-.05,1.77-1.56,3.16-3.37,3.07-1.7-.08-3.07-1.54-3.03-3.23.05-1.78,1.57-3.17,3.36-3.08,1.71.09,3.07,1.55,3.03,3.23Z"/>
  </g>
</svg>