<svg width="20" height="20" viewBox="0 0 20 20" fill="none" xmlns="http://www.w3.org/2000/svg">
<rect width="20" height="20" rx="2" fill="#FDFEFD"/>
<g clip-path="url(#clip0_516_184)">
<path d="M9.7931 16C12.9926 16 15.5862 13.3515 15.5862 10.0845C15.5862 6.81746 12.9926 4.16901 9.7931 4.16901C6.59366 4.16901 4 6.81746 4 10.0845C4 13.3515 6.59366 16 9.7931 16Z" fill="#0C0C0C"/>
<path d="M15.1723 2.69014C15.6294 2.69014 15.9999 2.31179 15.9999 1.84507C15.9999 1.37835 15.6294 1 15.1723 1C14.7153 1 14.3447 1.37835 14.3447 1.84507C14.3447 2.31179 14.7153 2.69014 15.1723 2.69014Z" fill="#0C0C0C"/>
</g>
<defs>
<clipPath id="clip0_516_184">
<rect width="12" height="15" fill="white" transform="translate(4 1)"/>
</clipPath>
</defs>
</svg>
