<svg width="79" height="79" viewBox="0 0 79 79" fill="none" xmlns="http://www.w3.org/2000/svg">
<path d="M27.7143 2H7.71429C6.19876 2 4.74531 2.60204 3.67368 3.67368C2.60204 4.74531 2 6.19876 2 7.71429V27.7143C2 29.2298 2.60204 30.6833 3.67368 31.7549C4.74531 32.8265 6.19876 33.4286 7.71429 33.4286H27.7143C29.2298 33.4286 30.6833 32.8265 31.7549 31.7549C32.8265 30.6833 33.4286 29.2298 33.4286 27.7143V7.71429C33.4286 6.19876 32.8265 4.74531 31.7549 3.67368C30.6833 2.60204 29.2298 2 27.7143 2ZM70.5714 44.8571H50.5714C49.0559 44.8571 47.6025 45.4592 46.5308 46.5308C45.4592 47.6025 44.8571 49.0559 44.8571 50.5714V70.5714C44.8571 72.0869 45.4592 73.5404 46.5308 74.612C47.6025 75.6837 49.0559 76.2857 50.5714 76.2857H70.5714C72.0869 76.2857 73.5404 75.6837 74.612 74.612C75.6837 73.5404 76.2857 72.0869 76.2857 70.5714V50.5714C76.2857 49.0559 75.6837 47.6025 74.612 46.5308C73.5404 45.4592 72.0869 44.8571 70.5714 44.8571Z" stroke="#1F1C1C" stroke-width="4" stroke-linecap="round" stroke-linejoin="round"/>
<path d="M60.5717 33.4286V2M44.8574 17.7143H76.286" stroke="#EE2531" stroke-width="4" stroke-linecap="round" stroke-linejoin="round"/>
<path d="M7.71429 44.8572H27.7143C29.2298 44.8572 30.6833 45.4592 31.7549 46.5309C32.8265 47.6025 33.4286 49.0559 33.4286 50.5715V70.5715C33.4286 72.087 32.8265 73.5404 31.7549 74.6121C30.6833 75.6837 29.2298 76.2857 27.7143 76.2857H7.71429C6.19876 76.2857 4.74531 75.6837 3.67368 74.6121C2.60204 73.5404 2 72.087 2 70.5715V50.5715C2 49.0559 2.60204 47.6025 3.67368 46.5309C4.74531 45.4592 6.19876 44.8572 7.71429 44.8572Z" fill="#EE2531" stroke="#EE2531" stroke-width="4" stroke-linecap="round" stroke-linejoin="round"/>
</svg>
