<svg width="71" height="58" viewBox="0 0 71 58" fill="none" xmlns="http://www.w3.org/2000/svg">
<path d="M2.18667 53.7167L22.48 33.2167L33.4467 43.7167L46.85 32L54.3167 39.28M68.6667 7C68.6667 5.67392 68.1399 4.40215 67.2022 3.46447C66.2645 2.52678 64.9927 2 63.6667 2H7C5.67392 2 4.40215 2.52678 3.46447 3.46447C2.52678 4.40215 2 5.67392 2 7V22H68.6667V7Z" stroke="#1F1C1C" stroke-width="4" stroke-linecap="round" stroke-linejoin="round"/>
<path d="M68.6667 18.6667V50.3333C68.6667 51.6594 68.1399 52.9312 67.2022 53.8689C66.2645 54.8065 64.9927 55.3333 63.6667 55.3333H15.3333M27.1867 12H57.1867M13.85 12H17.1833M2 18.6667V33.6667" stroke="#1F1C1C" stroke-width="4" stroke-linecap="round" stroke-linejoin="round"/>
</svg>
