<svg width="71" height="58" viewBox="0 0 71 58" fill="none" xmlns="http://www.w3.org/2000/svg">
<path d="M67.2022 3.46447C68.1399 4.40215 68.6667 5.67392 68.6667 7V22H2V7C2 5.67392 2.52678 4.40215 3.46447 3.46447C4.40215 2.52678 5.67392 2 7 2H63.6667C64.9927 2 66.2645 2.52678 67.2022 3.46447Z" fill="#274595" stroke="#1F1C1C" stroke-width="4" stroke-linecap="round" stroke-linejoin="round"/>
<path d="M2.18652 53.7167L22.4799 33.2167L33.4465 43.7167L46.8499 32L54.3165 39.28" stroke="#1F1C1C" stroke-width="4" stroke-linecap="round" stroke-linejoin="round"/>
<path d="M68.6667 18.6666V50.3333C68.6667 51.6594 68.1399 52.9311 67.2022 53.8688C66.2645 54.8065 64.9927 55.3333 63.6667 55.3333H15.3333M2 18.6666V33.6666" stroke="#1F1C1C" stroke-width="4" stroke-linecap="round" stroke-linejoin="round"/>
<path d="M27.1863 12H57.1863M13.8496 12H17.1829" stroke="#FDFEFD" stroke-width="4" stroke-linecap="round" stroke-linejoin="round"/>
</svg>
