<svg width="80" height="53" viewBox="0 0 80 53" fill="none" xmlns="http://www.w3.org/2000/svg">
<path d="M56.8508 21.168C56.9714 20.8997 57.1473 20.6599 57.367 20.4645L74.0337 5.59288C74.3339 5.32576 74.7049 5.15128 75.1019 5.09042C75.4988 5.02957 75.9049 5.08494 76.2712 5.24988C76.6374 5.41482 76.9483 5.68229 77.1664 6.02009C77.3845 6.3579 77.5004 6.75164 77.5003 7.15392V44.3101C77.5004 44.7124 77.3845 45.1061 77.1664 45.4439C76.9483 45.7817 76.6374 46.0492 76.2712 46.2141C75.9049 46.3791 75.4988 46.4344 75.1019 46.3736C74.7049 46.3127 74.3339 46.1383 74.0337 45.8711L57.367 30.9995C57.1473 30.8041 56.9714 30.5644 56.8508 30.296C56.7301 30.0277 56.6675 29.7369 56.667 29.4426V22.0214C56.6675 21.7271 56.7301 21.4363 56.8508 21.168Z" stroke="#1F1C1C" stroke-width="4" stroke-linecap="round" stroke-linejoin="round"/>
<path d="M2.5 42.1522V10.8478C2.5 8.63384 3.37797 6.51054 4.94078 4.94502C6.50358 3.3795 8.6232 2.5 10.8333 2.5H46.25C48.4601 2.5 50.5797 3.3795 52.1426 4.94502C53.7054 6.51054 54.5833 8.63384 54.5833 10.8478V42.1522C54.5833 44.3662 53.7054 46.4895 52.1426 48.055C50.5797 49.6205 48.4601 50.5 46.25 50.5H10.8333C8.6232 50.5 6.50358 49.6205 4.94078 48.055C3.37797 46.4895 2.5 44.3662 2.5 42.1522Z" fill="#EFD212" stroke="#1F1C1C" stroke-width="4" stroke-linecap="round" stroke-linejoin="round"/>
</svg>
