<svg width="79" height="53" viewBox="0 0 79 53" fill="none" xmlns="http://www.w3.org/2000/svg">
<path d="M2 42.1522V10.8478C2 8.63384 2.87797 6.51054 4.44078 4.94502C6.00358 3.3795 8.1232 2.5 10.3333 2.5H45.75C47.9601 2.5 50.0797 3.3795 51.6426 4.94502C53.2054 6.51054 54.0833 8.63384 54.0833 10.8478V42.1522C54.0833 44.3662 53.2054 46.4895 51.6426 48.055C50.0797 49.6205 47.9601 50.5 45.75 50.5H10.3333C8.1232 50.5 6.00358 49.6205 4.44078 48.055C2.87797 46.4895 2 44.3662 2 42.1522Z" stroke="#1F1C1C" stroke-width="4" stroke-linecap="round" stroke-linejoin="round"/>
<path d="M56.3508 21.168C56.4714 20.8997 56.6473 20.6599 56.867 20.4645L73.5337 5.59288C73.8339 5.32576 74.2049 5.15128 74.6019 5.09042C74.9988 5.02957 75.4049 5.08494 75.7712 5.24988C76.1374 5.41482 76.4483 5.68229 76.6664 6.02009C76.8845 6.3579 77.0004 6.75164 77.0003 7.15392V44.3101C77.0004 44.7124 76.8845 45.1061 76.6664 45.4439C76.4483 45.7817 76.1374 46.0492 75.7712 46.2141C75.4049 46.3791 74.9988 46.4344 74.6019 46.3736C74.2049 46.3127 73.8339 46.1383 73.5337 45.8711L56.867 30.9995C56.6473 30.8041 56.4714 30.5644 56.3508 30.296C56.2301 30.0277 56.1675 29.7369 56.167 29.4426V22.0214C56.1675 21.7271 56.2301 21.4363 56.3508 21.168Z" stroke="#1F1C1C" stroke-width="4" stroke-linecap="round" stroke-linejoin="round"/>
</svg>
